<svg width="40" height="40" viewBox="0 0 40 40" fill="none" xmlns="http://www.w3.org/2000/svg">
<g clip-path="url(#clip0_4513_46019)">
<path d="M10.5469 24.6875C10.5469 26.6291 8.97281 28.2031 7.03125 28.2031C5.08969 28.2031 3.51562 26.6291 3.51562 24.6875C3.51562 22.7459 5.08969 21.1719 7.03125 21.1719C8.97281 21.1719 10.5469 22.7459 10.5469 24.6875Z" fill="#B620FF"/>
<path d="M32.9688 30.5469C31.6534 30.5469 30.4361 30.9323 29.3823 31.5634L21.1719 26.3877V18.8281H27.0312V16.4844C27.0312 12.6071 23.8773 9.375 20 9.375C16.1227 9.375 12.9688 12.6071 12.9688 16.4844V18.8281H18.8281V26.3883L10.6177 31.5634C9.56391 30.9323 8.34656 30.5469 7.03125 30.5469C3.15398 30.5469 0 33.7009 0 37.5781V40H14.0625V37.5781C14.0625 35.9 13.4473 34.3777 12.4625 33.168L19.9997 28.4204L27.5372 33.168C26.5528 34.378 25.9375 35.9 25.9375 37.5781V40H40V37.5781C40 33.7009 36.846 30.5469 32.9688 30.5469Z" fill="#B620FF"/>
<path d="M36.4844 24.6875C36.4844 26.6291 34.9103 28.2031 32.9688 28.2031C31.0272 28.2031 29.4531 26.6291 29.4531 24.6875C29.4531 22.7459 31.0272 21.1719 32.9688 21.1719C34.9103 21.1719 36.4844 22.7459 36.4844 24.6875ZM23.5156 3.51562C23.5156 5.45719 21.9416 7.03125 20 7.03125C18.0584 7.03125 16.4844 5.45719 16.4844 3.51562C16.4844 1.57406 18.0584 0 20 0C21.9416 0 23.5156 1.57406 23.5156 3.51562Z" fill="#B620FF"/>
</g>
<defs>
<clipPath id="clip0_4513_46019">
<rect width="40" height="40" fill="white"/>
</clipPath>
</defs>
</svg>
