<svg width="20" height="21" viewBox="0 0 20 21" fill="none" xmlns="http://www.w3.org/2000/svg">
<path d="M9.99967 10.5003C12.3009 10.5003 14.1663 8.63485 14.1663 6.33366C14.1663 4.03247 12.3009 2.16699 9.99967 2.16699C7.69849 2.16699 5.83301 4.03247 5.83301 6.33366C5.83301 8.63485 7.69849 10.5003 9.99967 10.5003Z" stroke="white" stroke-width="1.19118" stroke-linecap="round" stroke-linejoin="round"/>
<path d="M2.8418 18.8333C2.8418 15.6083 6.05013 13 10.0001 13C10.8001 13 11.5751 13.1083 12.3001 13.3083" stroke="white" stroke-width="1.19118" stroke-linecap="round" stroke-linejoin="round"/>
<path d="M18.3337 15.5003C18.3337 15.767 18.3003 16.0253 18.2337 16.2753C18.1587 16.6087 18.0253 16.9337 17.8503 17.217C17.2753 18.1837 16.217 18.8337 15.0003 18.8337C14.142 18.8337 13.367 18.5086 12.7837 17.9753C12.5337 17.7586 12.317 17.5003 12.1503 17.217C11.842 16.717 11.667 16.1253 11.667 15.5003C11.667 14.6003 12.0253 13.7753 12.6087 13.1753C13.217 12.5503 14.067 12.167 15.0003 12.167C15.9837 12.167 16.8753 12.592 17.4753 13.2753C18.0087 13.867 18.3337 14.6503 18.3337 15.5003Z" stroke="white" stroke-width="1.19118" stroke-miterlimit="10" stroke-linecap="round" stroke-linejoin="round"/>
<path d="M16.2411 15.4834H13.7578" stroke="white" stroke-width="1.19118" stroke-miterlimit="10" stroke-linecap="round" stroke-linejoin="round"/>
<path d="M14.999 14.2666V16.7583" stroke="white" stroke-width="1.19118" stroke-miterlimit="10" stroke-linecap="round" stroke-linejoin="round"/>
</svg>
