<svg width="40" height="40" viewBox="0 0 40 40" fill="none" xmlns="http://www.w3.org/2000/svg">
<path d="M19.0379 2.5C21.371 2.5 23.6085 3.42681 25.2582 5.07654C26.908 6.72628 27.8348 8.9638 27.8348 11.2969C27.8348 13.63 26.908 15.8675 25.2582 17.5172C23.6085 19.1669 21.371 20.0938 19.0379 20.0938C7.36914 19.6125 7.37852 2.98125 19.0379 2.5ZM36.6316 29.9625C36.6316 31.4533 36.1896 32.9106 35.3613 34.1501C34.5331 35.3896 33.3559 36.3557 31.9786 36.9262C30.6013 37.4967 29.0858 37.646 27.6237 37.3552C26.1615 37.0643 24.8185 36.3465 23.7643 35.2923C22.7102 34.2382 21.9923 32.8951 21.7015 31.433C21.4106 29.9709 21.5599 28.4553 22.1304 27.078C22.7009 25.7007 23.667 24.5235 24.9065 23.6953C26.1461 22.8671 27.6034 22.425 29.0941 22.425C31.0926 22.4272 33.0085 23.222 34.4216 24.6351C35.8347 26.0481 36.6295 27.9641 36.6316 29.9625ZM32.2191 29.3375H29.7191V26.8375C29.7191 26.6717 29.6533 26.5128 29.5361 26.3956C29.4189 26.2783 29.2599 26.2125 29.0941 26.2125C28.9284 26.2125 28.7694 26.2783 28.6522 26.3956C28.535 26.5128 28.4691 26.6717 28.4691 26.8375V29.3375H25.9691C25.8034 29.3375 25.6444 29.4033 25.5272 29.5206C25.41 29.6378 25.3441 29.7967 25.3441 29.9625C25.3441 30.1283 25.41 30.2872 25.5272 30.4044C25.6444 30.5217 25.8034 30.5875 25.9691 30.5875H28.4691V33.0875C28.4691 33.2533 28.535 33.4122 28.6522 33.5294C28.7694 33.6467 28.9284 33.7125 29.0941 33.7125C29.2599 33.7125 29.4189 33.6467 29.5361 33.5294C29.6533 33.4122 29.7191 33.2533 29.7191 33.0875V30.5875H32.2191C32.3849 30.5875 32.5439 30.5217 32.6611 30.4044C32.7783 30.2872 32.8441 30.1283 32.8441 29.9625C32.8441 29.7967 32.7783 29.6378 32.6611 29.5206C32.5439 29.4033 32.3849 29.3375 32.2191 29.3375ZM23.7316 23.0063C23.9129 22.8688 24.1004 22.7375 24.2941 22.6125C21.4866 21.4937 18.3235 21.0312 15.4191 22.0625L8.29414 24.4375C6.85906 24.9154 5.61094 25.8332 4.7269 27.0605C3.84286 28.2878 3.36781 29.7624 3.36914 31.275V34.6813C3.37014 35.3456 3.6345 35.9825 4.1043 36.4523C4.5741 36.9221 5.211 37.1865 5.87539 37.1875H9.67539V34.2937C9.67539 34.128 9.74124 33.969 9.85845 33.8518C9.97566 33.7346 10.1346 33.6687 10.3004 33.6687C10.4662 33.6687 10.6251 33.7346 10.7423 33.8518C10.8595 33.969 10.9254 34.128 10.9254 34.2937V37.1875H24.1066C19.2479 34.0138 19.046 26.4363 23.7316 23.0063Z" fill="#B620FF"/>
</svg>
