<svg width="40" height="40" viewBox="0 0 40 40" fill="none" xmlns="http://www.w3.org/2000/svg">
<g clip-path="url(#clip0_3907_15324)">
<path d="M23.5156 0.694336V7.0316H29.7151L23.5156 0.694336Z" fill="#B620FF"/>
<path d="M15.2734 9.45703C15.9206 9.45703 16.4453 8.93236 16.4453 8.28516C16.4453 7.63795 15.9206 7.11328 15.2734 7.11328C14.6262 7.11328 14.1016 7.63795 14.1016 8.28516C14.1016 8.93236 14.6262 9.45703 15.2734 9.45703Z" fill="#B620FF"/>
<path d="M16.5586 35.2305H9.45117C8.80398 35.2305 8.2793 34.7058 8.2793 34.0586C8.2793 33.4114 8.80398 32.8867 9.45117 32.8867H16.5586V30.5469H9.45117C8.80398 30.5469 8.2793 30.0222 8.2793 29.375C8.2793 28.7278 8.80398 28.2031 9.45117 28.2031H16.5586V25.9375H9.45117C8.80398 25.9375 8.2793 25.4128 8.2793 24.7656C8.2793 24.1184 8.80398 23.5938 9.45117 23.5938H16.7602C17.2439 22.2298 18.5465 21.25 20.0742 21.25H21.1899C21.3748 18.6366 23.5586 16.5664 26.2183 16.5664H30.5469V9.375H22.3438C21.6966 9.375 21.1719 8.85031 21.1719 8.20312V0H1.17188C0.524687 0 0 0.524687 0 1.17188V38.8281C0 39.4753 0.524687 40 1.17188 40H17.7337C16.1834 37.9396 16.6403 35.9377 16.5586 35.2305ZM15.2734 4.76953C17.212 4.76953 18.7891 6.34664 18.7891 8.28516C18.7891 10.2237 17.212 11.8008 15.2734 11.8008C13.3349 11.8008 11.7578 10.2237 11.7578 8.28516C11.7578 6.34664 13.3349 4.76953 15.2734 4.76953ZM15.2734 11.8379C18.5043 11.8379 21.1328 14.4664 21.1328 17.6973C21.1328 18.3445 20.6081 18.8691 19.9609 18.8691H10.5859C9.93875 18.8691 9.41406 18.3445 9.41406 17.6973C9.41406 14.4664 12.0426 11.8379 15.2734 11.8379ZM5.88633 35.2266C5.24125 35.2266 4.71836 34.7037 4.71836 34.0586C4.71836 33.4135 5.24125 32.8906 5.88633 32.8906C6.53141 32.8906 7.0543 33.4135 7.0543 34.0586C7.0543 34.7037 6.53133 35.2266 5.88633 35.2266ZM5.88633 30.543C5.24125 30.543 4.71836 30.0201 4.71836 29.375C4.71836 28.7299 5.24125 28.207 5.88633 28.207C6.53141 28.207 7.0543 28.7299 7.0543 29.375C7.0543 30.0201 6.53133 30.543 5.88633 30.543ZM5.88633 25.8555C5.24125 25.8555 4.71836 25.3326 4.71836 24.6875C4.71836 24.0424 5.24125 23.5195 5.88633 23.5195C6.53141 23.5195 7.0543 24.0424 7.0543 24.6875C7.0543 25.3326 6.53133 25.8555 5.88633 25.8555Z" fill="#B620FF"/>
<path d="M11.959 16.5255H18.5886C17.4838 13.4095 13.0648 13.4068 11.959 16.5255ZM30.6059 32.9649C30.6059 33.6121 30.0812 34.1368 29.434 34.1368C28.7868 34.1368 28.2621 33.6121 28.2621 32.9649V32.8246L18.9027 31.6547V36.4845C18.9027 38.423 20.4798 40.0001 22.4184 40.0001H36.4848C38.4233 40.0001 40.0004 38.423 40.0004 36.4845V31.6551L30.6059 32.8304V32.9649ZM38.8285 23.5938H35.2345C35.2428 23.4744 35.2362 23.6881 35.2387 21.6446C35.2387 20.1369 34.012 18.9102 32.5043 18.9102H26.2187C24.7305 18.9102 23.5199 20.1209 23.5199 21.6091C23.5223 23.6845 23.5156 23.4728 23.5241 23.5938H20.0746C19.4274 23.5938 18.9027 24.1185 18.9027 24.7657V29.2927L28.2733 30.464C28.3485 29.8894 28.8389 29.4454 29.434 29.4454C30.0311 29.4454 30.5228 29.8923 30.5955 30.4696L40.0004 29.2931V24.7657C40.0004 24.1185 39.4757 23.5938 38.8285 23.5938ZM25.8595 23.5938C25.868 23.4727 25.8612 23.6845 25.8637 21.6091C25.8638 21.5149 25.9012 21.4247 25.9678 21.3581C26.0343 21.2916 26.1245 21.2541 26.2187 21.254H32.5043C32.7197 21.254 32.8949 21.4292 32.8949 21.6446C32.8973 23.6841 32.8907 23.4735 32.8991 23.5938H25.8595Z" fill="#B620FF"/>
</g>
<defs>
<clipPath id="clip0_3907_15324">
<rect width="40" height="40" fill="white"/>
</clipPath>
</defs>
</svg>
