<svg width="86" height="86" viewBox="0 0 86 86" fill="none" xmlns="http://www.w3.org/2000/svg">
<circle cx="43" cy="43" r="43" fill="#3B28EE"/>
<path d="M42.7336 26.6084C43.2915 26.6084 43.8264 26.83 44.2209 27.2244C44.6153 27.6189 44.8369 28.1538 44.8369 28.7117V40.6301H56.7554C57.3132 40.6301 57.8482 40.8517 58.2426 41.2462C58.637 41.6406 58.8586 42.1756 58.8586 42.7334C58.8586 43.2912 58.637 43.8262 58.2426 44.2206C57.8482 44.6151 57.3132 44.8367 56.7554 44.8367H44.8369V56.7551C44.8369 57.313 44.6153 57.8479 44.2209 58.2424C43.8264 58.6368 43.2915 58.8584 42.7336 58.8584C42.1758 58.8584 41.6409 58.6368 41.2464 58.2424C40.852 57.8479 40.6304 57.313 40.6304 56.7551V44.8367H28.7119C28.1541 44.8367 27.6191 44.6151 27.2247 44.2206C26.8302 43.8262 26.6086 43.2912 26.6086 42.7334C26.6086 42.1756 26.8302 41.6406 27.2247 41.2462C27.6191 40.8517 28.1541 40.6301 28.7119 40.6301H40.6304V28.7117C40.6304 28.1538 40.852 27.6189 41.2464 27.2244C41.6409 26.83 42.1758 26.6084 42.7336 26.6084Z" fill="white"/>
</svg>
