<svg width="40" height="40" viewBox="0 0 40 40" fill="none" xmlns="http://www.w3.org/2000/svg">
<g clip-path="url(#clip0_3907_15297)">
<path d="M39.1467 23.1236H37.7825V21.395C37.7825 20.9599 37.4297 20.6071 36.9945 20.6071H36.5286C36.584 19.9261 36.1447 19.2838 35.4605 19.1079L30.9589 17.9509L32.409 14.1532C32.8288 13.0535 32.2783 11.821 31.1776 11.4007L27.8581 10.1164C27.2219 9.8702 26.5385 9.80731 25.8676 9.93044C23.2335 10.4136 18.9044 11.2079 18.4042 11.2993C18.0735 11.3598 17.7747 11.5348 17.5603 11.7936L14.6135 15.3501V4.63825C14.6135 4.43448 14.5474 4.23621 14.4252 4.07319C14.303 3.91017 14.1311 3.79119 13.9355 3.73411L7.59647 1.88411H24.0322V8.83919L25.9159 8.59309V0.942233C25.9159 0.422077 25.4942 0.000358425 24.974 0.000358425C24.8405 0.000358425 1.0028 -0.00175095 0.929984 0.00426468C0.431234 0.0453584 0.0652184 0.464577 0.0652184 0.942233C0.0652184 1.17333 0.0607653 35.3789 0.0733434 35.4793C0.121234 35.86 0.393265 36.1633 0.743265 36.2656L13.4079 39.9616C14.0112 40.1379 14.6136 39.6834 14.6136 39.0575V19.5508C14.8391 19.4634 15.0385 19.3198 15.193 19.1337L19.4307 14.0191L24.1556 13.155L20.9709 21.4957C20.9709 21.4957 21.0844 21.2089 18.9622 28.4737L16.4923 33.1685V37.6164C17.2193 37.7938 17.9979 37.462 18.3602 36.7731L21.9882 29.8768C22.0399 29.7784 22.0817 29.675 22.113 29.5683L24.1199 22.6982L24.5722 22.8708L28.0683 28.3619L25.5551 35.4404C25.2473 36.3072 25.7005 37.2596 26.5675 37.5674C27.4297 37.8736 28.3862 37.4236 28.6945 36.555L31.4797 28.7104C31.5644 28.4718 31.5936 28.217 31.5651 27.9655C31.5366 27.7139 31.4511 27.4721 31.3151 27.2585L28.8709 23.4197L29.9322 20.6401L32.1827 21.2186L32.1622 23.1238H30.798C30.6207 23.1238 30.4577 23.1831 30.3262 23.2818L32.4131 26.5595C32.9074 27.3358 33.0143 28.2786 32.7064 29.1459L32.3597 30.1223H39.1469C39.5819 30.1223 39.9346 29.7696 39.9346 29.3346V23.9116C39.9346 23.4764 39.5819 23.1236 39.1467 23.1236ZM11.929 24.7633C11.929 25.2835 11.5073 25.7052 10.9872 25.7052C10.467 25.7052 10.0453 25.2835 10.0453 24.7633V19.3261C10.0453 18.806 10.467 18.3843 10.9872 18.3843C11.5073 18.3843 11.929 18.806 11.929 19.3261V24.7633ZM36.2068 23.1236H33.738V22.1829H36.2068V23.1236Z" fill="#B620FF"/>
<path d="M24.6723 25.4503L24.0326 27.64V34.4195H21.0694L20.0784 36.3033H24.1725C24.1273 35.8695 24.1788 35.4277 24.3292 35.0045L25.9165 30.5341V27.4044L24.6723 25.4503ZM32.5714 3.95555C30.9429 3.33375 29.1187 4.14985 28.4969 5.77836C27.8696 7.42094 28.7079 9.2375 30.3197 9.8529C31.9334 10.4691 33.7678 9.67071 34.3942 8.03008C35.0159 6.40157 34.1999 4.57735 32.5714 3.95555Z" fill="#B620FF"/>
</g>
<defs>
<clipPath id="clip0_3907_15297">
<rect width="40" height="40" fill="white"/>
</clipPath>
</defs>
</svg>
