<svg width="40" height="40" viewBox="0 0 40 40" fill="none" xmlns="http://www.w3.org/2000/svg">
<path d="M28.5156 0.694336V7.0316H34.7151L28.5156 0.694336Z" fill="#B620FF"/>
<path d="M15.2734 9.45703C15.9206 9.45703 16.4453 8.93236 16.4453 8.28516C16.4453 7.63795 15.9206 7.11328 15.2734 7.11328C14.6262 7.11328 14.1016 7.63795 14.1016 8.28516C14.1016 8.93236 14.6262 9.45703 15.2734 9.45703Z" fill="#B620FF"/>
<path d="M24.9609 35.2305H14.4512C13.804 35.2305 13.2793 34.7058 13.2793 34.0586C13.2793 33.4114 13.804 32.8867 14.4512 32.8867H21.5586V30.5469H14.4512C13.804 30.5469 13.2793 30.0222 13.2793 29.375C13.2793 28.7278 13.804 28.2031 14.4512 28.2031H21.5586V25.9375H14.4512C13.804 25.9375 13.2793 25.4128 13.2793 24.7656C13.2793 24.1184 13.804 23.5938 14.4512 23.5938H21.7602C32.5 23.5938 23.5 20.5 23.5 20.5C23.5 20.5 23.3151 26.1745 23.5 23.5611C23.6849 20.9478 22.3013 40 24.9609 40C27.6206 40 35.5469 40 35.5469 40V9.375H27.3438C26.6966 9.375 26.1719 8.85031 26.1719 8.20312V0H6.17188C5.52469 0 5 0.524687 5 1.17188V38.8281C5 39.4753 5.52469 40 6.17188 40H24.9609C23.4107 37.9396 24.9609 35.2305 24.9609 35.2305ZM20.2734 4.76953C22.212 4.76953 23.7891 6.34664 23.7891 8.28516C23.7891 10.2237 22.212 11.8008 20.2734 11.8008C18.3349 11.8008 16.7578 10.2237 16.7578 8.28516C16.7578 6.34664 18.3349 4.76953 20.2734 4.76953ZM20.2734 11.8379C23.5043 11.8379 26.1328 14.4664 26.1328 17.6973C26.1328 18.3445 25.6081 18.8691 24.9609 18.8691H15.5859C14.9388 18.8691 14.4141 18.3445 14.4141 17.6973C14.4141 14.4664 17.0426 11.8379 20.2734 11.8379ZM10.8863 35.2266C10.2413 35.2266 9.71836 34.7037 9.71836 34.0586C9.71836 33.4135 10.2413 32.8906 10.8863 32.8906C11.5314 32.8906 12.0543 33.4135 12.0543 34.0586C12.0543 34.7037 11.5313 35.2266 10.8863 35.2266ZM10.8863 30.543C10.2413 30.543 9.71836 30.0201 9.71836 29.375C9.71836 28.7299 10.2413 28.207 10.8863 28.207C11.5314 28.207 12.0543 28.7299 12.0543 29.375C12.0543 30.0201 11.5313 30.543 10.8863 30.543ZM10.8863 25.8555C10.2413 25.8555 9.71836 25.3326 9.71836 24.6875C9.71836 24.0424 10.2413 23.5195 10.8863 23.5195C11.5314 23.5195 12.0543 24.0424 12.0543 24.6875C12.0543 25.3326 11.5313 25.8555 10.8863 25.8555Z" fill="#B620FF"/>
</svg>
