<svg width="20" height="21" viewBox="0 0 20 21" fill="none" xmlns="http://www.w3.org/2000/svg">
<path d="M5.41623 8.00033H4.58289M8.74956 8.00033H7.91623M5.41623 5.50033H4.58289M8.74956 5.50033H7.91623M15.4162 13.0003H14.5829M15.4162 9.66699H14.5829M11.6662 7.16699V18.8337H14.9996C16.5712 18.8337 17.3562 18.8337 17.8446 18.3453C18.3329 17.857 18.3329 17.072 18.3329 15.5003V10.5003C18.3329 8.92866 18.3329 8.14366 17.8446 7.65533C17.3562 7.16699 16.5712 7.16699 14.9996 7.16699H11.6662ZM11.6662 7.16699C11.6662 4.81033 11.6662 3.63116 10.9337 2.89949C10.2021 2.16699 9.02289 2.16699 6.66623 2.16699C4.30956 2.16699 3.13039 2.16699 2.39873 2.89949C1.66623 3.63116 1.66623 4.81033 1.66623 7.16699V9.66699M5.09206 11.5462C5.24623 11.4045 5.32289 11.3337 5.41623 11.3337C5.50956 11.3337 5.58623 11.4045 5.74039 11.5462L6.33456 12.0937C6.40623 12.1595 6.44206 12.1928 6.48623 12.2087C6.53123 12.2253 6.57956 12.2237 6.67789 12.2195L7.47956 12.1878C7.68623 12.1795 7.78956 12.1762 7.86039 12.2353C7.93123 12.2945 7.94539 12.397 7.97289 12.602L8.08289 13.4237C8.09623 13.5187 8.10206 13.5653 8.12539 13.607C8.14873 13.647 8.18623 13.6762 8.26123 13.7353L8.90789 14.2437C9.06789 14.3703 9.14789 14.4328 9.16373 14.5228C9.17956 14.6128 9.12539 14.6995 9.01789 14.8728L8.58039 15.5787C8.53039 15.6595 8.50539 15.7003 8.49706 15.7453C8.48873 15.7903 8.49873 15.8378 8.51873 15.9312L8.69206 16.7462C8.73539 16.9462 8.75623 17.0462 8.71039 17.1262C8.66456 17.2062 8.56706 17.2378 8.37289 17.3012L7.60123 17.552C7.50956 17.582 7.46373 17.597 7.42706 17.627C7.39123 17.6578 7.36873 17.7012 7.32456 17.787L6.94789 18.5128C6.85206 18.6987 6.80373 18.7912 6.71623 18.8228C6.62873 18.8545 6.53289 18.8145 6.33956 18.7345L5.59956 18.4278C5.50873 18.3903 5.46373 18.3712 5.41623 18.3712C5.36873 18.3712 5.32373 18.3903 5.23289 18.4278L4.49289 18.7345C4.29956 18.8145 4.20373 18.8545 4.11623 18.8228C4.02873 18.7912 3.98039 18.6978 3.88456 18.5128L3.50789 17.787C3.46289 17.7012 3.44123 17.6578 3.40539 17.6278C3.36956 17.5978 3.32289 17.582 3.23123 17.5528L2.45956 17.3012C2.26539 17.2378 2.16789 17.2062 2.12206 17.1262C2.07623 17.0462 2.09706 16.947 2.14039 16.7462L2.31373 15.9312C2.33373 15.8378 2.34373 15.7912 2.33539 15.7462C2.31831 15.6859 2.29004 15.6293 2.25206 15.5795L1.81373 14.8728C1.70706 14.6995 1.65289 14.6128 1.66873 14.5228C1.68456 14.4328 1.76456 14.3703 1.92456 14.2445L2.57123 13.7362C2.64623 13.6762 2.68373 13.647 2.70706 13.6062C2.73039 13.5653 2.73623 13.5187 2.74873 13.4228L2.85956 12.602C2.88706 12.3978 2.90123 12.2945 2.97206 12.2353C3.04289 12.1762 3.14623 12.1795 3.35289 12.1878L4.15539 12.2195C4.25289 12.2237 4.30123 12.2253 4.34623 12.2087C4.39039 12.192 4.42623 12.1595 4.49789 12.0937L5.09206 11.5462Z" stroke="white" stroke-width="1.5" stroke-linecap="round" stroke-linejoin="round"/>
</svg>
