<svg width="40" height="40" viewBox="0 0 40 40" fill="none" xmlns="http://www.w3.org/2000/svg">
<g clip-path="url(#clip0_3907_15318)">
<path d="M9.45336 19.9997C9.45336 25.8154 14.1843 30.5463 20 30.5463C25.8157 30.5463 30.5467 25.8154 30.5467 19.9997C30.5467 14.184 25.8157 9.45304 20 9.45304C14.1843 9.45304 9.45336 14.1839 9.45336 19.9997ZM21.1719 12.9686V14.3679C21.8141 14.5979 22.395 14.9903 22.8117 15.5457C23.1997 16.0641 23.0956 16.7988 22.5783 17.1868C22.0611 17.5758 21.3275 17.4729 20.9373 16.9534C20.325 16.134 18.8259 16.6363 18.8282 17.656C18.8282 18.3025 19.3535 18.8278 20 18.8278C21.9386 18.8278 23.5156 20.4048 23.5156 22.3434C23.5156 23.8691 22.5329 25.1577 21.1719 25.6431V27.0308C21.1719 27.6785 20.6477 28.2026 20 28.2026C19.3523 28.2026 18.8282 27.6785 18.8282 27.0308V25.6315C18.1859 25.4015 17.605 25.0091 17.1883 24.4537C16.8003 23.9352 16.9045 23.2006 17.4217 22.8126C17.9424 22.4269 18.6748 22.5299 19.0628 23.046C19.2859 23.3447 19.6281 23.5152 20 23.5152C20.6466 23.5152 21.1719 22.9899 21.1719 22.3434C21.1719 21.6968 20.6466 21.1715 20 21.1715C18.0615 21.1715 16.4845 19.5945 16.4845 17.656C16.4845 16.1302 17.4671 14.8417 18.8282 14.3563V12.9686C18.8282 12.3209 19.3523 11.7967 20 11.7967C20.6477 11.7967 21.1719 12.3209 21.1719 12.9686ZM5.26033 12.6273C5.83094 12.9613 6.54225 12.7601 6.86475 12.213C9.0465 8.50892 12.7002 5.95374 16.8123 5.06071C16.4836 5.40829 16.3817 5.93062 16.6081 6.3835C16.8964 6.95856 17.5961 7.19778 18.1804 6.90763L22.8678 4.56393C23.2649 4.36479 23.5156 3.95972 23.5156 3.51567C23.5156 3.07162 23.2649 2.66655 22.8678 2.46741L18.1804 0.123711C17.6002 -0.162377 16.8988 0.0676185 16.6081 0.64784C16.3185 1.22689 16.5531 1.9307 17.1322 2.22023L17.6899 2.49921C12.3894 3.21154 7.60301 6.34139 4.84604 11.0229C4.51761 11.5813 4.703 12.2988 5.26033 12.6273ZM34.7397 27.3721C34.1789 27.0437 33.4637 27.2268 33.1353 27.7864C30.9535 31.4905 27.2998 34.0456 23.1877 34.9387C23.5164 34.5911 23.6184 34.0688 23.392 33.6159C23.1013 33.038 22.3975 32.8057 21.8196 33.0918L17.1322 35.4355C16.7351 35.6346 16.4845 36.0397 16.4845 36.4837C16.4845 36.9278 16.7351 37.3328 17.1322 37.532L21.8196 39.8757C22.0976 40.0145 22.4194 40.0373 22.7142 39.939C23.0091 39.8407 23.2528 39.6294 23.392 39.3515C23.6815 38.7725 23.4469 38.0687 22.8678 37.7792L22.3101 37.5002C27.6106 36.7878 32.397 33.6579 35.154 28.9765C35.4823 28.4181 35.2969 27.7005 34.7397 27.3721ZM12.2133 33.135C8.49049 30.9422 5.9286 27.2623 5.04846 23.1247C5.46532 23.5536 5.94219 23.6109 6.38382 23.3916C6.96287 23.1021 7.19747 22.3983 6.90795 21.8193L4.56425 17.1319C4.16598 16.3377 2.866 16.3377 2.46773 17.1319L0.124032 21.8193C-0.165493 22.3983 0.0691112 23.1021 0.648161 23.3916C1.22948 23.6812 1.92985 23.4454 2.22055 22.8675L2.49953 22.3098C3.21193 27.6103 6.34179 32.3967 11.0232 35.1537C11.5938 35.4877 12.3051 35.2865 12.6276 34.7394C12.956 34.1809 12.7706 33.4634 12.2133 33.135ZM39.3519 16.6077C38.7728 16.3194 38.0713 16.5528 37.7795 17.1319L37.5005 17.6896C36.7881 12.3891 33.6582 7.60269 28.9768 4.84572C28.4161 4.51729 27.7009 4.70041 27.3724 5.26001C27.044 5.81843 27.2294 6.536 27.7867 6.86443C31.4909 9.04633 34.046 12.7002 34.939 16.8126C34.5914 16.4837 34.0701 16.3821 33.6162 16.6077C33.0372 16.8973 32.8026 17.6011 33.0921 18.1801L35.4358 22.8675C35.6349 23.2646 36.04 23.5152 36.484 23.5152C36.9281 23.5152 37.3332 23.2646 37.5323 22.8675L39.876 18.1801C40.1655 17.6011 39.9309 16.8973 39.3519 16.6077Z" fill="#B620FF"/>
</g>
<defs>
<clipPath id="clip0_3907_15318">
<rect width="40" height="40" fill="white"/>
</clipPath>
</defs>
</svg>
