<svg width="40" height="40" viewBox="0 0 40 40" fill="none" xmlns="http://www.w3.org/2000/svg">
<g clip-path="url(#clip0_3907_15312)">
<path d="M40 19.3254C40 28.5118 33.2241 36.1452 24.4078 37.4912C24.4822 37.0835 24.5031 36.6612 24.453 36.2334L24.3314 35.194C27.4616 34.6607 30.2876 33.2244 32.5275 31.1589C32.3931 31.0471 32.2591 30.902 32.1271 30.7095C31.5322 29.8414 32.3101 28.9801 32.3101 28.2211C32.3101 27.4765 30.809 27.5377 30.754 27.0446C30.5644 25.3367 31.8021 25.3135 32.462 24.6536C33.1218 23.9937 31.8097 22.4935 30.9622 22.5903C30.109 22.6814 27.7072 22.1963 27.9267 20.3587C28.1941 18.1206 25.0752 18.318 24.6286 17.2734C23.9776 15.7507 25.0599 13.883 26.4715 13.4587C28.471 12.8577 30.4407 11.2265 30.2869 9.41073C30.1125 7.35419 29.1817 5.49948 27.6486 4.39772C26.0181 3.73654 24.2896 3.34904 22.5329 3.25086C20.9266 3.31439 19.5143 3.67138 19.5788 4.4068C19.7367 6.20903 24.8616 6.67713 24.0016 8.36184C23.5533 9.24007 20.1883 10.4796 20.8167 11.7867C21.2255 12.6367 22.2314 11.9082 21.8559 13.54C21.6831 14.2909 21.0247 15.7016 20.0122 15.7927C18.9769 15.8894 18.1147 13.1465 15.2965 13.0565C13.9642 13.0139 12.0873 15.1352 13.681 16.6402C14.6461 17.5516 16.4572 15.5448 16.9917 17.1124C17.3684 18.2171 16.941 20.5376 18.699 21.5074C19.3398 21.8609 20.3222 22.1691 21.2939 22.6628C19.8517 22.9573 18.0797 23.5069 15.9872 24.3129L14.2242 23.8477C14.9622 23.2333 16.1614 22.8009 15.8597 21.4584C15.4165 19.486 11.9918 20.2299 9.63085 17.869C8.90653 17.1448 7.36163 14.74 7.36797 11.8509C6.19111 14.0863 5.5213 16.6285 5.5213 19.3254C5.5213 20.1556 5.58464 20.9712 5.7064 21.7679C5.67862 21.7675 5.65117 21.7626 5.62346 21.7626C4.87993 21.7626 4.15072 21.9188 3.4749 22.2142C3.32289 21.2588 3.24633 20.2929 3.24594 19.3255C3.24594 9.19249 11.4899 0.948242 21.6229 0.948242C31.756 0.948111 40 9.19236 40 19.3254ZM26.215 24.6817L21.7267 26.7448L21.7963 25.7668L24.7039 24.4543C24.2892 24.4246 23.8595 24.4133 23.4305 24.4133C21.824 24.4133 19.1099 25.2265 16.1079 26.418L6.48 23.8785C6.03485 23.7611 5.57032 23.7363 5.11522 23.8058C4.66012 23.8753 4.22414 24.0375 3.83431 24.2824L3.36091 24.5798C2.89875 24.8701 2.89385 25.542 3.3517 25.8392L9.13921 29.5939C7.75666 30.301 6.44496 31.0191 5.28862 31.7049L2.31882 30.1326C2.07916 30.0057 1.81474 29.9325 1.54394 29.9182C1.27314 29.9038 1.00246 29.9486 0.750715 30.0494L0.469604 30.1621C0.0503882 30.3299 -0.125233 30.8284 0.0963359 31.222L1.73235 34.1286L1.73307 34.1284C1.11581 34.6594 0.764048 35.0998 0.764048 35.4046C0.764048 36.3167 1.88653 36.5447 2.87594 36.5447C4.64065 36.5447 27.9457 31.2087 27.9457 26.3744C27.9456 25.4171 27.2908 24.9382 26.215 24.6817ZM16.389 34.1202L21.5173 32.3137C21.7431 32.2341 21.9845 32.3846 22.0124 32.6226L22.462 36.4667C22.5167 36.935 22.4224 37.4087 22.1923 37.8204C21.9623 38.232 21.6083 38.5606 21.1807 38.7593L20.6997 38.9829C20.5534 39.0509 20.3891 39.0697 20.2313 39.0366C20.0735 39.0034 19.9306 38.9201 19.8241 38.7991L16.2327 34.7194C16.0578 34.5207 16.1393 34.2082 16.389 34.1202Z" fill="#B620FF"/>
</g>
<defs>
<clipPath id="clip0_3907_15312">
<rect width="40" height="40" fill="white"/>
</clipPath>
</defs>
</svg>
