<svg width="42" height="42" viewBox="0 0 42 42" fill="none" xmlns="http://www.w3.org/2000/svg">
<circle cx="21" cy="21" r="21" fill="#2ADFA6"/>
<path d="M18.5502 24.15L27.0252 15.675C27.2252 15.475 27.4585 15.375 27.7252 15.375C27.9918 15.375 28.2252 15.475 28.4252 15.675C28.6252 15.875 28.7252 16.1127 28.7252 16.388C28.7252 16.6633 28.6252 16.9007 28.4252 17.1L19.2502 26.3C19.0502 26.5 18.8168 26.6 18.5502 26.6C18.2835 26.6 18.0502 26.5 17.8502 26.3L13.5502 22C13.3502 21.8 13.2542 21.5627 13.2622 21.288C13.2702 21.0133 13.3745 20.7757 13.5752 20.575C13.7758 20.3743 14.0135 20.2743 14.2882 20.275C14.5628 20.2757 14.8002 20.3757 15.0002 20.575L18.5502 24.15Z" fill="white"/>
</svg>
