<svg width="15" height="18" viewBox="0 0 15 18" fill="none" xmlns="http://www.w3.org/2000/svg">
<path d="M14.3499 12.5236V5.47598C14.3499 5.37051 14.3219 5.26693 14.2687 5.17583C14.2156 5.08473 14.1392 5.00938 14.0474 4.95748L7.79369 1.42279C7.70429 1.37226 7.60333 1.3457 7.50063 1.3457C7.39793 1.3457 7.29697 1.37226 7.20757 1.42279L0.953892 4.95748C0.862072 5.00938 0.785681 5.08473 0.732528 5.17583C0.679375 5.26693 0.651367 5.37051 0.651367 5.47598V12.5236C0.651367 12.6291 0.679375 12.7327 0.732528 12.8238C0.785681 12.9149 0.862072 12.9902 0.953892 13.0421L7.20757 16.5768C7.29697 16.6273 7.39793 16.6539 7.50063 16.6539C7.60333 16.6539 7.70429 16.6273 7.79369 16.5768L14.0474 13.0421C14.1392 12.9902 14.2156 12.9149 14.2687 12.8238C14.3219 12.7327 14.3499 12.6291 14.3499 12.5236Z" stroke="#17181A" stroke-width="1.19118" stroke-linecap="round" stroke-linejoin="round"/>
<path d="M7.50063 11.6799C8.98083 11.6799 10.1808 10.48 10.1808 8.9998C10.1808 7.51959 8.98083 6.31965 7.50063 6.31965C6.02043 6.31965 4.82048 7.51959 4.82048 8.9998C4.82048 10.48 6.02043 11.6799 7.50063 11.6799Z" stroke="#17181A" stroke-width="1.19118" stroke-linecap="round" stroke-linejoin="round"/>
</svg>
