<svg width="17" height="16" viewBox="0 0 17 16" fill="none" xmlns="http://www.w3.org/2000/svg">
<path d="M4.875 11.75H6.125C6.19375 11.75 6.25 11.6938 6.25 11.625V4.375C6.25 4.30625 6.19375 4.25 6.125 4.25H4.875C4.80625 4.25 4.75 4.30625 4.75 4.375V11.625C4.75 11.6938 4.80625 11.75 4.875 11.75ZM7.875 7.375H9.125C9.19375 7.375 9.25 7.31875 9.25 7.25V4.375C9.25 4.30625 9.19375 4.25 9.125 4.25H7.875C7.80625 4.25 7.75 4.30625 7.75 4.375V7.25C7.75 7.31875 7.80625 7.375 7.875 7.375ZM10.875 8.5H12.125C12.1938 8.5 12.25 8.44375 12.25 8.375V4.375C12.25 4.30625 12.1938 4.25 12.125 4.25H10.875C10.8062 4.25 10.75 4.30625 10.75 4.375V8.375C10.75 8.44375 10.8062 8.5 10.875 8.5ZM14.25 1.75H2.75C2.47344 1.75 2.25 1.97344 2.25 2.25V13.75C2.25 14.0266 2.47344 14.25 2.75 14.25H14.25C14.5266 14.25 14.75 14.0266 14.75 13.75V2.25C14.75 1.97344 14.5266 1.75 14.25 1.75ZM13.625 13.125H3.375V2.875H13.625V13.125Z" fill="black"/>
</svg>
