<svg width="24" height="24" viewBox="0 0 24 24" fill="none" xmlns="http://www.w3.org/2000/svg">
<path d="M6.73897 21.9498C5.60156 21.9501 4.48961 21.613 3.54382 20.9812C2.59803 20.3494 1.86091 19.4512 1.42572 18.4004C0.99054 17.3495 0.876853 16.1932 1.09905 15.0777C1.32124 13.9622 1.86934 12.9377 2.67397 12.1338L11.159 3.64775C11.2997 3.50706 11.4905 3.42801 11.6895 3.42801C11.8884 3.42801 12.0793 3.50706 12.22 3.64775C12.3607 3.78845 12.4397 3.97928 12.4397 4.17825C12.4397 4.37723 12.3607 4.56806 12.22 4.70875L3.73397 13.1938C3.32314 13.5847 2.99471 14.0539 2.76804 14.5738C2.54136 15.0937 2.42103 15.6536 2.41412 16.2207C2.40721 16.7878 2.51387 17.3505 2.72782 17.8758C2.94176 18.401 3.25866 18.8781 3.65985 19.2789C4.06104 19.6798 4.53839 19.9963 5.0638 20.2098C5.5892 20.4233 6.15202 20.5295 6.7191 20.5221C7.28618 20.5147 7.84605 20.3939 8.36572 20.1668C8.88539 19.9397 9.35435 19.6109 9.74497 19.1998L20.705 8.23975C21.2072 7.72112 21.4854 7.02584 21.4797 6.3039C21.4739 5.58196 21.1845 4.89124 20.674 4.38074C20.1635 3.87023 19.4728 3.58087 18.7508 3.57507C18.0289 3.56928 17.3336 3.84751 16.815 4.34975L7.97697 13.1938C7.86088 13.3098 7.7688 13.4477 7.70597 13.5993C7.64314 13.751 7.61081 13.9136 7.61081 14.0778C7.61081 14.2419 7.64314 14.4045 7.70597 14.5562C7.7688 14.7078 7.86088 14.8457 7.97697 14.9618C8.09306 15.0778 8.23088 15.1699 8.38255 15.2328C8.53423 15.2956 8.6968 15.3279 8.86097 15.3279C9.02514 15.3279 9.18771 15.2956 9.33939 15.2328C9.49107 15.1699 9.62888 15.0778 9.74497 14.9618L15.4 9.30575C15.4691 9.23409 15.5519 9.17691 15.6433 9.13756C15.7348 9.09822 15.8332 9.07748 15.9328 9.07657C16.0324 9.07566 16.1312 9.09459 16.2234 9.13225C16.3155 9.16992 16.3993 9.22557 16.4698 9.29596C16.5402 9.36634 16.5959 9.45005 16.6337 9.54221C16.6714 9.63436 16.6905 9.73311 16.6897 9.8327C16.6888 9.93228 16.6682 10.0307 16.6289 10.1222C16.5897 10.2137 16.5326 10.2965 16.461 10.3658L10.805 16.0228C10.5496 16.2782 10.2465 16.4808 9.91279 16.6191C9.57913 16.7573 9.2215 16.8285 8.86032 16.8285C8.49915 16.8286 8.14151 16.7575 7.80781 16.6193C7.47411 16.4812 7.17089 16.2786 6.91547 16.0233C6.66005 15.7679 6.45743 15.4647 6.31917 15.1311C6.18091 14.7974 6.10973 14.4398 6.10968 14.0786C6.10959 13.3492 6.39926 12.6496 6.91497 12.1338L15.755 3.29975C16.5519 2.50264 17.6329 2.05478 18.7601 2.05469C19.8873 2.05459 20.9684 2.50228 21.7655 3.29925C22.5626 4.09623 23.0104 5.17721 23.0105 6.3044C23.0106 7.43159 22.5629 8.51265 21.766 9.30975L10.806 20.2658C10.2729 20.8011 9.639 21.2256 8.94095 21.5146C8.2429 21.8037 7.4945 21.9516 6.73897 21.9498Z" fill="#6B7280"/>
</svg>
