<svg width="30" height="31" viewBox="0 0 30 31" fill="none" xmlns="http://www.w3.org/2000/svg">
<g clip-path="url(#clip0_4088_10846)">
<path opacity="0.3" d="M14.428 25.5H2.99992C1.89537 25.5 1 24.6045 1 23.5V21.5H16.349L14.428 25.5Z" fill="url(#paint0_linear_4088_10846)"/>
<path d="M27.0019 9.50004V23.5H2.99992C1.89537 23.5 1 22.6045 1 21.5V9.50004L15.001 4.5L27.0019 9.50004Z" fill="#EBF5FC"/>
<path d="M4.53135 13.5H3.46887C3.34455 13.5 3.22532 13.4506 3.13742 13.3627C3.04951 13.2748 3.00012 13.1556 3.00012 13.0312V11.9688C3.00012 11.8444 3.04951 11.7252 3.13742 11.6373C3.22532 11.5494 3.34455 11.5 3.46887 11.5H4.53135C4.65567 11.5 4.7749 11.5494 4.86281 11.6373C4.95072 11.7252 5.0001 11.8444 5.0001 11.9688V13.0312C5.0001 13.1556 4.95072 13.2748 4.86281 13.3627C4.7749 13.4506 4.65567 13.5 4.53135 13.5ZM8.53137 13.5H7.46889C7.34457 13.5 7.22534 13.4506 7.13744 13.3627C7.04953 13.2748 7.00014 13.1556 7.00014 13.0312V11.9688C7.00014 11.8444 7.04953 11.7252 7.13744 11.6373C7.22534 11.5494 7.34457 11.5 7.46889 11.5H8.53137C8.65569 11.5 8.77492 11.5494 8.86283 11.6373C8.95074 11.7252 9.00012 11.8444 9.00012 11.9688V13.0312C9.00012 13.1556 8.95074 13.2748 8.86283 13.3627C8.77492 13.4506 8.65569 13.5 8.53137 13.5ZM12.5313 13.5H11.4689C11.3445 13.5 11.2253 13.4506 11.1374 13.3627C11.0495 13.2748 11.0001 13.1556 11.0001 13.0312V11.9688C11.0001 11.8444 11.0495 11.7252 11.1374 11.6373C11.2253 11.5494 11.3445 11.5 11.4689 11.5H12.5313C12.6557 11.5 12.7749 11.5494 12.8628 11.6373C12.9507 11.7252 13.0001 11.8444 13.0001 11.9688V13.0312C13.0001 13.1556 12.9507 13.2748 12.8628 13.3627C12.7749 13.4506 12.6557 13.5 12.5313 13.5ZM16.5314 13.5H15.4689C15.3446 13.5 15.2253 13.4506 15.1374 13.3627C15.0495 13.2748 15.0001 13.1556 15.0001 13.0312V11.9688C15.0001 11.8444 15.0495 11.7252 15.1374 11.6373C15.2253 11.5494 15.3446 11.5 15.4689 11.5H16.5314C16.6557 11.5 16.7749 11.5494 16.8628 11.6373C16.9507 11.7252 17.0001 11.8444 17.0001 11.9688V13.0312C17.0001 13.1556 16.9507 13.2748 16.8628 13.3627C16.7749 13.4506 16.6557 13.5 16.5314 13.5ZM20.5307 13.5H19.4682C19.3439 13.5 19.2246 13.4506 19.1367 13.3627C19.0488 13.2748 18.9994 13.1556 18.9994 13.0312V11.9688C18.9994 11.8444 19.0488 11.7252 19.1367 11.6373C19.2246 11.5494 19.3439 11.5 19.4682 11.5H20.5307C20.655 11.5 20.7742 11.5494 20.8621 11.6373C20.95 11.7252 20.9994 11.8444 20.9994 11.9688V13.0312C20.9994 13.1556 20.95 13.2748 20.8621 13.3627C20.7742 13.4506 20.655 13.5 20.5307 13.5ZM24.5307 13.5H23.4682C23.3439 13.5 23.2247 13.4506 23.1368 13.3627C23.0488 13.2748 22.9995 13.1556 22.9995 13.0312V11.9688C22.9995 11.8444 23.0488 11.7252 23.1368 11.6373C23.2247 11.5494 23.3439 11.5 23.4682 11.5H24.5307C24.655 11.5 24.7742 11.5494 24.8621 11.6373C24.9501 11.7252 24.9994 11.8444 24.9994 11.9688V13.0312C24.9994 13.1556 24.9501 13.2748 24.8621 13.3627C24.7742 13.4506 24.655 13.5 24.5307 13.5ZM4.53135 17.4999H3.46887C3.34455 17.4999 3.22532 17.4506 3.13742 17.3626C3.04951 17.2747 3.00012 17.1555 3.00012 17.0312V15.9687C3.00012 15.8444 3.04951 15.7252 3.13742 15.6373C3.22532 15.5493 3.34455 15.5 3.46887 15.5H4.53135C4.65567 15.5 4.7749 15.5493 4.86281 15.6373C4.95072 15.7252 5.0001 15.8444 5.0001 15.9687V17.0312C5.0001 17.1555 4.95072 17.2747 4.86281 17.3626C4.7749 17.4506 4.65567 17.4999 4.53135 17.4999ZM8.53137 17.4999H7.46889C7.34457 17.4999 7.22534 17.4506 7.13744 17.3626C7.04953 17.2747 7.00014 17.1555 7.00014 17.0312V15.9687C7.00014 15.8444 7.04953 15.7252 7.13744 15.6373C7.22534 15.5493 7.34457 15.5 7.46889 15.5H8.53137C8.65569 15.5 8.77492 15.5493 8.86283 15.6373C8.95074 15.7252 9.00012 15.8444 9.00012 15.9687V17.0312C9.00012 17.1555 8.95074 17.2747 8.86283 17.3626C8.77492 17.4506 8.65569 17.4999 8.53137 17.4999ZM12.5313 17.4999H11.4689C11.3445 17.4999 11.2253 17.4506 11.1374 17.3626C11.0495 17.2747 11.0001 17.1555 11.0001 17.0312V15.9687C11.0001 15.8444 11.0495 15.7252 11.1374 15.6373C11.2253 15.5493 11.3445 15.5 11.4689 15.5H12.5313C12.6557 15.5 12.7749 15.5493 12.8628 15.6373C12.9507 15.7252 13.0001 15.8444 13.0001 15.9687V17.0312C13.0001 17.1555 12.9507 17.2747 12.8628 17.3626C12.7749 17.4506 12.6557 17.4999 12.5313 17.4999ZM17.0001 17.4999V15.9999C17.0001 15.9343 16.9872 15.8693 16.962 15.8086C16.9369 15.7479 16.9001 15.6928 16.8537 15.6464C16.8072 15.6 16.7521 15.5631 16.6915 15.538C16.6308 15.5129 16.5658 15.5 16.5001 15.5H15.5001C15.3675 15.5 15.2403 15.5526 15.1466 15.6464C15.0528 15.7402 15.0001 15.8673 15.0001 15.9999V17C15.0001 17.1326 15.0528 17.2597 15.1466 17.3535C15.2403 17.4473 15.3675 17.4999 15.5001 17.4999H17.0001ZM4.53135 21.5H3.46887C3.34455 21.5 3.22532 21.4506 3.13742 21.3627C3.04951 21.2748 3.00012 21.1555 3.00012 21.0312V19.9687C3.00012 19.8444 3.04951 19.7252 3.13742 19.6373C3.22532 19.5494 3.34455 19.5 3.46887 19.5H4.53135C4.65567 19.5 4.7749 19.5494 4.86281 19.6373C4.95072 19.7252 5.0001 19.8444 5.0001 19.9687V21.0312C5.0001 21.1555 4.95072 21.2748 4.86281 21.3627C4.7749 21.4506 4.65567 21.5 4.53135 21.5ZM8.53137 21.5H7.46889C7.34457 21.5 7.22534 21.4506 7.13744 21.3627C7.04953 21.2748 7.00014 21.1555 7.00014 21.0312V19.9687C7.00014 19.8444 7.04953 19.7252 7.13744 19.6373C7.22534 19.5494 7.34457 19.5 7.46889 19.5H8.53137C8.65569 19.5 8.77492 19.5494 8.86283 19.6373C8.95074 19.7252 9.00012 19.8444 9.00012 19.9687V21.0312C9.00012 21.1555 8.95074 21.2748 8.86283 21.3627C8.77492 21.4506 8.65569 21.5 8.53137 21.5ZM12.5313 21.5H11.4689C11.3445 21.5 11.2253 21.4506 11.1374 21.3627C11.0495 21.2748 11.0001 21.1555 11.0001 21.0312V19.9687C11.0001 19.8444 11.0495 19.7252 11.1374 19.6373C11.2253 19.5494 11.3445 19.5 11.4689 19.5H12.5313C12.6557 19.5 12.7749 19.5494 12.8628 19.6373C12.9507 19.7252 13.0001 19.8444 13.0001 19.9687V21.0312C13.0001 21.1555 12.9507 21.2748 12.8628 21.3627C12.7749 21.4506 12.6557 21.5 12.5313 21.5Z" fill="url(#paint1_linear_4088_10846)"/>
<path d="M24.5162 11.5H23.4821C23.4195 11.5 23.3599 11.5123 23.305 11.5339C23.3951 11.5694 23.4725 11.6312 23.527 11.7113C23.5816 11.7914 23.6107 11.886 23.6108 11.9829V13.0171C23.6108 13.2212 23.4839 13.3953 23.305 13.466C23.3599 13.4877 23.4195 13.5 23.4821 13.5H24.5162C24.5797 13.5 24.6425 13.4875 24.7011 13.4633C24.7597 13.439 24.8129 13.4034 24.8577 13.3586C24.9026 13.3137 24.9382 13.2605 24.9624 13.2019C24.9867 13.1433 24.9992 13.0805 24.9992 13.0171V11.9829C24.9992 11.8549 24.9483 11.732 24.8577 11.6415C24.7672 11.5509 24.6443 11.5 24.5162 11.5ZM20.5162 11.5H19.482C19.4195 11.5 19.3599 11.5123 19.305 11.5339C19.3951 11.5694 19.4725 11.6312 19.527 11.7113C19.5815 11.7914 19.6107 11.886 19.6108 11.9829V13.0171C19.6108 13.2212 19.4839 13.3953 19.305 13.466C19.3599 13.4877 19.4195 13.5 19.482 13.5H20.5162C20.5796 13.5 20.6424 13.4875 20.701 13.4632C20.7596 13.439 20.8128 13.4034 20.8577 13.3586C20.9025 13.3137 20.9381 13.2605 20.9624 13.2019C20.9866 13.1433 20.9991 13.0805 20.9991 13.0171V11.9829C20.9991 11.9195 20.9866 11.8567 20.9624 11.7981C20.9381 11.7395 20.9025 11.6863 20.8577 11.6414C20.8129 11.5966 20.7596 11.561 20.701 11.5367C20.6424 11.5125 20.5796 11.5 20.5162 11.5ZM16.5169 11.5H15.4827C15.4202 11.5 15.3606 11.5123 15.3057 11.5339C15.4847 11.6046 15.6115 11.7787 15.6115 11.9829V13.0171C15.6115 13.2212 15.4847 13.3953 15.3057 13.466C15.3606 13.4877 15.4202 13.5 15.4827 13.5H16.5169C16.5803 13.5 16.6431 13.4875 16.7017 13.4633C16.7603 13.439 16.8136 13.4034 16.8584 13.3586C16.9033 13.3137 16.9388 13.2605 16.9631 13.2019C16.9874 13.1433 16.9999 13.0805 16.9998 13.0171V11.9829C16.9998 11.8549 16.9489 11.732 16.8584 11.6415C16.7678 11.5509 16.645 11.5 16.5169 11.5ZM12.5169 11.5H11.4827C11.4201 11.5 11.3605 11.5123 11.3056 11.5339C11.4846 11.6046 11.6115 11.7787 11.6115 11.9829V13.0171C11.6115 13.2212 11.4846 13.3953 11.3056 13.466C11.3605 13.4877 11.4201 13.5 11.4827 13.5H12.5169C12.5803 13.5 12.6431 13.4875 12.7017 13.4633C12.7603 13.439 12.8135 13.4034 12.8584 13.3586C12.9032 13.3137 12.9388 13.2605 12.9631 13.2019C12.9873 13.1433 12.9998 13.0805 12.9998 13.0171V11.9829C12.9998 11.8549 12.9489 11.732 12.8584 11.6415C12.7678 11.5509 12.645 11.5 12.5169 11.5ZM8.51687 11.5H7.48269C7.42012 11.5 7.36053 11.5123 7.30563 11.5339C7.39575 11.5694 7.47311 11.6312 7.52765 11.7113C7.58219 11.7914 7.61138 11.886 7.61143 11.9829V13.0171C7.61143 13.2212 7.48457 13.3953 7.30563 13.466C7.36053 13.4877 7.42012 13.5 7.48269 13.5H8.51687C8.58029 13.5 8.64309 13.4875 8.70169 13.4633C8.76028 13.439 8.81352 13.4034 8.85837 13.3586C8.90322 13.3137 8.93879 13.2605 8.96306 13.2019C8.98733 13.1433 8.99981 13.0805 8.9998 13.0171V11.9829C8.99982 11.9195 8.98734 11.8567 8.96307 11.7981C8.93881 11.7395 8.90324 11.6863 8.85839 11.6414C8.81354 11.5966 8.7603 11.561 8.7017 11.5367C8.6431 11.5125 8.5803 11.5 8.51687 11.5ZM4.51691 11.5H3.48273C3.42016 11.5 3.36057 11.5123 3.30566 11.5339C3.48467 11.6046 3.61152 11.7787 3.61152 11.9829V13.0171C3.61152 13.2212 3.48467 13.3953 3.30566 13.466C3.36057 13.4877 3.42016 13.5 3.48273 13.5H4.51691C4.58033 13.5 4.64313 13.4875 4.70173 13.4633C4.76032 13.439 4.81356 13.4034 4.85841 13.3586C4.90326 13.3137 4.93883 13.2605 4.9631 13.2019C4.98736 13.1433 4.99985 13.0805 4.99984 13.0171V11.9829C4.99983 11.8549 4.94894 11.732 4.85838 11.6415C4.76782 11.5509 4.64499 11.5 4.51691 11.5ZM4.51691 15.5H3.48273C3.42016 15.5 3.36057 15.5123 3.30566 15.5339C3.48467 15.6046 3.61152 15.7787 3.61152 15.9829V17.0171C3.61152 17.2213 3.48467 17.3954 3.30566 17.4661C3.36057 17.4878 3.42016 17.5001 3.48273 17.5001H4.51691C4.58033 17.5001 4.64313 17.4876 4.70173 17.4633C4.76032 17.4391 4.81356 17.4035 4.85841 17.3587C4.90326 17.3138 4.93883 17.2606 4.9631 17.202C4.98736 17.1434 4.99985 17.0806 4.99984 17.0172V15.9829C4.99983 15.8549 4.94894 15.732 4.85838 15.6415C4.76782 15.5509 4.64499 15.5 4.51691 15.5ZM4.51691 19.5H3.48273C3.42016 19.5 3.36057 19.5123 3.30566 19.534C3.48467 19.6046 3.61152 19.7788 3.61152 19.9829V21.0171C3.61152 21.2213 3.48467 21.3954 3.30566 21.4661C3.36057 21.4878 3.42016 21.5001 3.48273 21.5001H4.51691C4.58033 21.5001 4.64313 21.4876 4.70173 21.4634C4.76032 21.4391 4.81356 21.4035 4.85841 21.3587C4.90326 21.3138 4.93883 21.2606 4.9631 21.202C4.98736 21.1434 4.99985 21.0806 4.99984 21.0172V19.983C4.99983 19.8549 4.94894 19.7321 4.85838 19.6415C4.76782 19.5509 4.64499 19.5001 4.51691 19.5ZM8.51687 15.5H7.48269C7.42012 15.5 7.36053 15.5123 7.30563 15.5339C7.39575 15.5695 7.47311 15.6313 7.52765 15.7113C7.58219 15.7914 7.61138 15.886 7.61143 15.9829V17.0171C7.61143 17.2213 7.48457 17.3954 7.30563 17.4661C7.36053 17.4878 7.42012 17.5001 7.48269 17.5001H8.51687C8.58029 17.5001 8.64309 17.4876 8.70169 17.4633C8.76028 17.4391 8.81352 17.4035 8.85837 17.3587C8.90322 17.3138 8.93879 17.2606 8.96306 17.202C8.98733 17.1434 8.99981 17.0806 8.9998 17.0172V15.9829C8.99982 15.9195 8.98734 15.8567 8.96307 15.7981C8.93881 15.7395 8.90324 15.6863 8.85839 15.6414C8.81354 15.5966 8.7603 15.561 8.7017 15.5367C8.6431 15.5125 8.5803 15.5 8.51687 15.5ZM8.51687 19.5H7.48269C7.42012 19.5 7.36053 19.5123 7.30563 19.534C7.39575 19.5695 7.47311 19.6313 7.52765 19.7114C7.58219 19.7914 7.61138 19.886 7.61143 19.9829V21.0171C7.61143 21.2213 7.48457 21.3954 7.30563 21.4661C7.36053 21.4878 7.42012 21.5001 7.48269 21.5001H8.51687C8.58029 21.5001 8.64309 21.4876 8.70169 21.4634C8.76028 21.4391 8.81352 21.4035 8.85837 21.3587C8.90322 21.3138 8.93879 21.2606 8.96306 21.202C8.98733 21.1434 8.99981 21.0806 8.9998 21.0172V19.983C8.99982 19.9195 8.98734 19.8567 8.96307 19.7981C8.93881 19.7395 8.90324 19.6863 8.85839 19.6415C8.81354 19.5966 8.7603 19.561 8.7017 19.5368C8.6431 19.5125 8.5803 19.5 8.51687 19.5ZM12.5169 15.5H11.4827C11.4201 15.5 11.3605 15.5123 11.3056 15.5339C11.4846 15.6046 11.6115 15.7787 11.6115 15.9829V17.0171C11.6115 17.2213 11.4846 17.3954 11.3056 17.4661C11.3605 17.4878 11.4201 17.5001 11.4827 17.5001H12.5169C12.5803 17.5001 12.6431 17.4876 12.7017 17.4633C12.7603 17.4391 12.8135 17.4035 12.8584 17.3587C12.9032 17.3138 12.9388 17.2606 12.9631 17.202C12.9873 17.1434 12.9998 17.0806 12.9998 17.0172V15.9829C12.9998 15.8549 12.9489 15.732 12.8584 15.6415C12.7678 15.5509 12.645 15.5 12.5169 15.5ZM16.9998 17.5V15.9829C16.9998 15.9195 16.9873 15.8567 16.963 15.7981C16.9388 15.7395 16.9032 15.6863 16.8584 15.6414C16.8135 15.5966 16.7603 15.561 16.7017 15.5367C16.6431 15.5125 16.5803 15.5 16.5169 15.5H15.4827C15.4201 15.5 15.3605 15.5123 15.3056 15.5339C15.4846 15.6046 15.6115 15.7787 15.6115 15.9829V17.0171C15.6115 17.2213 15.4846 17.3954 15.3056 17.4661C15.3605 17.4878 15.4201 17.5001 15.4827 17.5001L16.9998 17.5ZM12.5169 19.5H11.4827C11.4201 19.5 11.3605 19.5123 11.3056 19.534C11.4846 19.6046 11.6115 19.7788 11.6115 19.9829V21.0171C11.6115 21.2213 11.4846 21.3954 11.3056 21.4661C11.3605 21.4878 11.4201 21.5001 11.4827 21.5001H12.5169C12.5803 21.5001 12.6431 21.4876 12.7017 21.4634C12.7603 21.4391 12.8135 21.4035 12.8584 21.3587C12.9032 21.3138 12.9388 21.2606 12.9631 21.202C12.9873 21.1434 12.9998 21.0806 12.9998 21.0172V19.983C12.9998 19.9195 12.9874 19.8567 12.9631 19.7981C12.9388 19.7395 12.9033 19.6863 12.8584 19.6415C12.8136 19.5966 12.7603 19.561 12.7017 19.5368C12.6431 19.5125 12.5803 19.5 12.5169 19.5Z" fill="#C4E7FF"/>
<path opacity="0.3" d="M25.6123 8.92188V23.5007H27.0016V9.50072L25.6123 8.92188Z" fill="url(#paint2_linear_4088_10846)"/>
<path d="M27.0019 9.49996V4.49992C27.0019 3.39537 26.1065 2.5 25.002 2.5H2.99992C1.89537 2.5 1 3.39537 1 4.49992V9.49996H27.0019Z" fill="url(#paint3_linear_4088_10846)"/>
<path d="M7.30135 4.95227H5.99957C5.87951 4.95227 5.76436 4.90457 5.67947 4.81967C5.59457 4.73478 5.54688 4.61963 5.54688 4.49957C5.54688 4.37951 5.59457 4.26436 5.67947 4.17947C5.76436 4.09457 5.87951 4.04688 5.99957 4.04688H7.30135C7.42141 4.04688 7.53656 4.09457 7.62145 4.17947C7.70635 4.26436 7.75404 4.37951 7.75404 4.49957C7.75404 4.61963 7.70635 4.73478 7.62145 4.81967C7.53656 4.90457 7.42141 4.95227 7.30135 4.95227ZM10.4995 4.95227H9.19773C9.07767 4.95227 8.96253 4.90457 8.87763 4.81967C8.79273 4.73478 8.74504 4.61963 8.74504 4.49957C8.74504 4.37951 8.79273 4.26436 8.87763 4.17947C8.96253 4.09457 9.07767 4.04688 9.19773 4.04688H10.4995C10.7496 4.04688 10.9522 4.24955 10.9522 4.49957C10.9522 4.74959 10.7496 4.95227 10.4995 4.95227ZM18.802 4.95227H17.5002C17.3801 4.95227 17.265 4.90457 17.1801 4.81967C17.0952 4.73478 17.0475 4.61963 17.0475 4.49957C17.0475 4.37951 17.0952 4.26436 17.1801 4.17947C17.265 4.09457 17.3801 4.04688 17.5002 4.04688H18.802C19.0521 4.04688 19.2547 4.24955 19.2547 4.49957C19.2547 4.74959 19.0521 4.95227 18.802 4.95227ZM22.0002 4.95227H20.6984C20.5783 4.95227 20.4632 4.90457 20.3783 4.81967C20.2934 4.73478 20.2457 4.61963 20.2457 4.49957C20.2457 4.37951 20.2934 4.26436 20.3783 4.17947C20.4632 4.09457 20.5783 4.04688 20.6984 4.04688H22.0002C22.1203 4.04688 22.2354 4.09457 22.3203 4.17947C22.4052 4.26436 22.4529 4.37951 22.4529 4.49957C22.4529 4.61963 22.4052 4.73478 22.3203 4.81967C22.2354 4.90457 22.1203 4.95227 22.0002 4.95227Z" fill="white"/>
<path d="M9.49996 4.25C9.49996 4.94035 8.94033 5.49998 8.24998 5.49998C7.55963 5.49998 7 4.94035 7 4.25V1.74998C6.99994 1.05963 7.55957 0.5 8.24992 0.5C8.94027 0.5 9.4999 1.05963 9.4999 1.74998V4.25H9.49996ZM21.0006 4.25C21.0006 4.94035 20.441 5.49998 19.7506 5.49998C19.0603 5.49998 18.5006 4.94035 18.5006 4.25V1.74998C18.5006 1.05963 19.0602 0.5 19.7506 0.5C20.4409 0.5 21.0006 1.05963 21.0006 1.74998L21.0006 4.25Z" fill="#EBF5FC"/>
<path d="M19.7498 0.5C19.4932 0.5 19.2548 0.577578 19.0563 0.710234C19.3918 0.934414 19.6129 1.31627 19.6129 1.75004V4.25C19.6129 4.68371 19.3918 5.06563 19.0563 5.2898C19.2615 5.42716 19.5029 5.50034 19.7498 5.50004C20.4402 5.50004 20.9998 4.94041 20.9998 4.25006V1.74998C20.9999 1.05963 20.4403 0.5 19.7498 0.5ZM8.24918 0.5C7.99254 0.5 7.75418 0.577578 7.55566 0.710234C7.89111 0.934414 8.11219 1.31627 8.11219 1.75004V4.25C8.11219 4.68371 7.89111 5.06563 7.55566 5.2898C7.76085 5.42716 8.00227 5.50034 8.24918 5.50004C8.93953 5.50004 9.49916 4.94041 9.49916 4.25006V1.74998C9.49922 1.05963 8.93959 0.5 8.24918 0.5Z" fill="#D3DCFB"/>
<path d="M25.0012 2.5H23.6123C24.7169 2.5 25.6122 3.39537 25.6122 4.49992V9.50002H27.001V4.49998C27.0011 3.39543 26.1056 2.5 25.0012 2.5Z" fill="url(#paint4_linear_4088_10846)"/>
<path d="M0.882812 7.11719H25.5887V7.99954H0.882812V7.11719Z" fill="white" fill-opacity="0.1"/>
<path d="M21.501 30.5C25.6431 30.5 29.001 27.1421 29.001 23C29.001 18.8579 25.6431 15.5 21.501 15.5C17.3588 15.5 14.001 18.8579 14.001 23C14.001 27.1421 17.3588 30.5 21.501 30.5Z" fill="url(#paint5_linear_4088_10846)"/>
<path d="M21.501 28.5C24.5386 28.5 27.001 26.0376 27.001 23C27.001 19.9624 24.5386 17.5 21.501 17.5C18.4634 17.5 16.001 19.9624 16.001 23C16.001 26.0376 18.4634 28.5 21.501 28.5Z" fill="#EBF5FC"/>
<path d="M21.5005 22.4523C21.4411 22.4523 21.3822 22.4406 21.3273 22.4178C21.2724 22.3951 21.2225 22.3617 21.1804 22.3197C21.1384 22.2777 21.105 22.2278 21.0823 22.1728C21.0595 22.1179 21.0478 22.059 21.0479 21.9996V19.4996C21.0479 19.3795 21.0955 19.2644 21.1804 19.1795C21.2653 19.0946 21.3805 19.0469 21.5005 19.0469C21.6206 19.0469 21.7358 19.0946 21.8207 19.1795C21.9055 19.2644 21.9532 19.3795 21.9532 19.4996V21.9996C21.9532 22.1197 21.9055 22.2348 21.8207 22.3197C21.7358 22.4046 21.6206 22.4523 21.5005 22.4523ZM24.0006 23.4523H22.5005C22.3804 23.4523 22.2653 23.4046 22.1804 23.3197C22.0955 23.2348 22.0478 23.1197 22.0478 22.9996C22.0478 22.8795 22.0955 22.7644 22.1804 22.6795C22.2653 22.5946 22.3804 22.5469 22.5005 22.5469H24.0006C24.1206 22.5469 24.2358 22.5946 24.3207 22.6795C24.4056 22.7644 24.4533 22.8795 24.4533 22.9996C24.4533 23.1197 24.4056 23.2348 24.3207 23.3197C24.2358 23.4046 24.1206 23.4523 24.0006 23.4523Z" fill="#3C58A0"/>
<path d="M21.5009 15.5C21.2668 15.5 21.0353 15.5113 20.8067 15.5323C24.6233 15.8826 27.6125 19.092 27.6125 23C27.6125 26.908 24.6233 30.1174 20.8066 30.4677C21.0353 30.4887 21.2667 30.5 21.5008 30.5C25.6429 30.5 29.0008 27.1421 29.0008 23C29.0008 18.8579 25.643 15.5 21.5009 15.5Z" fill="#1886EA"/>
<path d="M21.5005 17.5C21.2655 17.5 21.034 17.5148 20.8068 17.5434C23.5168 17.8845 25.6131 20.1974 25.6131 23C25.6131 25.8026 23.5168 28.1155 20.8068 28.4566C21.034 28.4852 21.2655 28.5 21.5005 28.5C24.538 28.5 27.0005 26.0376 27.0005 23C27.0005 19.9625 24.538 17.5 21.5005 17.5Z" fill="#D3DCFB"/>
<path d="M21.5 24C22.0523 24 22.5 23.5523 22.5 23C22.5 22.4477 22.0523 22 21.5 22C20.9477 22 20.5 22.4477 20.5 23C20.5 23.5523 20.9477 24 21.5 24Z" fill="#FFDD40"/>
</g>
<defs>
<linearGradient id="paint0_linear_4088_10846" x1="1" y1="23.5" x2="16.349" y2="23.5" gradientUnits="userSpaceOnUse">
<stop stop-color="#A298FF"/>
<stop offset="1" stop-color="#1700E8"/>
</linearGradient>
<linearGradient id="paint1_linear_4088_10846" x1="3.00012" y1="16.5" x2="24.9994" y2="16.5" gradientUnits="userSpaceOnUse">
<stop stop-color="#A298FF"/>
<stop offset="1" stop-color="#1700E8"/>
</linearGradient>
<linearGradient id="paint2_linear_4088_10846" x1="25.6123" y1="16.2113" x2="27.0016" y2="16.2113" gradientUnits="userSpaceOnUse">
<stop stop-color="#A298FF"/>
<stop offset="1" stop-color="#1700E8"/>
</linearGradient>
<linearGradient id="paint3_linear_4088_10846" x1="1" y1="5.99998" x2="27.0019" y2="5.99998" gradientUnits="userSpaceOnUse">
<stop stop-color="#A298FF"/>
<stop offset="1" stop-color="#1700E8"/>
</linearGradient>
<linearGradient id="paint4_linear_4088_10846" x1="23.6123" y1="6.00001" x2="27.001" y2="6.00001" gradientUnits="userSpaceOnUse">
<stop stop-color="#A298FF"/>
<stop offset="1" stop-color="#1700E8"/>
</linearGradient>
<linearGradient id="paint5_linear_4088_10846" x1="14.001" y1="23" x2="29.001" y2="23" gradientUnits="userSpaceOnUse">
<stop stop-color="#A298FF"/>
<stop offset="1" stop-color="#1700E8"/>
</linearGradient>
<clipPath id="clip0_4088_10846">
<rect width="30" height="30" fill="white" transform="translate(0 0.5)"/>
</clipPath>
</defs>
</svg>
