<svg width="24" height="24" viewBox="0 0 24 24" fill="none" xmlns="http://www.w3.org/2000/svg">
<g clip-path="url(#clip0_4091_11470)">
<path d="M17.7238 5.52653C17.9348 5.73751 18.0533 6.02366 18.0533 6.32202C18.0533 6.62039 17.9348 6.90654 17.7238 7.11752L13.216 11.6253L17.7238 16.1331C17.9348 16.3441 18.0533 16.6303 18.0533 16.9286C18.0533 17.227 17.9348 17.5131 17.7238 17.7241C17.5128 17.9351 17.2267 18.0536 16.9283 18.0536C16.6299 18.0536 16.3438 17.9351 16.1328 17.7241L11.625 13.2163L7.11719 17.7241C6.90622 17.9351 6.62007 18.0536 6.3217 18.0536C6.02333 18.0536 5.73718 17.9351 5.5262 17.7241C5.31523 17.5131 5.1967 17.227 5.1967 16.9286C5.1967 16.6303 5.31523 16.3441 5.5262 16.1331L10.034 11.6253L5.5262 7.11752C5.31523 6.90654 5.1967 6.62039 5.1967 6.32202C5.1967 6.02366 5.31523 5.73751 5.5262 5.52653C5.73718 5.31555 6.02333 5.19703 6.3217 5.19703C6.62007 5.19703 6.90622 5.31555 7.11719 5.52653L11.625 10.0343L16.1328 5.52653C16.3438 5.31555 16.6299 5.19703 16.9283 5.19703C17.2267 5.19703 17.5128 5.31555 17.7238 5.52653Z" fill="#6F767E"/>
</g>
<defs>
<clipPath id="clip0_4091_11470">
<rect width="24" height="24" fill="white"/>
</clipPath>
</defs>
</svg>
