<svg width="36" height="36" viewBox="0 0 36 36" fill="none" xmlns="http://www.w3.org/2000/svg">
<circle cx="18" cy="18" r="18" fill="url(#paint0_linear_4517_54665)"/>
<path d="M16 13L15.484 14.394C14.808 16.222 14.47 17.136 13.803 17.803C13.136 18.47 12.222 18.808 10.394 19.484L9 20L10.394 20.516C12.222 21.192 13.136 21.531 13.803 22.197C14.47 22.863 14.808 23.778 15.484 25.606L16 27L16.516 25.606C17.192 23.778 17.531 22.864 18.197 22.197C18.863 21.53 19.778 21.192 21.606 20.516L23 20L21.606 19.484C19.778 18.808 18.864 18.47 18.197 17.803C17.53 17.136 17.192 16.222 16.516 14.394L16 13ZM24 9L23.779 9.597C23.489 10.381 23.344 10.773 23.059 11.058C22.773 11.344 22.381 11.489 21.597 11.778L21 12L21.598 12.221C22.381 12.511 22.773 12.656 23.058 12.941C23.344 13.227 23.489 13.619 23.778 14.403L24 15L24.221 14.403C24.511 13.619 24.656 13.227 24.941 12.942C25.227 12.656 25.619 12.511 26.403 12.222L27 12L26.402 11.779C25.619 11.489 25.227 11.344 24.942 11.059C24.656 10.773 24.511 10.381 24.222 9.597L24 9Z" stroke="white" stroke-width="1.5" stroke-linecap="round" stroke-linejoin="round"/>
<defs>
<linearGradient id="paint0_linear_4517_54665" x1="0" y1="18" x2="36" y2="18" gradientUnits="userSpaceOnUse">
<stop stop-color="#A298FF"/>
<stop offset="1" stop-color="#1700E8"/>
</linearGradient>
</defs>
</svg>
