<svg width="30" height="31" viewBox="0 0 30 31" fill="none" xmlns="http://www.w3.org/2000/svg">
<g clip-path="url(#clip0_4256_9310)">
<path d="M9.49996 4.25C9.49996 4.94035 8.94033 5.49998 8.24998 5.49998C7.55963 5.49998 7 4.94035 7 4.25V1.74998C6.99994 1.05963 7.55957 0.5 8.24992 0.5C8.94027 0.5 9.4999 1.05963 9.4999 1.74998V4.25H9.49996ZM21.0006 4.25C21.0006 4.94035 20.441 5.49998 19.7506 5.49998C19.0603 5.49998 18.5006 4.94035 18.5006 4.25V1.74998C18.5006 1.05963 19.0602 0.5 19.7506 0.5C20.4409 0.5 21.0006 1.05963 21.0006 1.74998L21.0006 4.25Z" fill="#EBF5FC"/>
<path d="M0.882812 7.11719H25.5887V7.99954H0.882812V7.11719Z" fill="white" fill-opacity="0.1"/>
<path d="M16 28C23.1797 28 29 22.1797 29 15C29 7.8203 23.1797 2 16 2C8.8203 2 3 7.8203 3 15C3 22.1797 8.8203 28 16 28Z" fill="url(#paint0_linear_4256_9310)"/>
<path d="M15 24C20.5228 24 25 19.9706 25 15C25 10.0294 20.5228 6 15 6C9.47715 6 5 10.0294 5 15C5 19.9706 9.47715 24 15 24Z" fill="#EBF5FC"/>
<path d="M15.6647 14.411C15.5774 14.411 15.4909 14.3924 15.4103 14.3563C15.3297 14.3201 15.2564 14.2672 15.1947 14.2004C15.1329 14.1336 15.084 14.0543 15.0506 13.967C15.0172 13.8797 15 13.7862 15 13.6917V9.71931C15 9.52854 15.07 9.34558 15.1947 9.21068C15.3193 9.07578 15.4884 9 15.6647 9C15.841 9 16.01 9.07578 16.1347 9.21068C16.2593 9.34558 16.3293 9.52854 16.3293 9.71931V13.6917C16.3293 13.8825 16.2593 14.0654 16.1347 14.2003C16.01 14.3352 15.841 14.411 15.6647 14.411ZM19.3353 16H17.1329C16.9566 16 16.7875 15.9242 16.6629 15.7893C16.5382 15.6544 16.4682 15.4715 16.4682 15.2807C16.4682 15.0899 16.5382 14.907 16.6629 14.7721C16.7875 14.6372 16.9566 14.5614 17.1329 14.5614H19.3353C19.5116 14.5614 19.6807 14.6372 19.8053 14.7721C19.93 14.907 20 15.0899 20 15.2807C20 15.4715 19.93 15.6544 19.8053 15.7893C19.6807 15.9242 19.5116 16 19.3353 16Z" fill="#3C58A0"/>
<path d="M16.1861 2C15.7862 2 15.3907 2.0196 15.0001 2.05596C21.5209 2.6632 26.628 8.22609 26.628 15C26.628 21.7739 21.5208 27.3368 15 27.944C15.3906 27.9804 15.7861 28 16.186 28C23.2629 28 29 22.1797 29 15C29 7.82034 23.263 2 16.1861 2Z" fill="#1886EA"/>
<path d="M16.12 6C15.7406 6 15.3669 6.02426 15 6.07105C19.3755 6.62917 22.76 10.4139 22.76 15C22.76 19.5861 19.3755 23.3708 15 23.929C15.3669 23.9757 15.7406 24 16.12 24C21.0243 24 25 19.9705 25 15C25 10.0295 21.0243 6 16.12 6Z" fill="#D3DCFB"/>
<path d="M15.5 17C16.3284 17 17 16.3284 17 15.5C17 14.6716 16.3284 14 15.5 14C14.6716 14 14 14.6716 14 15.5C14 16.3284 14.6716 17 15.5 17Z" fill="#FFDD40"/>
</g>
<defs>
<linearGradient id="paint0_linear_4256_9310" x1="3" y1="15" x2="29" y2="15" gradientUnits="userSpaceOnUse">
<stop stop-color="#A298FF"/>
<stop offset="1" stop-color="#1700E8"/>
</linearGradient>
<clipPath id="clip0_4256_9310">
<rect width="30" height="30" fill="white" transform="translate(0 0.5)"/>
</clipPath>
</defs>
</svg>
