<svg width="24" height="24" viewBox="0 0 24 24" fill="none" xmlns="http://www.w3.org/2000/svg">
<path d="M8.00391 2.25391H20.0039C20.1531 2.25391 20.2976 2.29835 20.4199 2.37988L20.5342 2.47363C20.6748 2.61428 20.7539 2.805 20.7539 3.00391V17.0039C20.7539 17.2028 20.6748 17.3935 20.5342 17.5342C20.3935 17.6748 20.2028 17.7539 20.0039 17.7539H16.7549V21.0029C16.7549 21.4162 16.4185 21.7528 15.998 21.7529H4.00977C3.911 21.7536 3.81313 21.7346 3.72168 21.6973C3.67578 21.6785 3.63195 21.6552 3.59082 21.6279L3.47656 21.5352C3.44145 21.5003 3.41027 21.4618 3.38281 21.4209L3.3125 21.291C3.27451 21.1997 3.25488 21.1018 3.25488 21.0029L3.25684 7.00488L3.26074 6.92871C3.29909 6.5507 3.61966 6.25401 4.01367 6.25391H7.25391V3.00391C7.25391 2.85475 7.29835 2.71019 7.37988 2.58789L7.47363 2.47363C7.61428 2.33299 7.805 2.25391 8.00391 2.25391ZM4.75684 8.00391L4.75488 20.0039V20.2539H15.2549V7.75391H4.75684V8.00391ZM10.7549 9.25391V10.2539H12.7549V11.7539H8.50488C8.30597 11.7539 8.11526 11.833 7.97461 11.9736C7.83396 12.1143 7.75488 12.305 7.75488 12.5039C7.75488 12.7028 7.83396 12.8935 7.97461 13.0342C8.11526 13.1748 8.30597 13.2539 8.50488 13.2539H11.5049C12.1016 13.2539 12.6737 13.4911 13.0957 13.9131C13.5177 14.335 13.7549 14.9072 13.7549 15.5039C13.7549 16.1006 13.5177 16.6728 13.0957 17.0947C12.6737 17.5167 12.1016 17.7539 11.5049 17.7539H10.7549V18.7539H9.25488V17.7539H7.25488V16.2539H11.5049C11.7038 16.2539 11.8945 16.1748 12.0352 16.0342C12.1758 15.8935 12.2549 15.7028 12.2549 15.5039C12.2549 15.305 12.1758 15.1143 12.0352 14.9736C11.8945 14.833 11.7038 14.7539 11.5049 14.7539H8.50488C7.90815 14.7539 7.33602 14.5167 6.91406 14.0947C6.49211 13.6728 6.25488 13.1006 6.25488 12.5039C6.25488 11.9072 6.49211 11.335 6.91406 10.9131C7.33602 10.4911 7.90815 10.2539 8.50488 10.2539H9.25488V9.25391H10.7549ZM8.75488 6.25391H16.7549V16.2539H19.2549V3.75391H8.75488V6.25391Z" fill="#6B7280" stroke="white" stroke-width="0.5"/>
</svg>
