<svg width="25" height="28" viewBox="0 0 25 28" fill="none" xmlns="http://www.w3.org/2000/svg">
<path opacity="0.3" d="M24.5662 19.764L7.32337 19.764C3.28938 19.764 2.30227e-05 23.0562 2.28945e-05 27.0874L2.28882e-05 27.2871L17.2287 27.2871C21.0601 27.2871 24.2267 24.3259 24.5491 20.5743L24.5662 20.5743L24.5662 20.3604C24.5719 20.2206 24.5776 20.0779 24.5776 19.9352L24.5776 19.764L24.5662 19.764Z" fill="white"/>
<path opacity="0.7" d="M24.5661 10.2435L7.32325 10.2435C3.28926 10.2435 -9.90476e-05 13.5328 -9.91758e-05 17.5639L-9.91821e-05 17.7637L17.2285 17.7637C21.06 17.7637 24.2266 14.8024 24.549 11.0509L24.5661 11.0509L24.5661 10.8397C24.5718 10.6971 24.5775 10.5573 24.5775 10.4147L24.5775 10.2406L24.5661 10.2406L24.5661 10.2435Z" fill="white"/>
<path d="M24.5661 0.717132L7.32325 0.717132C3.28926 0.717131 -9.90476e-05 4.00934 -9.91758e-05 8.04048L-9.91821e-05 8.24023L17.2285 8.24023C21.06 8.24023 24.2266 5.27886 24.549 1.52731L24.5661 1.52731L24.5661 1.31627C24.5718 1.17362 24.5775 1.03383 24.5775 0.888333L24.5775 0.717132L24.5661 0.717132Z" fill="white"/>
</svg>
