<svg width="20" height="20" viewBox="0 0 20 20" fill="none" xmlns="http://www.w3.org/2000/svg">
<path d="M15.4852 4.36719L14.9931 12.3283C14.8673 14.3623 14.8045 15.3793 14.2947 16.1105C14.0426 16.472 13.7181 16.7771 13.3417 17.0064C12.5804 17.4701 11.5615 17.4701 9.52357 17.4701C7.48302 17.4701 6.46272 17.4701 5.70097 17.0055C5.32436 16.7758 4.99972 16.4702 4.74773 16.1081C4.23807 15.3757 4.17658 14.3573 4.05362 12.3204L3.57349 4.36719" stroke="white" stroke-width="1.19118" stroke-linecap="round"/>
<path d="M2.38232 4.3673H16.6764M12.7501 4.3673L12.208 3.24897C11.8479 2.5061 11.6678 2.13466 11.3572 1.903C11.2884 1.85162 11.2154 1.80591 11.1391 1.76633C10.7951 1.58789 10.3823 1.58789 9.55678 1.58789C8.71049 1.58789 8.28738 1.58789 7.93772 1.77381C7.86023 1.81502 7.78628 1.86258 7.71664 1.916C7.40245 2.15703 7.22694 2.54206 6.87593 3.31213L6.39494 4.3673" stroke="white" stroke-width="1.19118" stroke-linecap="round"/>
</svg>
