<svg width="24" height="24" viewBox="0 0 24 24" fill="none" xmlns="http://www.w3.org/2000/svg">
<path d="M21.8571 15.8571H21V13.7143C21 12.5357 20.0357 11.5714 18.8571 11.5714H12.4286V9H13.2857C14.4643 9 15.4286 8.03571 15.4286 6.85714V5.14286C15.4286 3.96429 14.4643 3 13.2857 3H10.7143C9.53571 3 8.57143 3.96429 8.57143 5.14286V6.85714C8.57143 8.03571 9.53571 9 10.7143 9H11.5714V11.5714H5.14286C3.96429 11.5714 3 12.5357 3 13.7143V15.8571H2.14286C0.964286 15.8571 0 16.8214 0 18V19.7143C0 20.8929 0.964286 21.8571 2.14286 21.8571H4.71429C5.89286 21.8571 6.85714 20.8929 6.85714 19.7143V18C6.85714 16.8214 5.89286 15.8571 4.71429 15.8571H3.85714V13.7143C3.85714 13.0071 4.43571 12.4286 5.14286 12.4286H11.5714V15.8571H10.7143C9.53571 15.8571 8.57143 16.8214 8.57143 18V19.7143C8.57143 20.8929 9.53571 21.8571 10.7143 21.8571H13.2857C14.4643 21.8571 15.4286 20.8929 15.4286 19.7143V18C15.4286 16.8214 14.4643 15.8571 13.2857 15.8571H12.4286V12.4286H18.8571C19.5643 12.4286 20.1429 13.0071 20.1429 13.7143V15.8571H19.2857C18.1071 15.8571 17.1429 16.8214 17.1429 18V19.7143C17.1429 20.8929 18.1071 21.8571 19.2857 21.8571H21.8571C23.0357 21.8571 24 20.8929 24 19.7143V18C24 16.8214 23.0357 15.8571 21.8571 15.8571ZM4.71429 16.7143C5.42143 16.7143 6 17.2929 6 18V19.7143C6 20.4214 5.42143 21 4.71429 21H2.14286C1.43571 21 0.857143 20.4214 0.857143 19.7143V18C0.857143 17.2929 1.43571 16.7143 2.14286 16.7143H4.71429ZM13.2857 16.7143C13.9929 16.7143 14.5714 17.2929 14.5714 18V19.7143C14.5714 20.4214 13.9929 21 13.2857 21H10.7143C10.0071 21 9.42857 20.4214 9.42857 19.7143V18C9.42857 17.2929 10.0071 16.7143 10.7143 16.7143H13.2857ZM10.7143 8.14286C10.0071 8.14286 9.42857 7.56429 9.42857 6.85714V5.14286C9.42857 4.43571 10.0071 3.85714 10.7143 3.85714H13.2857C13.9929 3.85714 14.5714 4.43571 14.5714 5.14286V6.85714C14.5714 7.56429 13.9929 8.14286 13.2857 8.14286H10.7143ZM23.1429 19.7143C23.1429 20.4214 22.5643 21 21.8571 21H19.2857C18.5786 21 18 20.4214 18 19.7143V18C18 17.2929 18.5786 16.7143 19.2857 16.7143H21.8571C22.5643 16.7143 23.1429 17.2929 23.1429 18V19.7143Z" fill="#6B7280"/>
</svg>
