<svg width="55" height="49" viewBox="0 0 55 49" fill="none" xmlns="http://www.w3.org/2000/svg">
<path d="M0 24.0805C0 17.694 2.55294 11.5689 7.09729 7.05297C11.6416 2.537 17.8052 1.15058e-05 24.2318 1.15058e-05C27.7623 -0.00342152 31.2509 0.76143 34.4522 2.24072C37.6536 3.72001 40.49 5.87786 42.7626 8.56281C46.2872 12.5853 49.6578 19.1538 54.85 23.3657C52.06 23.6546 49.737 31.6351 45.0107 36.4764C42.8579 40.0418 39.8124 42.9923 36.1708 45.04C32.5293 47.0878 28.416 48.163 24.2318 48.161C17.8052 48.161 11.6416 45.624 7.09729 41.108C2.55294 36.5921 0 30.467 0 24.0805Z" fill="#F9F9F9"/>
<g clip-path="url(#clip0_46_848)">
<path d="M33.1724 27.5166C33.0994 27.1659 32.7558 26.9408 32.4051 27.0137C32.0543 27.0868 31.8292 27.4303 31.9022 27.7811C31.9443 27.9831 31.8942 28.1902 31.7648 28.3493C31.6899 28.4414 31.5228 28.596 31.2459 28.596H28.3167C27.9584 28.596 27.668 28.8864 27.668 29.2447C27.668 29.603 27.9584 29.8934 28.3167 29.8934H31.2459C31.8404 29.8934 32.3964 29.629 32.7714 29.1679C33.1483 28.7045 33.2945 28.1026 33.1724 27.5166Z" fill="#2674C3"/>
<path d="M25.5697 22.1337C27.7009 22.33 29.6396 23.4723 30.8471 25.2731C31.0466 25.5707 31.4496 25.6502 31.7472 25.4506C32.0448 25.2511 32.1242 24.8481 31.9247 24.5505C30.8602 22.9629 29.3144 21.8087 27.552 21.2287C28.6261 20.4234 29.3223 19.1402 29.3223 17.6974C29.3223 15.265 27.3434 13.2861 24.911 13.2861C22.4787 13.2861 20.4997 15.265 20.4997 17.6974C20.4997 19.1411 21.1968 20.425 22.2721 21.2303C21.287 21.5546 20.3626 22.0589 19.5536 22.7243C18.0702 23.9445 17.0388 25.6464 16.6495 27.5165C16.5275 28.1025 16.6737 28.7044 17.0505 29.1678C17.4255 29.6289 17.9815 29.8934 18.576 29.8934H21.4079C21.7662 29.8934 22.0567 29.6029 22.0567 29.2446C22.0567 28.8864 21.7662 28.5959 21.4079 28.5959H18.576C18.299 28.5959 18.132 28.4414 18.057 28.3492C17.9277 28.1901 17.8776 27.983 17.9196 27.781C18.5549 24.7298 21.1302 22.4549 24.1859 22.1408L22.9474 27.7753C22.9 27.9914 22.9659 28.2168 23.1223 28.3732L24.4198 29.6709C24.5415 29.7926 24.7065 29.8609 24.8786 29.8609C25.0507 29.8609 25.2157 29.7926 25.3373 29.6709L26.6347 28.3732C26.7911 28.2167 26.8571 27.9914 26.8096 27.7753L25.5697 22.1337ZM21.7972 17.6974C21.7972 15.9804 23.194 14.5836 24.911 14.5836C26.628 14.5836 28.0249 15.9804 28.0249 17.6974C28.0249 19.3626 26.7111 20.7266 25.0656 20.8075C25.0141 20.8065 24.9626 20.8059 24.911 20.8059C24.8604 20.8059 24.8098 20.8066 24.7593 20.8076C23.1125 20.7281 21.7972 19.3635 21.7972 17.6974ZM24.8786 28.2947L24.2909 27.707L24.8786 25.0334L25.4661 27.707L24.8786 28.2947Z" fill="#2674C3"/>
</g>
<defs>
<clipPath id="clip0_46_848">
<rect width="16.6072" height="16.6072" fill="white" transform="translate(16.6074 13.2861)"/>
</clipPath>
</defs>
</svg>
