<svg width="15" height="15" viewBox="0 0 15 15" fill="none" xmlns="http://www.w3.org/2000/svg">
<g clip-path="url(#clip0_3941_44345)">
<path fill-rule="evenodd" clip-rule="evenodd" d="M11.0437 6.71156C10.9119 6.57989 10.7332 6.50593 10.5469 6.50593C10.3605 6.50593 10.1818 6.57989 10.05 6.71156L8.20312 8.55844V1.64062C8.20312 1.45414 8.12905 1.2753 7.99718 1.14344C7.86532 1.01158 7.68648 0.9375 7.5 0.9375C7.31352 0.9375 7.13468 1.01158 7.00282 1.14344C6.87095 1.2753 6.79688 1.45414 6.79688 1.64062V8.55844L4.95 6.71156C4.81671 6.58736 4.64042 6.51975 4.45826 6.52296C4.2761 6.52618 4.1023 6.59997 3.97348 6.72879C3.84465 6.85762 3.77086 7.03141 3.76765 7.21357C3.76443 7.39573 3.83205 7.57202 3.95625 7.70531L7.00312 10.7522L7.5 11.25L7.99687 10.7531L11.0437 7.70625C11.1091 7.64095 11.1609 7.56342 11.1963 7.47808C11.2316 7.39275 11.2498 7.30128 11.2498 7.20891C11.2498 7.11653 11.2316 7.02506 11.1963 6.93973C11.1609 6.85439 11.1091 6.77686 11.0437 6.71156ZM2.34375 9.14062C2.34375 9.04829 2.32556 8.95686 2.29023 8.87155C2.25489 8.78624 2.2031 8.70873 2.13781 8.64344C2.07252 8.57815 1.99501 8.52636 1.9097 8.49102C1.82439 8.45569 1.73296 8.4375 1.64062 8.4375C1.54829 8.4375 1.45686 8.45569 1.37155 8.49102C1.28624 8.52636 1.20873 8.57815 1.14344 8.64344C1.07815 8.70873 1.02636 8.78624 0.991022 8.87155C0.955687 8.95686 0.9375 9.04829 0.9375 9.14062V12.1875C0.9375 12.6848 1.13504 13.1617 1.48667 13.5133C1.83831 13.865 2.31522 14.0625 2.8125 14.0625H12.1875C12.6848 14.0625 13.1617 13.865 13.5133 13.5133C13.865 13.1617 14.0625 12.6848 14.0625 12.1875V9.14062C14.0625 8.95414 13.9884 8.7753 13.8566 8.64344C13.7247 8.51158 13.5459 8.4375 13.3594 8.4375C13.1729 8.4375 12.9941 8.51158 12.8622 8.64344C12.7303 8.7753 12.6562 8.95414 12.6562 9.14062V12.1875C12.6562 12.3118 12.6069 12.431 12.519 12.519C12.431 12.6069 12.3118 12.6562 12.1875 12.6562H2.8125C2.68818 12.6562 2.56895 12.6069 2.48104 12.519C2.39314 12.431 2.34375 12.3118 2.34375 12.1875V9.14062Z" fill="white"/>
</g>
<defs>
<clipPath id="clip0_3941_44345">
<rect width="15" height="15" fill="white"/>
</clipPath>
</defs>
</svg>
