<svg width="13" height="13" viewBox="0 0 13 13" fill="none" xmlns="http://www.w3.org/2000/svg">
<path d="M4.66679 2.22222H2.95567C2.27117 2.22222 1.92866 2.22222 1.66721 2.35544C1.43723 2.47262 1.25039 2.65946 1.13321 2.88943C1 3.15088 1 3.49339 1 4.1779V10.0446C1 10.7291 1 11.0711 1.13321 11.3326C1.25039 11.5626 1.43723 11.7497 1.66721 11.8669C1.9284 12 2.2705 12 2.95367 12H8.82411C9.50728 12 9.84888 12 10.1101 11.8669C10.34 11.7497 10.5275 11.5624 10.6447 11.3324C10.7778 11.0712 10.7778 10.7295 10.7778 10.0463V8.33333M8.33333 2.83333L4.66667 6.5V8.33333H6.5L10.1667 4.66667M8.33333 2.83333L10.1667 1L12 2.83333L10.1667 4.66667M8.33333 2.83333L10.1667 4.66667" stroke="#A6A6A6" stroke-width="1.19118" stroke-linecap="round" stroke-linejoin="round"/>
</svg>
