<svg width="19" height="19" viewBox="0 0 19 19" fill="none" xmlns="http://www.w3.org/2000/svg">
<g clip-path="url(#clip0_3907_15710)">
<path d="M8.02306 3.31818H5.8276C4.94934 3.31818 4.50988 3.31818 4.17443 3.4891C3.87935 3.63945 3.63963 3.87918 3.48928 4.17425C3.31836 4.5097 3.31836 4.94916 3.31836 5.82743V13.3547C3.31836 14.233 3.31836 14.6719 3.48928 15.0073C3.63963 15.3024 3.87935 15.5425 4.17443 15.6929C4.50955 15.8636 4.94848 15.8636 5.82503 15.8636H13.3571C14.2337 15.8636 14.672 15.8636 15.0071 15.6929C15.3022 15.5425 15.5427 15.3022 15.6931 15.0071C15.8638 14.672 15.8638 14.2335 15.8638 13.357V11.1591M12.7274 4.10227L8.0229 8.80682V11.1591H10.3752L15.0797 6.45455M12.7274 4.10227L15.0797 1.75L17.432 4.10227L15.0797 6.45455M12.7274 4.10227L15.0797 6.45455" stroke="white" stroke-width="1.19118" stroke-linecap="round" stroke-linejoin="round"/>
</g>
<defs>
<clipPath id="clip0_3907_15710">
<rect width="18.8182" height="18.8182" fill="white" transform="translate(0.181641 0.181641)"/>
</clipPath>
</defs>
</svg>
