<svg width="19" height="19" viewBox="0 0 19 19" fill="none" xmlns="http://www.w3.org/2000/svg">
<path d="M8.02281 3.31818H5.82736C4.94909 3.31818 4.50964 3.31818 4.17418 3.4891C3.87911 3.63945 3.63938 3.87918 3.48904 4.17425C3.31812 4.5097 3.31812 4.94916 3.31812 5.82743V13.3547C3.31812 14.233 3.31812 14.6719 3.48904 15.0073C3.63938 15.3024 3.87911 15.5425 4.17418 15.6929C4.50931 15.8636 4.94824 15.8636 5.82478 15.8636H13.3569C14.2334 15.8636 14.6717 15.8636 15.0069 15.6929C15.3019 15.5425 15.5425 15.3022 15.6928 15.0071C15.8636 14.672 15.8636 14.2335 15.8636 13.357V11.1591M12.7272 4.10227L8.02266 8.80682V11.1591H10.3749L15.0795 6.45455M12.7272 4.10227L15.0795 1.75L17.4318 4.10227L15.0795 6.45455M12.7272 4.10227L15.0795 6.45455" stroke="white" stroke-width="1.19118" stroke-linecap="round" stroke-linejoin="round"/>
</svg>
