<svg width="14" height="12" viewBox="0 0 14 12" fill="none" xmlns="http://www.w3.org/2000/svg">
<path d="M0.029367 2.62317C0.0455694 2.04261 0.285657 1.49078 0.69938 1.08316C0.895763 0.881994 1.13069 0.722512 1.39015 0.614262C1.6496 0.506012 1.92823 0.45123 2.20936 0.453175H11.4694C11.7502 0.453472 12.0281 0.509286 12.2873 0.617405C12.5464 0.725525 12.7816 0.883807 12.9794 1.08316C13.3931 1.49078 13.6332 2.04261 13.6494 2.62317L12.9394 3.03316L6.85938 6.44317L0.789377 3.03316L0.029367 2.62317ZM0.029367 3.77317V9.28316C0.0246883 9.88273 0.254347 10.4604 0.669382 10.8932C0.86879 11.1041 1.10903 11.2723 1.3755 11.3875C1.64196 11.5027 1.92907 11.5625 2.21937 11.5632H11.4694C11.7582 11.5623 12.0437 11.5024 12.3085 11.3872C12.5734 11.272 12.8119 11.1039 13.0094 10.8932C13.4244 10.4604 13.654 9.88273 13.6494 9.28316V3.77317L13.3994 3.92318L7.08936 7.46317C7.01912 7.50259 6.93994 7.52329 6.85938 7.52329C6.77883 7.52329 6.69962 7.50259 6.62937 7.46317L0.319376 3.92318L0.029367 3.77317Z" fill="#0081C1"/>
</svg>
