<svg width="32" height="22" viewBox="0 0 32 22" fill="none" xmlns="http://www.w3.org/2000/svg">
<path d="M1.39655 20.8904H7.64316C7.21369 20.3969 7.0413 19.7631 7.17111 19.1429L8.45121 13.0291C8.61227 12.26 9.21956 11.6284 10.0361 11.3808L13.3006 10.3909C13.358 10.3735 13.4166 10.3674 13.4736 10.3709V9.58191C12.8507 8.94519 12.5098 8.13555 12.5098 7.27396V6.30223C11.9502 6.13029 11.5461 5.64854 11.5461 5.08218V2.8904C11.5461 1.45528 12.8296 0.287659 14.4072 0.287659H18.2622C18.8997 0.287659 19.4402 0.673028 19.6168 1.20119C20.4762 1.36552 21.1233 2.06048 21.1233 2.8904V5.08218C21.1233 5.64848 20.7192 6.13023 20.1596 6.30223V7.14536C20.1596 8.05106 19.7944 8.8876 19.1958 9.52667V10.3709C19.2528 10.3674 19.3113 10.3735 19.3688 10.391L22.6333 11.3809C23.4498 11.6285 24.0571 12.26 24.2182 13.0292L25.4983 19.143C25.6282 19.7631 25.4557 20.3969 25.0262 20.8905H31.2729C31.5223 20.8905 31.7246 21.0745 31.7246 21.3014C31.7246 21.5284 31.5223 21.7124 31.2729 21.7124H23.1611H23.081H22.1172H10.5522H9.58844H9.50832H1.39655C1.14705 21.7124 0.944786 21.5284 0.944786 21.3014C0.944786 21.0745 1.14705 20.8904 1.39655 20.8904ZM18.7441 11.1918C18.4946 11.1918 18.2923 11.0078 18.2923 10.7808V10.2373C17.7496 10.5468 17.1215 10.7335 16.452 10.7518C16.4123 10.7529 16.3728 10.7534 16.3333 10.7534C15.6337 10.7534 14.9635 10.5835 14.3771 10.2643V10.7808C14.3771 11.0078 14.1748 11.1918 13.9253 11.1918C13.919 11.1918 13.9128 11.1912 13.9066 11.1909C14.0242 12.2044 15.0681 13 16.3347 13C17.6012 13 18.6452 12.2044 18.7628 11.1909C18.7565 11.1912 18.7504 11.1918 18.7441 11.1918ZM20.2198 5.08218V2.8904C20.2198 2.39188 19.774 1.98629 19.226 1.98629C18.9765 1.98629 18.7742 1.80229 18.7742 1.57533C18.7742 1.31851 18.5445 1.10958 18.2622 1.10958H14.4072C13.3278 1.10958 12.4496 1.90843 12.4496 2.8904V5.08218C12.4496 5.16119 12.4715 5.2356 12.5098 5.30092V4.64382C12.5098 3.9338 13.1448 3.35615 13.9253 3.35615H18.7441C19.5246 3.35615 20.1596 3.9338 20.1596 4.64382V5.30092C20.1979 5.2356 20.2198 5.16119 20.2198 5.08218ZM19.2561 4.64382C19.2561 4.387 19.0264 4.17807 18.7441 4.17807H13.9253C13.643 4.17807 13.4133 4.387 13.4133 4.64382V7.27396C13.4133 7.99889 13.7284 8.67632 14.3004 9.1813C14.8722 9.68607 15.6277 9.95199 16.4249 9.93029C17.986 9.88766 19.2561 8.63829 19.2561 7.1453V4.64382ZM22.1172 20.8904C22.1338 20.8904 22.1473 20.8781 22.1473 20.863V15.1644C22.1473 15.1493 22.1338 15.137 22.1172 15.137H10.5522C10.5356 15.137 10.5221 15.1493 10.5221 15.1644V20.863C10.5221 20.8781 10.5356 20.8904 10.5522 20.8904H22.1172ZM9.58844 20.8904H9.62006C9.61976 20.8812 9.61855 20.8723 9.61855 20.863V15.1644C9.61855 14.696 10.0374 14.3151 10.5522 14.3151H22.1172C22.632 14.3151 23.0508 14.696 23.0508 15.1644V20.863C23.0508 20.8723 23.0496 20.8812 23.0493 20.8904H23.081H23.1611C23.6024 20.8904 24.0167 20.713 24.298 20.4038C24.5793 20.0945 24.6933 19.6911 24.6107 19.2968L23.3306 13.1829C23.2307 12.7059 22.854 12.3142 22.3475 12.1606L19.6521 11.3432C19.4507 12.7379 18.0404 13.8219 16.3347 13.8219C14.629 13.8219 13.2186 12.7379 13.0173 11.3432L10.3218 12.1605C9.81534 12.3141 9.43863 12.7059 9.33876 13.1829L8.05866 19.2968C7.97608 19.6911 8.09004 20.0946 8.37134 20.4038C8.65263 20.713 9.06705 20.8904 9.50826 20.8904H9.58844Z" fill="black"/>
</svg>
