<svg width="20" height="20" viewBox="0 0 20 20" fill="none" xmlns="http://www.w3.org/2000/svg">
<path d="M14.8758 17.6399C14.177 17.8464 13.3511 17.9417 12.3823 17.9417H7.61755C6.64873 17.9417 5.82285 17.8464 5.12402 17.6399C5.29873 15.5752 7.41902 13.9473 9.9999 13.9473C12.5808 13.9473 14.7011 15.5752 14.8758 17.6399Z" stroke="#17181A" stroke-width="1.19118" stroke-linecap="round" stroke-linejoin="round"/>
<path d="M12.3821 2.05859H7.61742C3.64683 2.05859 2.05859 3.64683 2.05859 7.61742V12.3821C2.05859 15.3839 2.96389 17.0277 5.12389 17.6392C5.29859 15.5745 7.41889 13.9465 9.99977 13.9465C12.5807 13.9465 14.7009 15.5745 14.8757 17.6392C17.0357 17.0277 17.9409 15.3839 17.9409 12.3821V7.61742C17.9409 3.64683 16.3527 2.05859 12.3821 2.05859ZM9.99977 11.723C8.42742 11.723 7.15683 10.4445 7.15683 8.87214C7.15683 7.29978 8.42742 6.02918 9.99977 6.02918C11.5721 6.02918 12.8427 7.29978 12.8427 8.87214C12.8427 10.4445 11.5721 11.723 9.99977 11.723Z" stroke="#17181A" stroke-width="1.19118" stroke-linecap="round" stroke-linejoin="round"/>
<path d="M12.8431 8.87225C12.8431 10.4446 11.5725 11.7231 10.0002 11.7231C8.42782 11.7231 7.15723 10.4446 7.15723 8.87225C7.15723 7.2999 8.42782 6.0293 10.0002 6.0293C11.5725 6.0293 12.8431 7.2999 12.8431 8.87225Z" stroke="#17181A" stroke-width="1.19118" stroke-linecap="round" stroke-linejoin="round"/>
</svg>
