<svg width="24" height="24" viewBox="0 0 24 24" fill="none" xmlns="http://www.w3.org/2000/svg">
<path d="M6.4419 4C7.11192 4 7.7545 4.26339 8.22827 4.73223C8.70205 5.20107 8.96822 5.83696 8.96822 6.5C8.96822 7.16304 8.70205 7.79893 8.22827 8.26777C7.7545 8.73661 7.11192 9 6.4419 9C5.77188 9 5.1293 8.73661 4.65552 8.26777C4.18175 7.79893 3.91558 7.16304 3.91558 6.5C3.91558 5.83696 4.18175 5.20107 4.65552 4.73223C5.1293 4.26339 5.77188 4 6.4419 4ZM18.063 4C18.733 4 19.3756 4.26339 19.8493 4.73223C20.3231 5.20107 20.5893 5.83696 20.5893 6.5C20.5893 7.16304 20.3231 7.79893 19.8493 8.26777C19.3756 8.73661 18.733 9 18.063 9C17.3929 9 16.7504 8.73661 16.2766 8.26777C15.8028 7.79893 15.5366 7.16304 15.5366 6.5C15.5366 5.83696 15.8028 5.20107 16.2766 4.73223C16.7504 4.26339 17.3929 4 18.063 4ZM1.89453 13.3344C1.89453 11.4938 3.404 10 5.264 10H6.61243C6.86835 10 7.11771 10.0284 7.35758 10.0819C7.75919 10.1715 7.96085 10.5885 7.96085 11C7.96085 12.1809 7.1102 14 5.92931 14H2.56716C2.19769 14 1.89453 13.7 1.89453 13.3344ZM14.6935 14C14.6858 14 14.6822 13.9905 14.688 13.9854C15.5183 13.2515 16.0387 12.1859 16.0387 11C16.0387 10.5867 16.2379 10.1703 16.6414 10.0809C16.8815 10.0276 17.131 10 17.3872 10H18.7356C20.5956 10 22.1051 11.4938 22.1051 13.3344C22.1051 13.7031 21.8019 14 21.4324 14H14.6966H14.6935ZM8.96822 11C8.96822 10.2044 9.28761 9.44129 9.85614 8.87868C10.4247 8.31607 11.1958 8 11.9998 8C12.8038 8 13.5749 8.31607 14.1434 8.87868C14.712 9.44129 15.0314 10.2044 15.0314 11C15.0314 11.7956 14.712 12.5587 14.1434 13.1213C13.5749 13.6839 12.8038 14 11.9998 14C11.1958 14 10.4247 13.6839 9.85614 13.1213C9.28761 12.5587 8.96822 11.7956 8.96822 11ZM5.93506 19.1656C5.93593 19.1656 5.93664 19.1649 5.93664 19.164C5.9375 16.8648 7.82243 15 10.1461 15H13.8503C16.1777 15 18.063 16.8656 18.063 19.1656C18.063 19.625 17.6872 20 17.2198 20H6.77664C6.31296 20 5.93435 19.629 5.93348 19.1672C5.93348 19.1663 5.93419 19.1656 5.93506 19.1656Z" fill="url(#paint0_linear_5679_9094)"/>
<defs>
<linearGradient id="paint0_linear_5679_9094" x1="1.89453" y1="12" x2="22.1051" y2="12" gradientUnits="userSpaceOnUse">
<stop stop-color="#A298FF"/>
<stop offset="1" stop-color="#1700E8"/>
</linearGradient>
</defs>
</svg>
