<svg width="20" height="20" viewBox="0 0 20 20" fill="none" xmlns="http://www.w3.org/2000/svg">
<path d="M3.2502 16.749C3.90932 17.4082 4.97343 17.4082 5.63255 16.749L15.9561 6.42552C16.6152 5.7664 16.6152 4.70228 15.9561 4.04317C15.297 3.38405 14.2328 3.38405 13.5737 4.04317L3.2502 14.3667C2.59108 15.0258 2.59108 16.0899 3.2502 16.749Z" stroke="#17181A" stroke-width="1.19118" stroke-linecap="round" stroke-linejoin="round"/>
<path d="M14.773 7.61087L12.3906 5.22852" stroke="#17181A" stroke-width="1.19118" stroke-linecap="round" stroke-linejoin="round"/>
<path d="M7.22047 2.40801L8.41165 2.05859L8.06224 3.24977L8.41165 4.44095L7.22047 4.09153L6.0293 4.44095L6.37871 3.24977L6.0293 2.05859L7.22047 2.40801Z" stroke="#17181A" stroke-width="1.19118" stroke-linecap="round" stroke-linejoin="round"/>
<path d="M4.04469 7.17363L5.23587 6.82422L4.88646 8.0154L5.23587 9.20657L4.04469 8.85716L2.85352 9.20657L3.20293 8.0154L2.85352 6.82422L4.04469 7.17363Z" stroke="#17181A" stroke-width="1.19118" stroke-linecap="round" stroke-linejoin="round"/>
<path d="M15.9558 11.1443L17.147 10.7949L16.7976 11.9861L17.147 13.1773L15.9558 12.8279L14.7646 13.1773L15.1141 11.9861L14.7646 10.7949L15.9558 11.1443Z" stroke="#17181A" stroke-width="1.19118" stroke-linecap="round" stroke-linejoin="round"/>
</svg>
