<svg width="49" height="48" viewBox="0 0 49 48" fill="none" xmlns="http://www.w3.org/2000/svg">
<g clip-path="url(#clip0_3907_29361)">
<path d="M45.9341 27.0161L41.7527 25.3711H26.9104L22.729 27.0161C21.1257 27.6469 20.0974 29.2234 20.1664 30.9449L20.674 43.6194C20.703 44.3431 21.298 44.9148 22.0222 44.9148H46.641C47.3652 44.9148 47.9602 44.3431 47.9892 43.6194L48.4969 30.9449C48.5658 29.2234 47.5374 27.6469 45.9341 27.0161Z" fill="url(#paint0_linear_3907_29361)"/>
<path d="M33.3462 30.0723L32.4832 44.9146H36.1796L35.3166 30.0723H33.3462Z" fill="#5D5360"/>
<path d="M34.9064 30.7455H33.757C33.6553 30.7455 33.5545 30.7255 33.4605 30.6866C33.3666 30.6476 33.2812 30.5906 33.2092 30.5187C33.1373 30.4467 33.0802 30.3613 33.0413 30.2673C33.0024 30.1734 32.9824 30.0726 32.9824 29.9709V28.0469H35.681V29.9709C35.681 30.1763 35.5994 30.3734 35.4541 30.5186C35.3088 30.6639 35.1118 30.7455 34.9064 30.7455Z" fill="#4B3F4E"/>
<path d="M29.6094 19.9512H39.0547V28.0474H29.6094V19.9512Z" fill="#EAF3F9"/>
<path d="M29.6094 22.4724C30.9473 23.4358 32.5812 24.001 34.3318 24.001C36.0826 24.001 37.7165 23.4359 39.0544 22.4724V19.9531H29.6094V22.4724Z" fill="#AAD4F0"/>
<path d="M34.3315 3.10715C30.9631 3.28921 29.0467 5.13112 29.0467 5.13112C29.0467 5.13112 26.2356 5.13112 26.2356 8.50434C26.2356 11.2029 26.9102 13.8803 26.9102 13.8803H42.4272C43.7766 6.45918 40.572 2.76984 34.3315 3.10715Z" fill="#5C414B"/>
<path d="M30.2833 11.0961C27.8049 7.99745 29.0464 5.13086 29.0464 5.13086C29.0464 5.13086 26.2354 5.13086 26.2354 8.50408C26.2354 11.2027 26.91 13.8801 26.91 13.8801H30.2832L30.2833 11.0961Z" fill="#503441"/>
<path d="M41.7521 13.2063H41.0775L40.1885 11.5838C40.0481 11.3276 39.7558 11.1965 39.4685 11.2491C35.0253 12.0618 32.1052 11.029 30.9988 10.5121C30.8585 10.4463 30.6996 10.4316 30.5496 10.4706C30.3996 10.5097 30.268 10.6 30.1776 10.7258C29.4949 11.6795 28.7416 12.4311 28.2897 12.8469C28.04 13.0779 27.7125 13.2062 27.3724 13.2064H26.8869L26.8859 13.2066C26.812 13.2078 26.7365 13.2158 26.6596 13.2306C26.003 13.3574 25.5605 13.9852 25.5605 14.6539V15.1428C25.5605 15.7881 25.9737 16.3969 26.6021 16.5436C26.7437 16.5767 26.8814 16.586 27.0133 16.5755C27.3487 16.5487 27.6416 16.7928 27.702 17.1238C28.2755 20.2673 31.0219 22.6514 34.331 22.6514C37.6402 22.6514 40.3865 20.2673 40.9601 17.1238C41.0183 16.8051 41.2935 16.5728 41.6133 16.5796H41.7523C42.4975 16.5796 43.1016 15.9755 43.1016 15.2303V14.5556C43.1015 13.8103 42.4973 13.2063 41.7521 13.2063Z" fill="#EAF3F9"/>
<path d="M30.2831 15.9032V10.6211C30.2464 10.6535 30.2072 10.6828 30.1776 10.7241C29.4949 11.6777 28.7416 12.4293 28.2897 12.8452C28.04 13.0762 27.7125 13.2045 27.3724 13.2047H26.8869L26.8859 13.2048C26.812 13.2061 26.7365 13.2141 26.6596 13.2288C26.003 13.3557 25.5605 13.9834 25.5605 14.6522V15.1411C25.5605 15.7863 25.9737 16.3952 26.6021 16.5419C26.7437 16.575 26.8814 16.5842 27.0133 16.5737C27.3487 16.5469 27.6416 16.7911 27.702 17.1221C28.2755 20.2655 31.0219 22.6497 34.331 22.6497C34.7898 22.6497 35.236 22.5996 35.6688 22.5123C32.5951 21.8827 30.2831 19.1629 30.2831 15.9032Z" fill="#AAD4F0"/>
<path d="M34.3315 28.0695L29.4093 23.7626C29.2805 23.6499 29.1137 23.5904 28.9426 23.5961C28.7716 23.6018 28.6091 23.6723 28.488 23.7933L26.9104 25.3709L30.0453 30.0733C30.5176 30.7818 31.52 30.8811 32.1221 30.279L34.3315 28.0695ZM34.3315 28.0695L39.2536 23.7626C39.3824 23.6499 39.5493 23.5904 39.7203 23.5961C39.8914 23.6018 40.0539 23.6723 40.1749 23.7933L41.7525 25.3709L38.6176 30.0733C38.1453 30.7818 37.1429 30.8811 36.5409 30.279L34.3315 28.0695ZM44.9623 31.6064L47.8975 28.6713C48.307 29.3394 48.5297 30.1239 48.4968 30.9447L47.9892 43.6193C47.9602 44.3429 47.3652 44.9146 46.6409 44.9146H43.7767V34.4687C43.7767 33.3951 44.2032 32.3655 44.9623 31.6064ZM27.685 36.1441H30.8583C30.96 36.1441 31.0608 36.1241 31.1547 36.0852C31.2487 36.0463 31.3341 35.9892 31.4061 35.9173C31.478 35.8454 31.535 35.76 31.574 35.666C31.6129 35.572 31.6329 35.4713 31.6329 35.3695V34.8948C31.6329 34.7931 31.6129 34.6923 31.574 34.5983C31.535 34.5044 31.478 34.419 31.4061 34.347C31.3341 34.2751 31.2487 34.2181 31.1547 34.1791C31.0608 34.1402 30.96 34.1202 30.8583 34.1202H27.685C27.5832 34.1202 27.4825 34.1402 27.3885 34.1791C27.2945 34.2181 27.2091 34.2751 27.1372 34.347C27.0653 34.419 27.0082 34.5044 26.9693 34.5983C26.9304 34.6923 26.9104 34.7931 26.9104 34.8948V35.3695C26.9104 35.4713 26.9304 35.572 26.9693 35.666C27.0082 35.76 27.0653 35.8454 27.1372 35.9173C27.2091 35.9892 27.2945 36.0463 27.3885 36.0852C27.4825 36.1241 27.5832 36.1441 27.685 36.1441Z" fill="#9084FF"/>
<path d="M22.3588 30.9854L18.7191 29.3965H6.56822L2.92847 30.9854C2.17991 31.3122 1.54772 31.8577 1.11495 32.5504C0.682178 33.2431 0.469071 34.0506 0.503625 34.8666L0.874688 43.6214C0.905344 44.3437 1.49981 44.9135 2.22281 44.9135H23.0647C23.7877 44.9135 24.3821 44.3437 24.4128 43.6214L24.7838 34.8666C24.8184 34.0505 24.6052 33.2431 24.1724 32.5504C23.7396 31.8577 23.1074 31.3121 22.3588 30.9854Z" fill="url(#paint1_linear_3907_29361)"/>
<path d="M9.27051 24.6758H16.017V31.4223H9.27051V24.6758Z" fill="#BAD4E5"/>
<path d="M9.27051 26.6354C10.3284 27.1223 11.4792 27.3744 12.6437 27.3744C13.8083 27.3745 14.9591 27.1224 16.0169 26.6354V24.6758H9.27051V26.6354Z" fill="#A5C8DF"/>
<path d="M12.6438 11.1822C14.8795 11.1822 16.692 9.36978 16.692 7.13406C16.692 4.89834 14.8795 3.08594 12.6438 3.08594C10.4081 3.08594 8.5957 4.89834 8.5957 7.13406C8.5957 9.36978 10.4081 11.1822 12.6438 11.1822Z" fill="#654554"/>
<path d="M12.6431 21.9765C17.1146 21.9765 20.7394 18.5028 20.7394 14.2177C20.7394 9.9327 17.1146 6.45898 12.6431 6.45898C8.17169 6.45898 4.54688 9.9327 4.54688 14.2177C4.54688 18.5028 8.17169 21.9765 12.6431 21.9765Z" fill="#503441"/>
<path d="M9.94504 15.2293C7.24645 12.5307 6.84304 10.2042 6.90679 8.74414C5.44926 10.1472 4.54785 12.0812 4.54785 14.2174C4.54785 15.6805 4.97216 17.0469 5.70773 18.2132L9.94504 15.2293Z" fill="#5C414B"/>
<path d="M20.336 16.607C20.282 16.5895 19.9492 16.5789 19.9492 16.5789C19.5913 16.5788 19.2481 16.4366 18.9951 16.1836L18.4128 15.6013C18.1791 15.3676 17.8703 15.2272 17.5403 15.2087C16.2271 15.1352 12.5857 14.8085 9.69254 13.3889C9.38373 13.2374 9.00648 13.32 8.82132 13.6099C8.06345 14.7965 7.12576 15.738 6.59982 16.2219C6.35067 16.4517 6.02405 16.5791 5.6851 16.5788H5.19976L5.19873 16.579C5.12479 16.5802 5.04932 16.5882 4.97232 16.603C4.3157 16.7298 3.87329 17.3575 3.87329 18.0263V18.5152C3.87329 19.1605 4.28645 19.7693 4.91495 19.916C5.05651 19.949 5.19423 19.9584 5.32604 19.9479C5.66148 19.921 5.95435 20.1652 6.01473 20.4962C6.58829 23.6396 9.3346 26.0238 12.6438 26.0238C15.953 26.0238 18.6993 23.6396 19.2729 20.4962C19.3332 20.1652 19.6261 19.921 19.9615 19.9479C20.0934 19.9584 20.2312 19.949 20.3726 19.916C21.001 19.7693 21.4143 19.1605 21.4143 18.5152V17.9005C21.4142 17.2656 20.9399 16.8031 20.336 16.607Z" fill="#BAD4E5"/>
<path d="M8.59552 19.2779V13.9453C7.88442 14.9726 7.07452 15.7853 6.59948 16.2224C6.35033 16.4522 6.02371 16.5796 5.68477 16.5793H5.19942L5.19839 16.5795C5.12445 16.5807 5.04902 16.5888 4.97208 16.6035C4.31545 16.7303 3.87305 17.3581 3.87305 18.0268V18.5157C3.87305 19.161 4.2862 19.7698 4.9147 19.9165C5.05627 19.9495 5.19398 19.9589 5.3258 19.9484C5.66123 19.9216 5.95411 20.1657 6.01448 20.4968C6.58805 23.6402 9.33436 26.0243 12.6435 26.0243C13.1023 26.0243 13.5485 25.9743 13.9814 25.887C10.9076 25.2575 8.59552 22.5377 8.59552 19.2779Z" fill="#A5C8DF"/>
<path d="M4.12797 34.8298L1.6629 31.8718C0.896498 32.6553 0.455311 33.7276 0.503592 34.8669L0.874654 43.6217C0.905311 44.344 1.49978 44.9138 2.22278 44.9138H5.2225V37.8531C5.22255 36.7483 4.83524 35.6785 4.12797 34.8298ZM21.1595 34.8298L23.6246 31.8717C24.391 32.6553 24.8322 33.7275 24.7839 34.8668L24.4128 43.6216C24.3822 44.3439 23.7877 44.9137 23.0647 44.9137H20.065V37.853C20.065 36.7483 20.4523 35.6785 21.1595 34.8298ZM17.1687 27.8499C17.0422 27.7234 16.8706 27.6523 16.6916 27.6523C16.5127 27.6523 16.3411 27.7234 16.2146 27.8499L12.9532 31.1113C12.8711 31.1933 12.7598 31.2394 12.6437 31.2394C12.5277 31.2394 12.4164 31.1933 12.3343 31.1113L9.0729 27.8499C8.94637 27.7234 8.77478 27.6523 8.59586 27.6523C8.41694 27.6523 8.24534 27.7234 8.11881 27.8499L6.57194 29.3968L9.06822 33.4488C9.28534 33.8012 9.76562 33.8767 10.0805 33.608L11.5767 32.3313C11.7312 32.1995 11.9691 32.3093 11.9691 32.5124V44.9138H13.3185V32.5124C13.3185 32.3093 13.5564 32.1995 13.7109 32.3313L15.2071 33.608C15.522 33.8767 16.0022 33.8012 16.2194 33.4488L18.7157 29.3968L17.1687 27.8499Z" fill="#B4ACFF"/>
<path d="M7.34683 39.5161H9.84555C9.94727 39.5161 10.048 39.4961 10.142 39.4572C10.236 39.4182 10.3214 39.3612 10.3933 39.2893C10.4652 39.2173 10.5223 39.1319 10.5612 39.0379C10.6001 38.944 10.6201 38.8432 10.6201 38.7415V38.2668C10.6201 38.165 10.6001 38.0643 10.5612 37.9703C10.5223 37.8763 10.4652 37.7909 10.3933 37.719C10.3214 37.6471 10.236 37.59 10.142 37.5511C10.048 37.5122 9.94727 37.4922 9.84555 37.4922H7.34683C7.2451 37.4922 7.14437 37.5122 7.05039 37.5511C6.9564 37.59 6.871 37.6471 6.79907 37.719C6.72714 37.7909 6.67009 37.8763 6.63118 37.9703C6.59226 38.0643 6.57224 38.165 6.57227 38.2668V38.7415C6.57224 38.8432 6.59226 38.944 6.63118 39.0379C6.67009 39.1319 6.72714 39.2173 6.79907 39.2893C6.871 39.3612 6.9564 39.4182 7.05039 39.4572C7.14437 39.4961 7.2451 39.5161 7.34683 39.5161Z" fill="#6F6571"/>
</g>
<defs>
<linearGradient id="paint0_linear_3907_29361" x1="20.1631" y1="35.1429" x2="48.5001" y2="35.1429" gradientUnits="userSpaceOnUse">
<stop stop-color="#A298FF"/>
<stop offset="1" stop-color="#1700E8"/>
</linearGradient>
<linearGradient id="paint1_linear_3907_29361" x1="0.5" y1="37.155" x2="24.7875" y2="37.155" gradientUnits="userSpaceOnUse">
<stop stop-color="#A298FF"/>
<stop offset="1" stop-color="#1700E8"/>
</linearGradient>
<clipPath id="clip0_3907_29361">
<rect width="48" height="48" fill="white" transform="translate(0.5)"/>
</clipPath>
</defs>
</svg>
