<svg width="24" height="24" viewBox="0 0 24 24" fill="none" xmlns="http://www.w3.org/2000/svg">
<mask id="mask0_3907_15639" style="mask-type:luminance" maskUnits="userSpaceOnUse" x="0" y="0" width="24" height="24">
<path d="M0 7.05719e-05H23.9999V24H0V7.05719e-05Z" fill="white"/>
</mask>
<g mask="url(#mask0_3907_15639)">
<path d="M19.094 0.477406L19.1049 0.482422" stroke="#6B7280" stroke-width="0.7" stroke-miterlimit="10" stroke-linecap="round" stroke-linejoin="round"/>
<path d="M19.2712 0.574547L19.2798 0.580078" stroke="#6B7280" stroke-width="0.7" stroke-miterlimit="10" stroke-linecap="round" stroke-linejoin="round"/>
<path d="M23.1816 4.44383L23.1864 4.44922" stroke="#6B7280" stroke-width="0.7" stroke-miterlimit="10" stroke-linecap="round" stroke-linejoin="round"/>
<path d="M23.1699 4.43127L23.1747 4.43652" stroke="#6B7280" stroke-width="0.7" stroke-miterlimit="10" stroke-linecap="round" stroke-linejoin="round"/>
<path d="M23.2031 4.46824L23.2077 4.47363" stroke="#6B7280" stroke-width="0.7" stroke-miterlimit="10" stroke-linecap="round" stroke-linejoin="round"/>
<path d="M23.2139 4.48084L23.2184 4.48633" stroke="#6B7280" stroke-width="0.7" stroke-miterlimit="10" stroke-linecap="round" stroke-linejoin="round"/>
<path d="M23.1475 4.4077L23.1516 4.41211" stroke="#6B7280" stroke-width="0.7" stroke-miterlimit="10" stroke-linecap="round" stroke-linejoin="round"/>
<path d="M23.1924 4.45634L23.1972 4.46191" stroke="#6B7280" stroke-width="0.7" stroke-miterlimit="10" stroke-linecap="round" stroke-linejoin="round"/>
<path d="M19.4592 0.719453L19.4649 0.724609" stroke="#6B7280" stroke-width="0.7" stroke-miterlimit="10" stroke-linecap="round" stroke-linejoin="round"/>
<path d="M19.4473 0.708664L19.4531 0.713867" stroke="#6B7280" stroke-width="0.7" stroke-miterlimit="10" stroke-linecap="round" stroke-linejoin="round"/>
<path d="M23.3582 4.69411L23.3642 4.70508" stroke="#6B7280" stroke-width="0.7" stroke-miterlimit="10" stroke-linecap="round" stroke-linejoin="round"/>
<path d="M19.4844 0.74318L19.4884 0.74707" stroke="#6B7280" stroke-width="0.7" stroke-miterlimit="10" stroke-linecap="round" stroke-linejoin="round"/>
<path d="M23.1365 4.39553L23.1393 4.39844" stroke="#6B7280" stroke-width="0.7" stroke-miterlimit="10" stroke-linecap="round" stroke-linejoin="round"/>
<path d="M23.1592 4.41881L23.1638 4.42383" stroke="#6B7280" stroke-width="0.7" stroke-miterlimit="10" stroke-linecap="round" stroke-linejoin="round"/>
<path d="M23.3037 4.60415L23.3091 4.6123" stroke="#6B7280" stroke-width="0.7" stroke-miterlimit="10" stroke-linecap="round" stroke-linejoin="round"/>
<path d="M23.2952 4.59066L23.3005 4.59863" stroke="#6B7280" stroke-width="0.7" stroke-miterlimit="10" stroke-linecap="round" stroke-linejoin="round"/>
<path d="M23.3127 4.61759L23.3181 4.62598" stroke="#6B7280" stroke-width="0.7" stroke-miterlimit="10" stroke-linecap="round" stroke-linejoin="round"/>
<path d="M23.2354 4.50871L23.2385 4.5127" stroke="#6B7280" stroke-width="0.7" stroke-miterlimit="10" stroke-linecap="round" stroke-linejoin="round"/>
<path d="M23.248 4.52539L23.2525 4.53125" stroke="#6B7280" stroke-width="0.7" stroke-miterlimit="10" stroke-linecap="round" stroke-linejoin="round"/>
<path d="M23.2578 4.5378L23.2631 4.54492" stroke="#6B7280" stroke-width="0.7" stroke-miterlimit="10" stroke-linecap="round" stroke-linejoin="round"/>
<path d="M23.2246 4.49382L23.2288 4.49902" stroke="#6B7280" stroke-width="0.7" stroke-miterlimit="10" stroke-linecap="round" stroke-linejoin="round"/>
<path d="M23.2673 4.55086L23.2729 4.55859" stroke="#6B7280" stroke-width="0.7" stroke-miterlimit="10" stroke-linecap="round" stroke-linejoin="round"/>
<path d="M23.3652 4.70769L23.3711 4.71875" stroke="#6B7280" stroke-width="0.7" stroke-miterlimit="10" stroke-linecap="round" stroke-linejoin="round"/>
<path d="M23.2773 4.56398L23.2825 4.57129" stroke="#6B7280" stroke-width="0.7" stroke-miterlimit="10" stroke-linecap="round" stroke-linejoin="round"/>
<path d="M19.4714 0.731453L19.4765 0.736328" stroke="#6B7280" stroke-width="0.7" stroke-miterlimit="10" stroke-linecap="round" stroke-linejoin="round"/>
<path d="M19.2986 0.592313L19.3064 0.597656" stroke="#6B7280" stroke-width="0.7" stroke-miterlimit="10" stroke-linecap="round" stroke-linejoin="round"/>
<path d="M19.2578 0.565477L19.267 0.571289" stroke="#6B7280" stroke-width="0.7" stroke-miterlimit="10" stroke-linecap="round" stroke-linejoin="round"/>
<path d="M19.1797 0.519625L19.1903 0.525391" stroke="#6B7280" stroke-width="0.7" stroke-miterlimit="10" stroke-linecap="round" stroke-linejoin="round"/>
<path d="M19.2852 0.583523L19.2931 0.588867" stroke="#6B7280" stroke-width="0.7" stroke-miterlimit="10" stroke-linecap="round" stroke-linejoin="round"/>
<path d="M5.2041 21.135V22.2616C5.2041 23.0281 5.82543 23.6494 6.59188 23.6494H16.1051" stroke="#6B7280" stroke-width="0.7" stroke-miterlimit="10" stroke-linecap="round" stroke-linejoin="round"/>
<path d="M19.2441 0.557617L19.2536 0.563477" stroke="#6B7280" stroke-width="0.7" stroke-miterlimit="10" stroke-linecap="round" stroke-linejoin="round"/>
<path d="M19.1377 0.497914L19.1477 0.50293" stroke="#6B7280" stroke-width="0.7" stroke-miterlimit="10" stroke-linecap="round" stroke-linejoin="round"/>
<path d="M19.123 0.491078L19.1333 0.496094" stroke="#6B7280" stroke-width="0.7" stroke-miterlimit="10" stroke-linecap="round" stroke-linejoin="round"/>
<path d="M19.1516 0.505398L19.162 0.510742" stroke="#6B7280" stroke-width="0.7" stroke-miterlimit="10" stroke-linecap="round" stroke-linejoin="round"/>
<path d="M16.1051 23.6494H22.1431C22.9096 23.6494 23.5309 23.0281 23.5309 22.2616V5.36489C23.5309 5.16657 23.4884 4.97056 23.4062 4.79006H19.9538C19.4787 4.79006 19.0935 4.40485 19.0935 3.92968V0.477295C18.913 0.39513 18.7169 0.352612 18.5186 0.352608H6.59188C5.82543 0.352608 5.2041 0.973935 5.2041 1.74039V5.33948M15.1879 4.38553C15.1879 4.49282 15.1453 4.59572 15.0694 4.67158C14.9935 4.74744 14.8906 4.79006 14.7834 4.79006H7.80898C7.7017 4.79005 7.59882 4.74743 7.52297 4.67156C7.44711 4.5957 7.4045 4.49281 7.4045 4.38553V3.03821C7.4045 2.93093 7.44711 2.82804 7.52297 2.75218C7.59882 2.67632 7.7017 2.63369 7.80898 2.63368H14.7834C14.8906 2.63368 14.9935 2.6763 15.0694 2.75216C15.1453 2.82803 15.1879 2.93092 15.1879 3.03821V4.38553Z" stroke="#6B7280" stroke-width="0.7" stroke-miterlimit="10" stroke-linecap="round" stroke-linejoin="round"/>
<path d="M19.165 0.511953L19.1756 0.517578" stroke="#6B7280" stroke-width="0.7" stroke-miterlimit="10" stroke-linecap="round" stroke-linejoin="round"/>
<path d="M19.3125 0.601102L19.3201 0.606445" stroke="#6B7280" stroke-width="0.7" stroke-miterlimit="10" stroke-linecap="round" stroke-linejoin="round"/>
<path d="M19.3711 0.645523L19.3761 0.649414" stroke="#6B7280" stroke-width="0.7" stroke-miterlimit="10" stroke-linecap="round" stroke-linejoin="round"/>
<path d="M19.1084 0.484477L19.1184 0.489258" stroke="#6B7280" stroke-width="0.7" stroke-miterlimit="10" stroke-linecap="round" stroke-linejoin="round"/>
<path d="M19.3975 0.666117L19.4033 0.670898" stroke="#6B7280" stroke-width="0.7" stroke-miterlimit="10" stroke-linecap="round" stroke-linejoin="round"/>
<path d="M19.4092 0.676578L19.4152 0.681641" stroke="#6B7280" stroke-width="0.7" stroke-miterlimit="10" stroke-linecap="round" stroke-linejoin="round"/>
<path d="M19.4219 0.687086L19.428 0.692383" stroke="#6B7280" stroke-width="0.7" stroke-miterlimit="10" stroke-linecap="round" stroke-linejoin="round"/>
<path d="M19.3252 0.61068L19.3329 0.616211" stroke="#6B7280" stroke-width="0.7" stroke-miterlimit="10" stroke-linecap="round" stroke-linejoin="round"/>
<path d="M19.3513 0.63007L19.3589 0.635742" stroke="#6B7280" stroke-width="0.7" stroke-miterlimit="10" stroke-linecap="round" stroke-linejoin="round"/>
<path d="M23.3877 4.74973L23.3931 4.76074" stroke="#6B7280" stroke-width="0.7" stroke-miterlimit="10" stroke-linecap="round" stroke-linejoin="round"/>
<path d="M19.3379 0.620352L19.3455 0.625977" stroke="#6B7280" stroke-width="0.7" stroke-miterlimit="10" stroke-linecap="round" stroke-linejoin="round"/>
<path d="M19.9541 4.79004H23.4065L23.4007 4.77738L23.3999 4.7756L23.3943 4.76393L23.3929 4.76107L23.3875 4.75001L23.3859 4.74682L23.3805 4.73604C23.3799 4.73488 23.3793 4.7337 23.3787 4.73248L23.3731 4.72179L23.3716 4.71884L23.3657 4.70777L23.3642 4.70491L23.3582 4.6939L23.3568 4.69146C23.3472 4.67402 23.3371 4.65678 23.3267 4.63976L23.3209 4.63038L23.318 4.62584L23.3127 4.61745L23.3093 4.6122C23.3035 4.60306 23.2975 4.59399 23.2913 4.58501L23.2862 4.57756C23.2848 4.57549 23.2834 4.57345 23.282 4.57141L23.2769 4.56415L23.2729 4.55857L23.2674 4.55084L23.2632 4.54512L23.2579 4.53799L23.2526 4.53087L23.2482 4.52506L23.2385 4.51235L23.2353 4.50837L23.2283 4.49951L23.2241 4.49426L23.218 4.48676L23.2135 4.48132L23.2075 4.47406L23.2029 4.46867L23.1969 4.46154L23.1921 4.45596L23.1861 4.44902L23.1813 4.44363L23.1703 4.4314L23.1638 4.42427L23.1592 4.41926L23.152 4.41167L23.1479 4.40726L23.1393 4.3984L23.1365 4.39549C23.1326 4.39149 23.1287 4.38752 23.1247 4.38359L19.5002 0.759082C19.4963 0.755145 19.4924 0.75127 19.4884 0.747458L19.4845 0.743567L19.4767 0.736067L19.4716 0.731239L19.4647 0.724817L19.4591 0.719661C19.457 0.717661 19.4548 0.715676 19.4526 0.713708L19.4469 0.708458L19.4404 0.702739L19.4345 0.697489L19.4282 0.691958L19.422 0.686661L19.4155 0.681177L19.4095 0.676114L19.4028 0.670489L19.397 0.665708L19.3899 0.659989L19.3841 0.655302L19.3764 0.649208L19.3714 0.645317C19.3672 0.642067 19.3631 0.638864 19.3589 0.635708L19.3513 0.629989L19.346 0.626005L19.3383 0.62038L19.333 0.616395L19.3197 0.606927L19.312 0.601583L19.3065 0.597739C19.3039 0.595927 19.3013 0.594145 19.2987 0.592395L19.2931 0.588646L19.2852 0.583302L19.2799 0.57988L19.2714 0.574302L19.267 0.571489L19.2578 0.565677L19.2536 0.563052L19.2441 0.557146L19.2413 0.555458C19.2252 0.545646 19.2089 0.536146 19.1923 0.526958L19.1899 0.525599C19.1864 0.52363 19.1828 0.521708 19.1793 0.519833L19.1758 0.517911L19.1652 0.512333L19.1619 0.510552L19.1515 0.505208L19.1474 0.503052L19.1373 0.498036L19.1334 0.496067L19.1231 0.491052L19.1188 0.48899L19.1088 0.484208L19.1048 0.48238L19.0939 0.477365L19.0938 0.477271V3.92965C19.0938 4.40482 19.479 4.79004 19.9541 4.79004Z" stroke="#6B7280" stroke-width="0.7" stroke-miterlimit="10" stroke-linecap="round" stroke-linejoin="round"/>
<path d="M10.9453 18.3263L12.0438 19.4248L13.1113 18.3574L12.0127 17.2589C11.8562 17.4566 11.6883 17.6451 11.5098 17.8234C11.3315 18.0018 11.1431 18.1697 10.9453 18.3263Z" stroke="#6B7280" stroke-width="0.7" stroke-miterlimit="10" stroke-linecap="round" stroke-linejoin="round"/>
<path d="M16.9753 21.5485L13.7792 18.3524C13.596 18.1692 13.2991 18.1692 13.116 18.3524L12.0388 19.4296C11.8556 19.6127 11.8556 19.9097 12.0388 20.0928L15.2349 23.2889C15.349 23.4034 15.4847 23.4942 15.634 23.556C15.7834 23.6179 15.9435 23.6496 16.1051 23.6494C16.2668 23.6496 16.4269 23.6179 16.5762 23.556C16.7255 23.4942 16.8612 23.4034 16.9753 23.2889C17.4559 22.8083 17.4559 22.0291 16.9753 21.5485Z" stroke="#6B7280" stroke-width="0.7" stroke-miterlimit="10" stroke-linecap="round" stroke-linejoin="round"/>
<path d="M10.9454 18.326C11.1432 18.1694 11.3316 18.0015 11.5099 17.823C11.6884 17.6448 11.8563 17.4563 12.0128 17.2585C14.0233 14.7194 13.8557 11.0203 11.5099 8.67461C9.80214 6.96677 7.37702 6.41351 5.20437 7.01472C4.16318 7.30286 3.17994 7.85618 2.3615 8.67461C-0.164772 11.2009 -0.164772 15.2968 2.3615 17.823C3.17994 18.6415 4.16318 19.1948 5.20437 19.483C7.14733 20.0206 9.29218 19.6349 10.9454 18.326Z" stroke="#6B7280" stroke-width="0.7" stroke-miterlimit="10" stroke-linecap="round" stroke-linejoin="round"/>
<path d="M14.7832 2.63366H7.80883C7.70154 2.63366 7.59864 2.67628 7.52278 2.75214C7.44692 2.828 7.4043 2.9309 7.4043 3.03819V4.38551C7.4043 4.4928 7.44692 4.59569 7.52278 4.67155C7.59864 4.74742 7.70154 4.79004 7.80883 4.79004H14.7832C14.8904 4.79004 14.9933 4.74742 15.0692 4.67155C15.1451 4.59569 15.1877 4.4928 15.1877 4.38551V3.03819C15.1877 2.9309 15.1451 2.828 15.0692 2.75214C14.9933 2.67628 14.8904 2.63366 14.7832 2.63366Z" stroke="#6B7280" stroke-width="0.7" stroke-miterlimit="10" stroke-linecap="round" stroke-linejoin="round"/>
<path d="M1.92773 12.479C2.08523 11.4495 2.5604 10.4593 3.35329 9.66642C5.33207 7.6876 8.54037 7.6876 10.5192 9.66642C12.498 11.6452 12.498 14.8535 10.5192 16.8323C8.54037 18.8111 5.33207 18.8111 3.35329 16.8323C2.58679 16.0658 2.1172 15.1149 1.94452 14.1224" stroke="#6B7280" stroke-width="0.7" stroke-miterlimit="10" stroke-linecap="round" stroke-linejoin="round"/>
<path d="M10.2876 17.0488C10.2952 16.5644 10.0261 16.1504 9.58163 15.9547C9.17251 15.7746 8.40015 15.6607 8.01995 15.613L8.01765 15.6158C7.44728 16.3293 6.36334 16.3325 5.7888 15.6224C5.40897 15.6733 4.6376 15.7938 4.23002 15.9773C3.80641 16.1681 3.56257 16.5851 3.55371 17.0227" stroke="#6B7280" stroke-width="0.7" stroke-miterlimit="10" stroke-linecap="round" stroke-linejoin="round"/>
<path d="M8.99235 11.8016V11.2269C8.99235 10.9451 8.76393 10.7167 8.48222 10.7167H8.46501C8.41933 10.7167 8.37552 10.6986 8.34322 10.6663C8.31091 10.634 8.29276 10.5902 8.29275 10.5445C8.29275 10.2627 8.06437 10.0343 7.78261 10.0343H6.0856C5.40352 10.0343 4.85059 10.5873 4.85059 11.2694V12.1885" stroke="#6B7280" stroke-width="0.7" stroke-miterlimit="10" stroke-linecap="round" stroke-linejoin="round"/>
<path d="M8.99235 11.8015L8.18306 11.7256C7.83965 11.6934 7.49506 11.7734 7.20094 11.9536C6.95016 12.1071 6.66181 12.1884 6.36774 12.1884H4.85059V12.9212C4.85059 12.9925 4.87888 13.0608 4.92925 13.1112C4.97963 13.1615 5.04794 13.1898 5.11918 13.1898C5.16526 13.1898 5.20402 13.2254 5.20688 13.2714C5.26262 14.1701 6.00872 14.8818 6.92147 14.8818C7.83506 14.8818 8.58168 14.1688 8.63409 13.269C8.63549 13.2475 8.64504 13.2273 8.6608 13.2126C8.67656 13.1979 8.69733 13.1897 8.71889 13.1898H8.72325C8.87409 13.1898 8.9961 13.0675 8.99507 12.917C8.99235 12.5127 8.99235 11.8015 8.99235 11.8015Z" stroke="#6B7280" stroke-width="0.7" stroke-miterlimit="10" stroke-linecap="round" stroke-linejoin="round"/>
<path d="M8.01759 15.6162L8.01984 15.6134C7.95823 15.6057 7.90153 15.5758 7.86034 15.5293C7.81914 15.4829 7.79628 15.423 7.79602 15.3609L7.79297 14.6445" stroke="#6B7280" stroke-width="0.7" stroke-miterlimit="10" stroke-linecap="round" stroke-linejoin="round"/>
<path d="M6.00764 14.619L6.01078 15.3678C6.01104 15.4299 5.98868 15.4899 5.94787 15.5367C5.90706 15.5835 5.85061 15.6139 5.78906 15.6221" stroke="#6B7280" stroke-width="0.7" stroke-miterlimit="10" stroke-linecap="round" stroke-linejoin="round"/>
</g>
</svg>
