<svg width="33" height="32" viewBox="0 0 33 32" fill="none" xmlns="http://www.w3.org/2000/svg">
<path fill-rule="evenodd" clip-rule="evenodd" d="M8.1846 2.66663C5.50525 2.66663 3.32667 4.84518 3.32667 7.52456V10.3415C3.32667 11.1305 3.96628 11.7701 4.75524 11.7701C5.54421 11.7701 6.1838 11.1305 6.1838 10.3415V7.52456C6.1838 6.42202 7.08208 5.52376 8.1846 5.52376H11.0016C11.7905 5.52376 12.4301 4.88417 12.4301 4.09519C12.4301 3.30624 11.7905 2.66663 11.0016 2.66663H8.1846ZM22.3184 2.66663C21.5294 2.66663 20.8899 3.30626 20.8899 4.09519C20.8899 4.88415 21.5294 5.52376 22.3184 5.52376H25.1354C26.238 5.52376 27.1362 6.42202 27.1362 7.52456V10.3415C27.1362 11.1305 27.7758 11.7701 28.5648 11.7701C29.3538 11.7701 29.9933 11.1305 29.9933 10.3415V7.52456C29.9933 4.84518 27.8148 2.66663 25.1354 2.66663H22.3184ZM4.75524 20.2298C3.9663 20.2298 3.32667 20.8694 3.32667 21.6584V24.4754C3.32667 27.1547 5.50525 29.3333 8.1846 29.3333H11.0016C11.7905 29.3333 12.4301 28.6937 12.4301 27.9047C12.4301 27.1157 11.7905 26.4762 11.0016 26.4762H8.1846C7.08209 26.4762 6.1838 25.5779 6.1838 24.4754V21.6584C6.1838 20.8694 5.54419 20.2298 4.75524 20.2298ZM28.5648 20.2298C27.7758 20.2298 27.1362 20.8694 27.1362 21.6584V24.4754C27.1362 25.5779 26.2379 26.4762 25.1354 26.4762H22.3184C21.5294 26.4762 20.8899 27.1158 20.8899 27.9047C20.8899 28.6937 21.5294 29.3333 22.3184 29.3333H25.1354C27.8148 29.3333 29.9933 27.1547 29.9933 24.4754V21.6584C29.9933 20.8694 29.3538 20.2298 28.5648 20.2298Z" fill="black"/>
<path d="M11.2973 10.7335C10.8442 10.7335 10.4769 11.1009 10.4769 11.554V13.5345C10.4769 13.9876 10.8442 14.3549 11.2973 14.3549C11.7505 14.3549 12.1178 13.9876 12.1178 13.5345V11.554C12.1178 11.1009 11.7505 10.7335 11.2973 10.7335Z" fill="black"/>
<path d="M16.4954 11.5926C16.4954 11.1181 16.8801 10.7335 17.3544 10.7335C17.8289 10.7335 18.2135 11.1181 18.2135 11.5926V16.5309C18.2135 17.6003 17.3437 18.4701 16.2742 18.4701H15.7083C15.2339 18.4701 14.8493 18.0856 14.8493 17.6111C14.8493 17.1367 15.2339 16.752 15.7083 16.752H16.2742C16.396 16.752 16.4954 16.6527 16.4954 16.5309V11.5926Z" fill="black"/>
<path d="M22.1771 10.7335C21.7239 10.7335 21.3565 11.1009 21.3565 11.554V13.5345C21.3565 13.9876 21.7239 14.3549 22.1771 14.3549C22.6301 14.3549 22.9975 13.9876 22.9975 13.5345V11.554C22.9975 11.1009 22.6301 10.7335 22.1771 10.7335Z" fill="black"/>
<path d="M20.2209 19.9894C20.5695 19.6674 21.1129 19.689 21.4348 20.0375C21.7568 20.386 21.7352 20.9295 21.3867 21.2515C20.0963 22.4433 18.4176 23.0997 16.6601 23.0997C14.9026 23.0997 13.2238 22.4433 11.9334 21.2515C11.5849 20.9295 11.5634 20.386 11.8853 20.0375C12.2072 19.689 12.7507 19.6674 13.0992 19.9894C14.0713 20.8872 15.3357 21.3817 16.6601 21.3817C17.9844 21.3817 19.2489 20.8872 20.2209 19.9894Z" fill="black"/>
<path d="M11.2973 10.7335C10.8442 10.7335 10.4769 11.1009 10.4769 11.554V13.5345C10.4769 13.9876 10.8442 14.3549 11.2973 14.3549C11.7505 14.3549 12.1178 13.9876 12.1178 13.5345V11.554C12.1178 11.1009 11.7505 10.7335 11.2973 10.7335Z" stroke="black" stroke-width="0.4"/>
<path d="M16.4954 11.5926C16.4954 11.1181 16.8801 10.7335 17.3544 10.7335C17.8289 10.7335 18.2135 11.1181 18.2135 11.5926V16.5309C18.2135 17.6003 17.3437 18.4701 16.2742 18.4701H15.7083C15.2339 18.4701 14.8493 18.0856 14.8493 17.6111C14.8493 17.1367 15.2339 16.752 15.7083 16.752H16.2742C16.396 16.752 16.4954 16.6527 16.4954 16.5309V11.5926Z" stroke="black" stroke-width="0.4"/>
<path d="M22.1771 10.7335C21.7239 10.7335 21.3565 11.1009 21.3565 11.554V13.5345C21.3565 13.9876 21.7239 14.3549 22.1771 14.3549C22.6301 14.3549 22.9975 13.9876 22.9975 13.5345V11.554C22.9975 11.1009 22.6301 10.7335 22.1771 10.7335Z" stroke="black" stroke-width="0.4"/>
<path d="M20.2209 19.9894C20.5695 19.6674 21.1129 19.689 21.4348 20.0375C21.7568 20.386 21.7352 20.9295 21.3867 21.2515C20.0963 22.4433 18.4176 23.0997 16.6601 23.0997C14.9026 23.0997 13.2238 22.4433 11.9334 21.2515C11.5849 20.9295 11.5634 20.386 11.8853 20.0375C12.2072 19.689 12.7507 19.6674 13.0992 19.9894C14.0713 20.8872 15.3357 21.3817 16.6601 21.3817C17.9844 21.3817 19.2489 20.8872 20.2209 19.9894Z" stroke="black" stroke-width="0.4"/>
</svg>
