<svg width="20" height="21" viewBox="0 0 20 21" fill="none" xmlns="http://www.w3.org/2000/svg">
<path d="M7.49967 4.66676C7.27866 4.66676 7.0667 4.75455 6.91042 4.91083C6.75414 5.06711 6.66634 5.27908 6.66634 5.50009C6.66634 5.7211 6.75414 5.93306 6.91042 6.08934C7.0667 6.24562 7.27866 6.33342 7.49967 6.33342C7.72069 6.33342 7.93265 6.24562 8.08893 6.08934C8.24521 5.93306 8.33301 5.7211 8.33301 5.50009C8.33301 5.27908 8.24521 5.06711 8.08893 4.91083C7.93265 4.75455 7.72069 4.66676 7.49967 4.66676ZM5.14134 4.66676C5.31351 4.17881 5.63279 3.75628 6.05517 3.45741C6.47756 3.15854 6.98225 2.99805 7.49967 2.99805C8.0171 2.99805 8.52179 3.15854 8.94417 3.45741C9.36656 3.75628 9.68584 4.17881 9.85801 4.66676H15.833C16.054 4.66676 16.266 4.75455 16.4223 4.91083C16.5785 5.06711 16.6663 5.27908 16.6663 5.50009C16.6663 5.7211 16.5785 5.93306 16.4223 6.08934C16.266 6.24562 16.054 6.33342 15.833 6.33342H9.85801C9.68584 6.82137 9.36656 7.24389 8.94417 7.54276C8.52179 7.84163 8.0171 8.00213 7.49967 8.00213C6.98225 8.00213 6.47756 7.84163 6.05517 7.54276C5.63279 7.24389 5.31351 6.82137 5.14134 6.33342H4.16634C3.94533 6.33342 3.73337 6.24562 3.57709 6.08934C3.42081 5.93306 3.33301 5.7211 3.33301 5.50009C3.33301 5.27908 3.42081 5.06711 3.57709 4.91083C3.73337 4.75455 3.94533 4.66676 4.16634 4.66676H5.14134ZM12.4997 9.66676C12.2787 9.66676 12.0667 9.75455 11.9104 9.91083C11.7541 10.0671 11.6663 10.2791 11.6663 10.5001C11.6663 10.7211 11.7541 10.9331 11.9104 11.0893C12.0667 11.2456 12.2787 11.3334 12.4997 11.3334C12.7207 11.3334 12.9326 11.2456 13.0889 11.0893C13.2452 10.9331 13.333 10.7211 13.333 10.5001C13.333 10.2791 13.2452 10.0671 13.0889 9.91083C12.9326 9.75455 12.7207 9.66676 12.4997 9.66676ZM10.1413 9.66676C10.3135 9.17881 10.6328 8.75628 11.0552 8.45741C11.4776 8.15854 11.9822 7.99805 12.4997 7.99805C13.0171 7.99805 13.5218 8.15854 13.9442 8.45741C14.3666 8.75628 14.6858 9.17881 14.858 9.66676H15.833C16.054 9.66676 16.266 9.75455 16.4223 9.91083C16.5785 10.0671 16.6663 10.2791 16.6663 10.5001C16.6663 10.7211 16.5785 10.9331 16.4223 11.0893C16.266 11.2456 16.054 11.3334 15.833 11.3334H14.858C14.6858 11.8214 14.3666 12.2439 13.9442 12.5428C13.5218 12.8416 13.0171 13.0021 12.4997 13.0021C11.9822 13.0021 11.4776 12.8416 11.0552 12.5428C10.6328 12.2439 10.3135 11.8214 10.1413 11.3334H4.16634C3.94533 11.3334 3.73337 11.2456 3.57709 11.0893C3.42081 10.9331 3.33301 10.7211 3.33301 10.5001C3.33301 10.2791 3.42081 10.0671 3.57709 9.91083C3.73337 9.75455 3.94533 9.66676 4.16634 9.66676H10.1413ZM7.49967 14.6668C7.27866 14.6668 7.0667 14.7546 6.91042 14.9108C6.75414 15.0671 6.66634 15.2791 6.66634 15.5001C6.66634 15.7211 6.75414 15.9331 6.91042 16.0893C7.0667 16.2456 7.27866 16.3334 7.49967 16.3334C7.72069 16.3334 7.93265 16.2456 8.08893 16.0893C8.24521 15.9331 8.33301 15.7211 8.33301 15.5001C8.33301 15.2791 8.24521 15.0671 8.08893 14.9108C7.93265 14.7546 7.72069 14.6668 7.49967 14.6668ZM5.14134 14.6668C5.31351 14.1788 5.63279 13.7563 6.05517 13.4574C6.47756 13.1585 6.98225 12.998 7.49967 12.998C8.0171 12.998 8.52179 13.1585 8.94417 13.4574C9.36656 13.7563 9.68584 14.1788 9.85801 14.6668H15.833C16.054 14.6668 16.266 14.7546 16.4223 14.9108C16.5785 15.0671 16.6663 15.2791 16.6663 15.5001C16.6663 15.7211 16.5785 15.9331 16.4223 16.0893C16.266 16.2456 16.054 16.3334 15.833 16.3334H9.85801C9.68584 16.8214 9.36656 17.2439 8.94417 17.5428C8.52179 17.8416 8.0171 18.0021 7.49967 18.0021C6.98225 18.0021 6.47756 17.8416 6.05517 17.5428C5.63279 17.2439 5.31351 16.8214 5.14134 16.3334H4.16634C3.94533 16.3334 3.73337 16.2456 3.57709 16.0893C3.42081 15.9331 3.33301 15.7211 3.33301 15.5001C3.33301 15.2791 3.42081 15.0671 3.57709 14.9108C3.73337 14.7546 3.94533 14.6668 4.16634 14.6668H5.14134Z" fill="black"/>
</svg>
