<svg xmlns="http://www.w3.org/2000/svg" width="23" height="30"
    viewBox="0 0 23 30" fill="none">
    <path
        d="M12.16 18.0938C12.16 19.3721 11.9183 20.5752 11.4349 21.7031C10.9515 22.8311 10.2855 23.814 9.43686 24.6519C8.58823 25.4897 7.60532 26.1504 6.48813 26.6338C5.37094 27.1172 4.16782 27.3643 2.87875 27.375C2.59946 27.375 2.35776 27.2729 2.15366 27.0688C1.94955 26.8647 1.8475 26.623 1.8475 26.3438C1.8475 26.0645 1.94955 25.8228 2.15366 25.6187C2.35776 25.4146 2.59946 25.3125 2.87875 25.3125C3.87778 25.3125 4.81235 25.1245 5.68246 24.7485C6.55258 24.3726 7.31528 23.8569 7.97055 23.2017C8.62582 22.5464 9.14145 21.7837 9.51743 20.9136C9.8934 20.0435 10.0868 19.1035 10.0975 18.0938C10.0975 17.8145 10.1996 17.5728 10.4037 17.3687C10.6078 17.1646 10.8495 17.0625 11.1288 17.0625C11.4081 17.0625 11.6497 17.1646 11.8539 17.3687C12.058 17.5728 12.16 17.8145 12.16 18.0938ZM11.1288 2.625C9.72153 2.625 8.3895 2.7915 7.13266 3.12451C5.87582 3.45752 4.61899 3.93555 3.36215 4.55859C3.19028 4.64453 3.02914 4.6875 2.87875 4.6875C2.59946 4.6875 2.35776 4.58545 2.15366 4.38135C1.94955 4.17725 1.8475 3.93555 1.8475 3.65625C1.8475 3.25879 2.03012 2.95801 2.39536 2.75391C3.0184 2.38867 3.68979 2.07178 4.40952 1.80322C5.12924 1.53467 5.86508 1.30371 6.61703 1.11035C7.36899 0.916992 8.13168 0.782715 8.90512 0.70752C9.67856 0.632324 10.4198 0.583984 11.1288 0.5625C11.8485 0.5625 12.5897 0.605469 13.3524 0.691406C14.1151 0.777344 14.8724 0.916992 15.6244 1.11035C16.3763 1.30371 17.1122 1.5293 17.8319 1.78711C18.5516 2.04492 19.2284 2.36719 19.8622 2.75391C20.2274 2.95801 20.41 3.25342 20.41 3.64014C20.41 3.93018 20.3133 4.17725 20.12 4.38135C19.9266 4.58545 19.6795 4.6875 19.3788 4.6875C19.2713 4.6875 19.1854 4.68213 19.1209 4.67139C19.0565 4.66064 18.9813 4.62305 18.8954 4.55859C17.66 3.9248 16.4085 3.44678 15.141 3.12451C13.8734 2.80225 12.536 2.63574 11.1288 2.625ZM11.1288 4.6875C12.3319 4.6875 13.5081 4.84326 14.6576 5.15479C15.807 5.46631 16.8973 5.92822 17.9286 6.54053C18.3905 6.81982 18.8524 7.13672 19.3143 7.49121C19.7762 7.8457 20.222 8.23242 20.6517 8.65137C21.0814 9.07031 21.4681 9.51074 21.8119 9.97266C22.1556 10.4346 22.4671 10.9072 22.7464 11.3906C22.8324 11.5625 22.8753 11.729 22.8753 11.8901C22.8753 12.1802 22.7733 12.4272 22.5692 12.6313C22.3651 12.8354 22.1234 12.9375 21.8441 12.9375C21.64 12.9375 21.4681 12.8945 21.3285 12.8086C21.1888 12.7227 21.0653 12.5938 20.9579 12.4219C20.743 12.0889 20.5282 11.7666 20.3133 11.4551C20.0985 11.1436 19.8568 10.8428 19.5882 10.5527C19.0511 9.95117 18.4603 9.41406 17.8158 8.94141C17.1712 8.46875 16.4891 8.07129 15.7694 7.74902C15.0497 7.42676 14.2977 7.17969 13.5135 7.00781C12.7293 6.83594 11.9344 6.75 11.1288 6.75C9.82895 6.75 8.57211 6.96484 7.35825 7.39453C6.14438 7.82422 5.03256 8.44727 4.0228 9.26367C3.77573 9.45703 3.54477 9.66113 3.32993 9.87598C3.11508 10.0908 2.89487 10.311 2.66928 10.5366C2.55112 10.6548 2.43832 10.7407 2.3309 10.7944C2.22348 10.8481 2.08383 10.875 1.91196 10.875C1.62192 10.875 1.38022 10.7729 1.18686 10.5688C0.9935 10.3647 0.891449 10.123 0.880707 9.84375C0.880707 9.7041 0.902191 9.58057 0.94516 9.47314C0.988129 9.36572 1.05258 9.2583 1.13852 9.15088C1.39633 8.81787 1.70248 8.49561 2.05698 8.18408C2.41147 7.87256 2.78207 7.57715 3.16879 7.29785C3.55551 7.01855 3.95834 6.76074 4.37729 6.52441C4.79623 6.28809 5.1937 6.07861 5.56967 5.896C6.43979 5.48779 7.34213 5.18701 8.2767 4.99365C9.21127 4.80029 10.162 4.69824 11.1288 4.6875ZM11.1288 8.8125C12.4071 8.8125 13.6102 9.0542 14.7381 9.5376C15.8661 10.021 16.849 10.687 17.6869 11.5356C18.5247 12.3843 19.1854 13.3672 19.6688 14.4844C20.1522 15.6016 20.3993 16.8047 20.41 18.0938C20.41 19.1035 20.3294 20.1025 20.1683 21.0908C20.0072 22.0791 19.7494 23.0513 19.3949 24.0073C19.2552 24.394 19.0833 24.8184 18.8792 25.2803C18.6751 25.7422 18.4442 26.1987 18.1864 26.6499C17.9286 27.1011 17.6654 27.5415 17.3968 27.9712C17.1283 28.4009 16.8543 28.7607 16.575 29.0508C16.4569 29.1689 16.3387 29.2603 16.2206 29.3247C16.1024 29.3892 15.952 29.4268 15.7694 29.4375C15.4901 29.4375 15.2484 29.3408 15.0443 29.1475C14.8402 28.9541 14.7381 28.707 14.7381 28.4062C14.7381 28.1807 14.8133 27.9658 14.9637 27.7617C15.1678 27.4824 15.3665 27.2085 15.5599 26.9399C15.7533 26.6714 15.9413 26.3867 16.1239 26.0859C16.8651 24.8721 17.4183 23.5938 17.7835 22.251C18.1488 20.9082 18.3368 19.5225 18.3475 18.0938C18.3475 17.0947 18.1595 16.1602 17.7835 15.29C17.4076 14.4199 16.8919 13.6572 16.2367 13.002C15.5814 12.3467 14.8187 11.8311 13.9486 11.4551C13.0785 11.0791 12.1385 10.8857 11.1288 10.875C10.1297 10.875 9.19516 11.063 8.32504 11.439C7.45493 11.8149 6.69223 12.3306 6.03696 12.9858C5.38168 13.6411 4.86606 14.4038 4.49008 15.2739C4.11411 16.144 3.92075 17.084 3.91 18.0938C3.91 18.373 3.80795 18.6147 3.60385 18.8188C3.39975 19.0229 3.15805 19.125 2.87875 19.125C2.59946 19.125 2.35776 19.0229 2.15366 18.8188C1.94955 18.6147 1.8475 18.373 1.8475 18.0938C1.8475 16.8154 2.0892 15.6123 2.5726 14.4844C3.056 13.3564 3.72202 12.3735 4.57065 11.5356C5.41928 10.6978 6.40219 10.0371 7.51938 9.55371C8.63657 9.07031 9.83969 8.82324 11.1288 8.8125ZM11.1288 12.9375C11.8377 12.9375 12.5038 13.0718 13.1268 13.3403C13.7498 13.6089 14.2923 13.9795 14.7542 14.4521C15.2162 14.9248 15.5868 15.4727 15.8661 16.0957C16.1454 16.7188 16.285 17.3848 16.285 18.0938C16.285 19.2002 16.1507 20.2905 15.8822 21.3647C15.6136 22.439 15.2162 23.4595 14.6898 24.4263C14.1634 25.3931 13.535 26.29 12.8045 27.1172C12.0741 27.9443 11.2362 28.6587 10.2909 29.2603C10.2049 29.314 10.119 29.3569 10.0331 29.3892C9.94711 29.4214 9.84506 29.4375 9.7269 29.4375C9.43686 29.4375 9.19516 29.3354 9.0018 29.1313C8.80844 28.9272 8.70639 28.6855 8.69565 28.4062C8.69565 28.2129 8.73325 28.0518 8.80844 27.9229C8.88364 27.7939 8.99643 27.6704 9.14682 27.5522C9.43686 27.3159 9.72153 27.0957 10.0008 26.8916C10.2801 26.6875 10.5594 26.4458 10.8387 26.1665C11.9237 25.0923 12.7562 23.8623 13.3363 22.4766C13.9164 21.0908 14.2118 19.6299 14.2225 18.0938C14.2225 17.6641 14.1419 17.2612 13.9808 16.8853C13.8197 16.5093 13.5995 16.1816 13.3202 15.9023C13.0409 15.623 12.7132 15.4028 12.3372 15.2417C11.9613 15.0806 11.5584 15 11.1288 15C10.6991 15 10.2962 15.0806 9.92026 15.2417C9.54428 15.4028 9.21664 15.623 8.93735 15.9023C8.65805 16.1816 8.43784 16.5093 8.2767 16.8853C8.11557 17.2612 8.035 17.6641 8.035 18.0938C8.035 18.8027 7.90073 19.4688 7.63217 20.0918C7.36362 20.7148 6.99838 21.2627 6.53647 21.7354C6.07455 22.208 5.5267 22.5786 4.89291 22.8472C4.25912 23.1157 3.58774 23.25 2.87875 23.25C2.59946 23.25 2.35776 23.1479 2.15366 22.9438C1.94955 22.7397 1.8475 22.498 1.8475 22.2188C1.8475 21.9395 1.94955 21.6978 2.15366 21.4937C2.35776 21.2896 2.59946 21.1875 2.87875 21.1875C3.30844 21.1875 3.71127 21.1069 4.08725 20.9458C4.46323 20.7847 4.79086 20.5645 5.07016 20.2852C5.34946 20.0059 5.56967 19.6782 5.7308 19.3022C5.89194 18.9263 5.9725 18.5234 5.9725 18.0938C5.9725 17.3848 6.10678 16.7188 6.37534 16.0957C6.64389 15.4727 7.00912 14.9302 7.47104 14.4683C7.93295 14.0063 8.4808 13.6357 9.11459 13.3564C9.74838 13.0771 10.4198 12.9375 11.1288 12.9375Z"
        fill="#1E232C" />
</svg>