<svg width="23" height="23" viewBox="0 0 23 23" fill="none" xmlns="http://www.w3.org/2000/svg">
<g clip-path="url(#clip0_3907_32507)">
<path d="M9.76195 11.1657C10.1659 9.96717 11.4651 9.32302 12.6636 9.72705C13.787 10.1057 14.4357 11.279 14.159 12.4317C13.3346 15.2981 10.3189 17.8703 7.55702 20.056C7.35868 20.2131 7.07059 20.1797 6.91348 19.9814C6.7564 19.783 6.78981 19.4949 6.98815 19.3378C9.63923 17.2401 12.5294 14.7841 13.2787 12.1788C13.4884 11.449 13.0668 10.6874 12.337 10.4777C11.6072 10.268 10.8456 10.6896 10.6359 11.4194C10.1357 13.1599 7.64861 15.3109 5.28244 17.1833C5.0841 17.3403 4.79601 17.3069 4.63889 17.1086C4.48182 16.9102 4.51523 16.6222 4.71357 16.465C5.96304 15.4785 9.27183 12.8604 9.76195 11.1657Z" fill="#AB00FF"/>
<path d="M6.29024 9.98457C7.28602 6.93152 10.5122 5.20692 13.604 6.07482C16.765 6.98181 18.5922 10.2796 17.6851 13.4405L17.6832 13.4473C16.9311 16.0599 18.5434 16.7844 19.0573 16.9438C19.2986 17.0197 19.4327 17.2769 19.3568 17.5182C19.281 17.7595 19.0238 17.8936 18.7825 17.8178C17.3818 17.3799 16.0215 15.9069 16.8029 13.1935C17.5732 10.5196 16.0301 7.72763 13.3563 6.95729L13.3521 6.95609C10.7084 6.21296 7.95387 7.71127 7.14127 10.3345C7.13048 10.3702 7.11508 10.4044 7.09545 10.4362C7.04783 10.515 6.9498 10.6808 4.00561 13.0698C3.80933 13.2294 3.52077 13.1997 3.36116 13.0034C3.20155 12.8071 3.23127 12.5186 3.42759 12.3589C4.49753 11.4906 6.06124 10.1998 6.29024 9.98457Z" fill="#AB00FF"/>
<path d="M7.99964 10.6587C8.63228 8.47409 10.9123 7.21225 13.0993 7.8363C15.2468 8.49929 16.4932 10.7339 15.9291 12.9094C15.0038 17.1233 15.6955 18.0961 17.5935 18.6897C17.8349 18.7656 17.969 19.0228 17.8931 19.2641C17.8172 19.5054 17.56 19.6395 17.3187 19.5636C14.6667 18.7392 14.0905 17.006 15.0286 12.7125C15.4843 11.01 14.5208 9.25002 12.8411 8.71661C11.139 8.23341 9.36625 9.21575 8.8736 10.9151C8.69037 11.5399 8.20395 12.3973 4.45269 15.3663C4.25435 15.5234 3.96627 15.49 3.80915 15.2916C3.65208 15.0933 3.68548 14.8052 3.88382 14.6481C7.28881 11.9549 7.87142 11.1021 7.99964 10.6587Z" fill="#AB00FF"/>
<path d="M6.73882 17.0343C8.28879 15.8581 10.8831 13.8904 11.5215 11.6717C11.5956 11.4299 11.8517 11.2938 12.0936 11.3678C12.2071 11.4026 12.3027 11.4801 12.3602 11.5839C12.4177 11.6878 12.4327 11.8099 12.4019 11.9246C11.68 14.4364 8.93371 16.5195 7.29305 17.7644C6.95963 18.0045 6.6386 18.2613 6.33119 18.5339C6.14925 18.7097 5.85928 18.7046 5.68352 18.5227C5.51206 18.3452 5.51206 18.0638 5.68352 17.8863C6.01898 17.5827 6.3713 17.2982 6.73882 17.0343ZM9.21767 20.2204C9.4458 19.7972 9.77254 19.4352 10.1702 19.1651C10.5679 18.895 11.0248 18.7247 11.5023 18.6686C13.0596 18.6686 13.3005 21.316 13.3344 21.8464C13.3501 22.0988 13.1582 22.3162 12.9057 22.3319H12.8764C12.7597 22.3321 12.6473 22.2878 12.5621 22.2079C12.477 22.1281 12.4256 22.0188 12.4183 21.9023C12.3606 20.9587 11.9997 19.5847 11.5023 19.5847C10.8235 19.5847 10.3417 20.2387 9.95508 20.7636C9.82737 20.9457 9.68751 21.1189 9.53646 21.2821C9.35452 21.4579 9.06455 21.4528 8.88879 21.2709C8.8063 21.1855 8.7602 21.0714 8.7602 20.9527C8.7602 20.8339 8.8063 20.7199 8.88879 20.6345C9.00726 20.5037 9.11711 20.3654 9.21767 20.2204ZM13.3555 16.2392C13.4416 16.0014 13.7042 15.8783 13.942 15.9644C14.0499 16.0035 14.1393 16.0816 14.1923 16.1834C14.2453 16.2852 14.2582 16.4032 14.2284 16.514C13.8364 17.7388 14.6068 20.1425 15.7656 20.519C16.007 20.5946 16.1414 20.8515 16.0659 21.0929C15.9904 21.3343 15.7334 21.4688 15.492 21.3933C15.4888 21.3923 15.4857 21.3912 15.4825 21.3902C13.7201 20.8222 12.87 17.7608 13.3555 16.2392Z" fill="#AB00FF"/>
<path d="M3.57507 9.98809C4.14759 9.80486 4.59739 9.07204 5.11864 8.23566C6.22156 6.453 7.734 4.01172 11.9607 4.01172C16.2589 4.01679 19.7421 7.49996 19.7471 11.7982C19.7471 12.0512 19.5421 12.2563 19.2891 12.2563C19.0361 12.2563 18.8311 12.0512 18.8311 11.7982C18.827 8.00545 15.7534 4.93184 11.9606 4.9278C8.24421 4.9278 6.94248 7.02925 5.89633 8.71843C5.28074 9.71237 4.74944 10.5707 3.85719 10.8602C3.61745 10.9409 3.35766 10.8121 3.27689 10.5724C3.19612 10.3326 3.32499 10.0729 3.56468 9.99208C3.56783 9.99102 3.57098 9.98999 3.57413 9.98899L3.57507 9.98809ZM18.8311 15.4624C18.5781 15.4624 18.3731 15.2574 18.3731 15.0044C18.3731 14.9332 18.3897 14.8629 18.4216 14.7992C18.6171 14.4329 18.7552 14.0386 18.8311 13.6304C18.8311 13.3774 19.0362 13.1723 19.2891 13.1723C19.5421 13.1723 19.7472 13.3774 19.7472 13.6304C19.6737 14.1827 19.5022 14.7176 19.2406 15.2097C19.2025 15.2856 19.1441 15.3495 19.0717 15.3941C18.9994 15.4388 18.9161 15.4624 18.8311 15.4624Z" fill="#AB00FF"/>
<path d="M19.069 5.77704C18.853 5.9087 18.5711 5.84038 18.4394 5.62439L18.4387 5.62314C18.0411 4.96723 16.0826 3.09573 12.4184 3.09573C8.89707 3.09573 6.39164 4.87929 5.94004 5.62314C5.80877 5.83943 5.527 5.90831 5.31071 5.77704C5.09442 5.64577 5.02554 5.364 5.15681 5.14771C5.78524 4.11255 8.55995 2.17969 12.4184 2.17969C16.5214 2.17969 18.7208 4.32236 19.2228 5.14861C19.3536 5.36469 19.2847 5.64582 19.069 5.77704Z" fill="#AB00FF"/>
<path d="M16.3576 2.13917C16.1479 2.04758 15.9702 1.95594 15.8016 1.86435C15.1127 1.51718 14.6172 1.26341 12.4186 1.26341C10.9341 1.18164 9.44937 1.41937 8.06462 1.96054C7.88963 2.02559 7.71375 2.09061 7.52962 2.15381C7.48162 2.17047 7.43116 2.17915 7.38032 2.17945C7.12736 2.17992 6.92194 1.97522 6.92146 1.72226C6.92131 1.62665 6.95108 1.53339 7.00659 1.45554C7.0621 1.37769 7.14057 1.31915 7.23102 1.28814C7.40875 1.22678 7.57729 1.16447 7.74583 1.10491C9.2324 0.525124 10.825 0.266936 12.4186 0.347364C14.8406 0.347364 15.4471 0.658809 16.2165 1.05364C16.3713 1.13334 16.5362 1.21763 16.7286 1.30373C16.9637 1.39716 17.0785 1.66348 16.9851 1.89853C16.8917 2.13359 16.6253 2.24841 16.3903 2.15502C16.3783 2.15026 16.3665 2.14498 16.3549 2.13917H16.3576ZM4.15303 8.27309C4.06693 8.51093 3.80431 8.63396 3.56646 8.54786C3.45855 8.50879 3.36924 8.43063 3.3162 8.32886C3.26316 8.22708 3.25026 8.1091 3.28005 7.99827C3.53991 7.32533 3.86224 6.67822 4.24281 6.0654C4.37537 5.84989 4.65753 5.7826 4.87305 5.91516C5.08856 6.04771 5.15585 6.32987 5.02329 6.54539C4.68233 7.09422 4.39108 7.67242 4.15303 8.27309Z" fill="#AB00FF"/>
<path d="M7.27566 20.1547C7.37875 20.1546 7.47879 20.1198 7.55962 20.0558C10.3215 17.8692 13.3344 15.2978 14.1589 12.4315C14.4541 11.2016 13.6964 9.96529 12.4665 9.67008C11.3137 9.39341 10.1405 10.0421 9.76181 11.1655C9.27448 12.8592 5.96568 15.4782 4.72351 16.4639C4.52036 16.6147 4.47789 16.9016 4.62865 17.1047C4.77942 17.3078 5.0663 17.3503 5.26941 17.1995C5.27694 17.194 5.2843 17.1881 5.29148 17.1821C7.65765 15.3097 10.1466 13.1597 10.6458 11.4183C10.8555 10.6887 11.6169 10.2673 12.3465 10.4771C13.076 10.6868 13.4974 11.4482 13.2877 12.1777C12.5384 14.783 9.64823 17.2389 6.99805 19.3367C6.79971 19.4937 6.76626 19.7818 6.92329 19.9801C6.96624 20.0343 7.02091 20.0781 7.0832 20.1082C7.14549 20.1383 7.21378 20.1539 7.28296 20.1538L7.27566 20.1547Z" fill="#AB00FF"/>
<path d="M18.9227 17.8363C19.1757 17.8358 19.3804 17.6304 19.3799 17.3774C19.3797 17.2801 19.3485 17.1854 19.2908 17.1069C19.2332 17.0285 19.152 16.9705 19.0592 16.9413C18.5471 16.781 16.9348 16.0564 17.6851 13.4447C18.5941 10.2844 16.7691 6.98545 13.6087 6.07641L13.604 6.07508C10.5119 5.20657 7.28514 6.9313 6.28932 9.98482C6.06122 10.1992 4.49751 11.4908 3.42757 12.3592C3.33754 12.4371 3.28135 12.5469 3.27089 12.6655C3.26044 12.784 3.29654 12.902 3.37155 12.9944C3.44657 13.0868 3.55461 13.1464 3.67279 13.1605C3.79097 13.1747 3.91 13.1422 4.00469 13.0701C6.94983 10.6801 7.04782 10.5143 7.09548 10.4355C7.11439 10.4038 7.12946 10.37 7.14035 10.3347C7.95295 7.71105 10.7081 6.21261 13.3521 6.95634C16.0265 7.72475 17.5716 10.5157 16.8032 13.19L16.8029 13.191C16.0224 15.9034 17.3819 17.3774 18.7834 17.8153C18.8285 17.8295 18.8755 17.8366 18.9227 17.8363Z" fill="#AB00FF"/>
<path d="M17.457 19.5851C17.71 19.5846 17.9147 19.3792 17.9142 19.1262C17.914 19.0289 17.8828 18.9341 17.8251 18.8557C17.7675 18.7773 17.6863 18.7193 17.5935 18.6901C15.6954 18.0965 15.0047 17.1218 15.9299 12.9098C16.4936 10.7343 15.2474 8.50003 13.1002 7.83664C10.9131 7.21418 8.63396 8.47534 7.9996 10.659C7.87229 11.1015 7.29058 11.9543 3.89109 14.6457C3.68794 14.7965 3.64547 15.0834 3.79624 15.2865C3.947 15.4896 4.23388 15.5321 4.43699 15.3813C4.44452 15.3757 4.45188 15.3699 4.45906 15.3639C8.21491 12.394 8.70133 11.5357 8.87996 10.9127C9.37085 9.21154 11.1457 8.22826 12.8483 8.71421C14.53 9.24804 15.4936 11.0109 15.035 12.7146C14.0923 17.0091 14.6686 18.7377 17.3251 19.5658C17.3679 19.5788 17.4123 19.5852 17.457 19.5851Z" fill="#AB00FF"/>
<path d="M6.00649 18.6693C6.06668 18.6694 6.12631 18.6576 6.18195 18.6347C6.2376 18.6117 6.28817 18.578 6.33077 18.5355C6.63825 18.2627 6.95928 18.0056 7.29263 17.7651C8.93329 16.5202 11.6796 14.4371 12.4015 11.9252C12.4755 11.6834 12.3395 11.4273 12.0976 11.3532C11.8557 11.2791 11.5996 11.4152 11.5255 11.6571C11.524 11.6622 11.5225 11.6673 11.5212 11.6724C10.8799 13.891 8.28932 15.8587 6.73935 17.035C6.37161 17.2993 6.01899 17.584 5.68315 17.8878C5.50456 18.0669 5.50499 18.357 5.68418 18.5355C5.76975 18.6209 5.88561 18.669 6.00649 18.6693ZM12.8769 22.3335H12.9062C13.1587 22.3178 13.3506 22.1004 13.335 21.8479C13.302 21.3175 13.0601 18.6702 11.5028 18.6702C11.0244 18.7258 10.5664 18.896 10.1677 19.1663C9.76908 19.4366 9.44147 19.799 9.2127 20.2229C9.11275 20.3681 9.00319 20.5064 8.88477 20.6369C8.70901 20.8189 8.71408 21.1089 8.89602 21.2846C8.98141 21.3671 9.0955 21.4132 9.21422 21.4132C9.33295 21.4132 9.44704 21.3671 9.53243 21.2846C9.68376 21.122 9.82364 20.949 9.95106 20.7671C10.3413 20.2394 10.8231 19.5853 11.5029 19.5853C11.9994 19.5853 12.3612 20.9594 12.4189 21.9039C12.4261 22.0204 12.4776 22.1297 12.5627 22.2095C12.6478 22.2894 12.7602 22.3337 12.8769 22.3335ZM15.6251 21.4174C15.878 21.4179 16.0835 21.2132 16.084 20.9603C16.0841 20.8632 16.0534 20.7685 15.9963 20.69C15.9392 20.6115 15.8586 20.5531 15.7661 20.5234C14.6083 20.1469 13.8424 17.7431 14.229 16.5184C14.3196 16.2822 14.2015 16.0173 13.9653 15.9268C13.7291 15.8362 13.4642 15.9543 13.3737 16.1905C13.367 16.2078 13.3614 16.2255 13.3569 16.2436C12.8705 17.7652 13.7233 20.8239 15.484 21.3991C15.5298 21.4125 15.5774 21.4187 15.6251 21.4174Z" fill="#AB00FF"/>
<path d="M19.2891 12.2562C19.5421 12.2562 19.7472 12.0511 19.7472 11.7982C19.7421 7.49992 16.259 4.01674 11.9607 4.01172C7.73404 4.01172 6.22165 6.453 5.11778 8.23566C4.59653 9.07569 4.14678 9.80211 3.57421 9.98809C3.3328 10.0637 3.19836 10.3206 3.27389 10.562C3.34942 10.8034 3.60642 10.9379 3.84783 10.8623L3.85727 10.8593C4.74953 10.5698 5.28083 9.71142 5.89642 8.71753C6.94257 7.02925 8.24425 4.9278 11.9607 4.9278C15.7535 4.93184 18.8271 8.00545 18.8312 11.7982C18.8312 12.0511 19.0362 12.2562 19.2891 12.2562ZM18.8312 15.4624C18.9163 15.4625 18.9998 15.439 19.0723 15.3943C19.1448 15.3496 19.2034 15.2857 19.2415 15.2096C19.5029 14.7175 19.6742 14.1826 19.7472 13.6303C19.7472 13.3773 19.5421 13.1722 19.2891 13.1722C19.0362 13.1722 18.8311 13.3773 18.8311 13.6303C18.755 14.0385 18.6169 14.4327 18.4216 14.7991C18.3083 15.0253 18.3998 15.3005 18.6259 15.4138C18.6896 15.4458 18.7599 15.4624 18.8312 15.4624Z" fill="#AB00FF"/>
<path d="M5.54828 5.8439C5.62711 5.84394 5.70461 5.82364 5.77329 5.78497C5.84198 5.7463 5.89952 5.69056 5.94037 5.62314C6.39107 4.87929 8.8974 3.09573 12.4187 3.09573C16.0829 3.09573 18.0415 4.96723 18.4399 5.62314C18.5634 5.84394 18.8424 5.92291 19.0632 5.79946C19.284 5.676 19.363 5.39698 19.2395 5.17618C19.2341 5.16648 19.2283 5.15699 19.2222 5.14771C18.7212 4.32236 16.5217 2.17969 12.4187 2.17969C8.56023 2.17969 5.78548 4.11255 5.1571 5.14861C5.02604 5.36499 5.09526 5.64663 5.31164 5.77764C5.38301 5.82088 5.46484 5.8438 5.54828 5.8439Z" fill="#AB00FF"/>
<path d="M7.37997 2.17981C7.43076 2.17987 7.48122 2.17151 7.52927 2.15507C7.7125 2.09186 7.89018 2.02591 8.06517 1.9618C9.44957 1.42045 10.934 1.18241 12.4183 1.26376C14.6168 1.26376 15.1124 1.5175 15.7967 1.86836C15.9652 1.9554 16.1438 2.04609 16.3527 2.14318C16.5844 2.24563 16.8553 2.14086 16.9578 1.90911C17.0602 1.67736 16.9555 1.4065 16.7237 1.30404C16.5304 1.217 16.3664 1.13275 16.2107 1.05306C15.4467 0.659166 14.8394 0.347678 12.4182 0.347678C10.8251 0.266382 9.23281 0.523649 7.74634 1.10252C7.5778 1.16483 7.40921 1.22804 7.23153 1.28575C6.99067 1.36304 6.85808 1.62098 6.93537 1.86183C6.96548 1.95557 7.02498 2.03711 7.10506 2.09438C7.18514 2.15165 7.28153 2.18161 7.37997 2.17981ZM3.71576 8.59219C3.81284 8.5921 3.90739 8.56118 3.98576 8.50389C4.06413 8.44659 4.12228 8.36588 4.15182 8.2734C4.38975 7.67151 4.681 7.09209 5.02208 6.54205C5.15464 6.32654 5.0874 6.04438 4.87184 5.91182C4.65628 5.77926 4.37416 5.84651 4.2416 6.06207C3.86141 6.67495 3.53939 7.32206 3.27974 7.99493C3.20284 8.23591 3.33587 8.49364 3.57685 8.5705C3.62175 8.58488 3.66861 8.5922 3.71576 8.59219Z" fill="#AB00FF"/>
</g>
<defs>
<clipPath id="clip0_3907_32507">
<rect width="22" height="22" fill="white" transform="matrix(-1 0 0 1 22.5 0.333008)"/>
</clipPath>
</defs>
</svg>
