<svg width="88" height="22" viewBox="0 0 88 22" fill="none" xmlns="http://www.w3.org/2000/svg">
<path d="M65.6768 16.8402C65.0231 16.8449 64.3755 16.7155 63.7742 16.4603C63.206 16.2144 62.6896 15.8641 62.2518 15.4277C61.8277 14.9756 61.4844 14.4546 61.2368 13.8872C60.9815 13.2874 60.8521 12.6419 60.8566 11.9904V7.16016H63.348V11.9904C63.3468 12.3071 63.4041 12.6213 63.5171 12.9173C63.7625 13.4727 64.2079 13.9165 64.7655 14.1614C65.0513 14.2886 65.3612 14.3532 65.6742 14.3507H68.0634V9.65099C68.0634 8.99315 68.3258 8.36226 68.7931 7.89709C69.2603 7.43193 69.894 7.1706 70.5548 7.1706V17.2227C70.5599 17.8684 70.423 18.5074 70.1535 19.0948C69.6672 20.2556 68.743 21.1804 67.5795 21.6705C66.9925 21.9244 66.3587 22.0534 65.7188 22.049H64.932C64.7196 21.6417 64.508 21.2275 64.2974 20.8062C64.0994 20.3846 63.8961 19.9694 63.6837 19.5621H65.7135C66.0265 19.564 66.3363 19.4994 66.6223 19.3728C66.9064 19.254 67.165 19.0821 67.3841 18.8663C67.5987 18.6509 67.7646 18.3923 67.8706 18.1078C67.9987 17.8202 68.0635 17.5086 68.0607 17.194V16.8402H65.6768Z" fill="black"/>
<path d="M55.0481 9.64781C54.7268 9.64689 54.4087 9.7113 54.1132 9.8371C53.8364 9.95883 53.5844 10.1301 53.3697 10.3423C53.152 10.5587 52.9783 10.8149 52.8583 11.0969C52.7426 11.3876 52.6847 11.698 52.6878 12.0107V16.8305H50.1794V11.794C50.1908 11.2215 49.9858 10.6657 49.605 10.2366C49.2303 9.80351 48.7074 9.52438 48.1377 9.4533L49.2654 7.15828C49.7038 7.29192 50.1194 7.49087 50.498 7.74835C50.8799 7.99962 51.2235 8.30431 51.5182 8.65304H51.5405C51.9844 8.20054 52.5109 7.83635 53.0917 7.57994C53.705 7.2984 54.3728 7.15445 55.0481 7.15828C55.6986 7.15525 56.3428 7.28406 56.9416 7.53686C58.1106 8.0234 59.0411 8.94737 59.5327 10.1099C59.8014 10.6981 59.9391 11.3372 59.9366 11.9833V16.824H57.4347V11.9833C57.4367 11.6716 57.3714 11.363 57.2432 11.0786C57.1167 10.8004 56.9357 10.5501 56.7108 10.3423C56.4962 10.13 56.2442 9.95873 55.9673 9.8371C55.6781 9.70931 55.3646 9.64476 55.0481 9.64781Z" fill="black"/>
<path d="M87.6375 10.1106C87.4225 9.54565 87.1051 9.02484 86.7012 8.57402C86.3093 8.14172 85.835 7.79118 85.306 7.54269C84.7735 7.29092 84.1909 7.16154 83.6013 7.16411C82.9896 7.16135 82.3863 7.30603 81.8429 7.58577C81.3119 7.84935 80.8379 8.21391 80.4477 8.65887H80.4294L80.3835 8.72545C80.3402 8.67454 80.2969 8.62362 80.2523 8.57402C79.8556 8.14076 79.3765 7.79021 78.8427 7.54269C78.305 7.29106 77.7178 7.16174 77.1236 7.16411C76.506 7.16114 75.8967 7.30574 75.3468 7.58577C74.8107 7.84834 74.3313 8.2129 73.9359 8.65887H73.9175C73.6537 8.31464 73.3414 8.00996 72.9905 7.75418C72.6508 7.49923 72.2723 7.30002 71.8693 7.16411V9.6445C71.8693 9.83379 71.851 9.86251 72.1788 10.2333C72.5302 10.6759 72.7157 11.2266 72.7033 11.7907V16.8207H74.9823V12.0113C74.9786 11.6999 75.031 11.3904 75.137 11.0975C75.2428 10.8187 75.3998 10.5619 75.5999 10.3403C75.7914 10.1309 76.021 9.95949 76.2765 9.8351C76.542 9.7096 76.8324 9.64491 77.1262 9.64581C77.414 9.6436 77.6982 9.70843 77.9563 9.8351C78.212 9.95917 78.4417 10.1306 78.6329 10.3403C78.8402 10.5523 79.0041 10.8024 79.1155 11.0766C79.1391 11.1314 79.1574 11.1876 79.1758 11.2437C79.2114 11.4243 79.2294 11.6079 79.2295 11.792V16.822H81.5689V11.9839C81.5689 11.8821 81.561 11.7803 81.5597 11.6797C81.5522 11.4849 81.578 11.2903 81.6357 11.104C81.7401 10.8254 81.8958 10.5687 82.0947 10.3468C82.2836 10.1379 82.5105 9.96651 82.7634 9.84163C83.0258 9.71644 83.3131 9.65174 83.604 9.65233C83.8892 9.65029 84.1708 9.71514 84.4261 9.84163C84.6791 9.96651 84.906 10.1379 85.0949 10.3468C85.3001 10.5594 85.4622 10.8094 85.5722 11.0831C85.6885 11.3706 85.7468 11.678 85.744 11.9878V16.8285H87.9994V11.9839C88.0033 11.3419 87.8803 10.7053 87.6375 10.1106Z" fill="black"/>
<path d="M44.8834 16.8245H42.4982V11.8155C42.4943 11.2783 42.583 10.7445 42.7604 10.2371C42.9415 9.74711 43.1937 9.28616 43.5092 8.86901C43.8091 8.45778 44.1787 8.10172 44.6015 7.8168C45.0185 7.52238 45.4834 7.30158 45.9757 7.16406L47.0876 9.47997C46.7866 9.49121 46.4909 9.56269 46.2183 9.69015C45.953 9.81375 45.713 9.98502 45.5102 10.1954C45.3161 10.4139 45.1592 10.6626 45.046 10.9317C44.9365 11.2207 44.8814 11.5274 44.8834 11.8363V16.8245Z" fill="black"/>
<path d="M26.3725 12.0113V22.0451H23.8811V12.0113C23.8745 11.367 24.0032 10.7285 24.2587 10.1366C24.5022 9.56242 24.8538 9.03997 25.2947 8.59745C25.9707 7.91163 26.8384 7.44435 27.7849 7.25644C28.7315 7.06854 29.7129 7.16871 30.6014 7.54393C31.7648 8.03216 32.6892 8.9557 33.1755 10.1157C33.4428 10.7051 33.5797 11.3449 33.5767 11.9917C33.5812 12.6431 33.4518 13.2887 33.1964 13.8885C32.9465 14.4592 32.5956 14.9805 32.1605 15.4277C31.7174 15.8673 31.1934 16.2179 30.6171 16.4603C30.0244 16.7137 29.3858 16.8434 28.7407 16.8415H28.3395L27.0924 14.3533H28.7407C29.0537 14.3558 29.3636 14.2912 29.6494 14.164C29.9335 14.0457 30.1921 13.8741 30.4113 13.6588C30.6218 13.4496 30.7873 13.2 30.8978 12.9251C31.0236 12.6321 31.0883 12.3168 31.0879 11.9982C31.0899 11.6862 31.0251 11.3773 30.8978 11.0922C30.7737 10.8142 30.5954 10.5635 30.3732 10.3546C30.1607 10.1401 29.9105 9.96624 29.635 9.84156C29.3464 9.71304 29.0332 9.64846 28.7171 9.65227C28.3974 9.6511 28.0809 9.71553 27.7874 9.84156C27.5115 9.96401 27.2604 10.1357 27.0465 10.3481C26.8302 10.5663 26.6579 10.8237 26.5391 11.1066C26.426 11.3948 26.3694 11.7019 26.3725 12.0113Z" fill="#6300D6"/>
<path d="M16.2734 14.3496H27.2397L28.8775 16.8404H18.5065L16.2734 14.3496Z" fill="url(#paint0_linear_3907_24755)"/>
<path d="M18.2101 16.8409C17.573 16.8453 16.9421 16.7158 16.3586 16.461C15.8036 16.2131 15.3008 15.8627 14.8768 15.4283C14.4632 14.9742 14.1293 14.4539 13.8894 13.8892C13.6406 13.2877 13.5149 12.6428 13.5197 11.9924V7.16211H15.9468V11.9924C15.9456 12.3087 16.0016 12.6226 16.1121 12.9192C16.2301 13.1932 16.3971 13.4436 16.6051 13.6581C16.812 13.869 17.056 14.0403 17.325 14.1633C17.6025 14.2905 17.9047 14.3551 18.2101 14.3526H20.5337V10.9584H22.9609V17.2247C22.9661 17.8708 22.8319 18.5105 22.5675 19.1006C22.3332 19.6727 21.9909 20.1948 21.5591 20.6385C21.1324 21.0761 20.6242 21.4268 20.0629 21.6711C19.4939 21.9248 18.8768 22.0539 18.2534 22.0497H17.4928C17.2874 21.6424 17.0815 21.2281 16.8752 20.8069C16.6838 20.3857 16.4849 19.971 16.2786 19.5628H18.2534C18.5583 19.5644 18.8599 19.4998 19.1372 19.3735C19.4147 19.2538 19.6662 19.0818 19.8781 18.867C20.0877 18.6501 20.249 18.3917 20.3514 18.1085C20.4766 17.8201 20.5396 17.5088 20.5363 17.1947V16.8409H18.2101Z" fill="#00AEEF"/>
<path d="M39.2689 14.2935C38.9489 14.2945 38.632 14.2301 38.3379 14.1042C37.7808 13.8593 37.3356 13.4161 37.0896 12.8614C36.9626 12.5683 36.8974 12.2524 36.8982 11.9332C36.8962 11.621 36.9615 11.3121 37.0896 11.0272C37.2083 10.7443 37.3806 10.4868 37.5971 10.2687C37.8088 10.0609 38.0609 9.89834 38.3379 9.7909C38.632 9.66498 38.9489 9.60055 39.2689 9.6016H41.6188L40.3704 7.12121H39.2689C38.6144 7.1167 37.966 7.24599 37.3637 7.5011C36.7904 7.74976 36.2671 8.0996 35.819 8.53373C35.3775 8.97546 35.0254 9.49754 34.7817 10.0716C34.528 10.6641 34.3986 11.3021 34.4015 11.9462C34.397 12.5977 34.5264 13.2432 34.7817 13.8431C35.2709 15.0036 36.198 15.9266 37.3637 16.4135C37.966 16.6687 38.6144 16.798 39.2689 16.7934H41.6188L40.3704 14.313L39.2689 14.2935Z" fill="black"/>
<path d="M39.3205 13.0364C40.0056 13.0364 40.561 12.4834 40.561 11.8014C40.561 11.1193 40.0056 10.5664 39.3205 10.5664C38.6355 10.5664 38.0801 11.1193 38.0801 11.8014C38.0801 12.4834 38.6355 13.0364 39.3205 13.0364Z" fill="black"/>
<path d="M17.1914 14.3516H20.5299V16.8411H18.0962L17.1914 14.3516Z" fill="url(#paint1_linear_3907_24755)"/>
<path d="M0.198242 7.73828V16.8204H0.577202C1.13364 16.8204 1.66729 16.6004 2.06075 16.2087C2.45421 15.8169 2.67525 15.2857 2.67525 14.7317V9.83095C1.44265 9.47978 0.683416 8.64297 0.198242 7.73828Z" fill="black"/>
<path d="M4.81119 9.63307C4.17503 9.63739 3.54508 9.5084 2.96228 9.25448C1.80248 8.76872 0.880222 7.84961 0.393483 6.69445C0.129962 6.1082 -0.00418385 5.4725 9.94339e-05 4.83024V0H2.47973V4.83024C2.47745 5.14131 2.54182 5.44929 2.66855 5.73363C2.91271 6.28517 3.35449 6.72639 3.90771 6.97121C4.19189 7.09767 4.49992 7.16221 4.81119 7.16051H6.5565L5.24522 9.6409L4.81119 9.63307Z" fill="black"/>
<path d="M12.4646 9.08216V0H12.0844C11.5279 0 10.9943 0.220064 10.6008 0.611782C10.2074 1.0035 9.98633 1.53478 9.98633 2.08875V6.98949C11.2176 7.34066 11.9795 8.17747 12.4646 9.08216Z" fill="black"/>
<path d="M7.85176 7.18752C8.48917 7.18447 9.12007 7.31525 9.70329 7.57133C10.8592 8.057 11.778 8.97411 12.2629 10.1261C12.5269 10.7136 12.6611 11.3507 12.6563 11.9943V16.8245H10.1832V11.9943C10.1848 11.685 10.1204 11.3788 9.99439 11.0961C9.74918 10.5453 9.30773 10.1044 8.75523 9.85851C8.47176 9.72891 8.16369 9.66125 7.85176 9.66008H6.10645L7.41773 7.17969L7.85176 7.18752Z" fill="black"/>
<defs>
<linearGradient id="paint0_linear_3907_24755" x1="16.2734" y1="15.5937" x2="28.8775" y2="15.5937" gradientUnits="userSpaceOnUse">
<stop stop-color="#340070"/>
<stop offset="0.93" stop-color="#6300D6"/>
</linearGradient>
<linearGradient id="paint1_linear_3907_24755" x1="18.9144" y1="15.5944" x2="21.8818" y2="15.5325" gradientUnits="userSpaceOnUse">
<stop stop-color="#00AEEF"/>
<stop offset="1" stop-color="#027FAE"/>
</linearGradient>
</defs>
</svg>
