<svg width="49" height="48" viewBox="0 0 49 48" fill="none" xmlns="http://www.w3.org/2000/svg">
<g clip-path="url(#clip0_3907_29339)">
<path d="M22.3271 6.57812H26.672V46.2733H22.3271V6.57812Z" fill="#8173FF"/>
<path d="M22.3271 5.70703H26.672V30.7132H22.3271V5.70703Z" fill="#8173FF"/>
<path d="M46.5371 6.57978H2.46263C1.50648 6.57978 0.731445 5.80466 0.731445 4.84859V4.61009C0.731445 3.65394 1.50657 2.87891 2.46263 2.87891H46.5371C47.4933 2.87891 48.2683 3.65403 48.2683 4.61009V4.8485C48.2684 5.80475 47.4933 6.57978 46.5371 6.57978Z" fill="url(#paint0_linear_3907_29339)"/>
<path d="M24.5 27.4477C28.8461 27.4477 32.3694 23.9245 32.3694 19.5784C32.3694 15.2322 28.8461 11.709 24.5 11.709C20.1539 11.709 16.6306 15.2322 16.6306 19.5784C16.6306 23.9245 20.1539 27.4477 24.5 27.4477Z" fill="#362DAD"/>
<path d="M26.6727 41.2852H22.3278L11.6168 45.3044C10.3878 45.7656 10.7184 47.5876 12.0311 47.5876H36.9694C38.2821 47.5876 38.6127 45.7656 37.3837 45.3044L26.6727 41.2852Z" fill="#C5DEE2"/>
<path d="M1.71207 33.132C1.57791 33.1319 1.44642 33.0945 1.33225 33.024C1.21808 32.9536 1.12572 32.8528 1.06546 32.7329C1.00521 32.6131 0.979418 32.4788 0.990974 32.3452C1.00253 32.2115 1.05098 32.0837 1.13091 31.9759L7.32751 23.6252C7.38419 23.5488 7.45536 23.4843 7.53696 23.4354C7.61856 23.3865 7.70899 23.3542 7.80309 23.3402C7.89719 23.3263 7.99311 23.331 8.08538 23.3542C8.17765 23.3773 8.26446 23.4184 8.34085 23.4751C8.41724 23.5317 8.48172 23.6029 8.53061 23.6845C8.57949 23.7661 8.61183 23.8566 8.62577 23.9506C8.6397 24.0447 8.63497 24.1407 8.61184 24.2329C8.5887 24.3252 8.54762 24.412 8.49094 24.4884L2.29435 32.8392C2.22695 32.9301 2.13916 33.004 2.03803 33.0548C1.9369 33.1057 1.82526 33.1321 1.71207 33.132ZM15.9875 33.132C15.8743 33.1322 15.7626 33.1058 15.6615 33.0549C15.5603 33.0041 15.4725 32.9302 15.4052 32.8392L9.20869 24.4884C9.15201 24.412 9.11093 24.3252 9.0878 24.2329C9.06466 24.1407 9.05993 24.0447 9.07387 23.9506C9.08781 23.8566 9.12014 23.7661 9.16903 23.6845C9.21791 23.6029 9.28239 23.5317 9.35879 23.4751C9.43518 23.4184 9.52199 23.3773 9.61426 23.3542C9.70652 23.331 9.80245 23.3263 9.89654 23.3402C9.99064 23.3542 10.0811 23.3865 10.1627 23.4354C10.2443 23.4843 10.3154 23.5488 10.3721 23.6252L16.5686 31.9759C16.6486 32.0837 16.6971 32.2115 16.7087 32.3452C16.7202 32.4789 16.6944 32.6131 16.6342 32.733C16.5739 32.8529 16.4815 32.9536 16.3673 33.0241C16.2532 33.0945 16.1216 33.1319 15.9875 33.132ZM8.84982 23.3021C8.65772 23.3021 8.47349 23.2258 8.33765 23.0899C8.20182 22.9541 8.1255 22.7699 8.1255 22.5778V1.13838C8.1255 1.04326 8.14424 0.94907 8.18064 0.861193C8.21704 0.773315 8.27039 0.693467 8.33765 0.626209C8.40491 0.55895 8.48476 0.505598 8.57263 0.469198C8.66051 0.432797 8.7547 0.414062 8.84982 0.414062C8.94494 0.414062 9.03912 0.432797 9.127 0.469198C9.21488 0.505598 9.29472 0.55895 9.36198 0.626209C9.42924 0.693467 9.48259 0.773315 9.519 0.861193C9.5554 0.94907 9.57413 1.04326 9.57413 1.13838V22.5778C9.57413 22.6729 9.5554 22.7671 9.519 22.855C9.48259 22.9428 9.42924 23.0227 9.36198 23.0899C9.29472 23.1572 9.21488 23.2106 9.127 23.247C9.03912 23.2834 8.94494 23.3021 8.84982 23.3021ZM40.1494 23.3021C40.0543 23.3021 39.9601 23.2834 39.8722 23.247C39.7843 23.2106 39.7045 23.1572 39.6372 23.0899C39.57 23.0227 39.5166 22.9428 39.4802 22.855C39.4438 22.7671 39.4251 22.6729 39.4251 22.5778V1.13838C39.4251 0.946275 39.5014 0.762044 39.6372 0.626209C39.773 0.490374 39.9573 0.414063 40.1494 0.414063C40.3415 0.414063 40.5257 0.490374 40.6615 0.626209C40.7974 0.762044 40.8737 0.946275 40.8737 1.13838V22.5778C40.8737 22.6729 40.855 22.7671 40.8186 22.855C40.7822 22.9429 40.7288 23.0227 40.6616 23.09C40.5943 23.1572 40.5145 23.2106 40.4266 23.247C40.3387 23.2834 40.2445 23.3021 40.1494 23.3021ZM47.2871 33.132C47.1739 33.1322 47.0623 33.1058 46.9611 33.0549C46.86 33.0041 46.7722 32.9302 46.7048 32.8392L40.5084 24.4884C40.4517 24.412 40.4106 24.3252 40.3875 24.2329C40.3643 24.1407 40.3596 24.0447 40.3735 23.9506C40.3875 23.8566 40.4198 23.7661 40.4687 23.6845C40.5176 23.6029 40.5821 23.5317 40.6584 23.4751C40.7348 23.4184 40.8216 23.3773 40.9139 23.3542C41.0062 23.331 41.1021 23.3263 41.1962 23.3402C41.2903 23.3542 41.3807 23.3865 41.4623 23.4354C41.5439 23.4843 41.6151 23.5488 41.6718 23.6252L47.8683 31.9759C47.9483 32.0837 47.9967 32.2115 48.0083 32.3452C48.0199 32.4789 47.9941 32.6131 47.9338 32.733C47.8736 32.8529 47.7812 32.9536 47.667 33.0241C47.5528 33.0945 47.4213 33.1319 47.2871 33.132ZM33.0117 33.132C32.8776 33.1319 32.7461 33.0945 32.6319 33.024C32.5177 32.9536 32.4254 32.8528 32.3651 32.7329C32.3049 32.6131 32.2791 32.4788 32.2906 32.3452C32.3022 32.2115 32.3506 32.0837 32.4306 31.9759L38.6271 23.6252C38.6838 23.5488 38.7549 23.4843 38.8365 23.4354C38.9181 23.3865 39.0086 23.3542 39.1027 23.3402C39.1968 23.3263 39.2927 23.331 39.3849 23.3542C39.4772 23.3773 39.564 23.4184 39.6404 23.4751C39.7168 23.5317 39.7813 23.6029 39.8302 23.6845C39.8791 23.7661 39.9114 23.8566 39.9253 23.9506C39.9393 24.0447 39.9345 24.1407 39.9114 24.2329C39.8883 24.3252 39.8472 24.412 39.7905 24.4884L33.594 32.8392C33.5266 32.9301 33.4388 33.004 33.3377 33.0548C33.2366 33.1057 33.1249 33.1321 33.0117 33.132Z" fill="#8AA2AD"/>
<path d="M27.1644 18.2553H21.8356C21.6435 18.2553 21.4593 18.179 21.3235 18.0431C21.1876 17.9073 21.1113 17.7231 21.1113 17.531C21.1113 17.3389 21.1876 17.1546 21.3235 17.0188C21.4593 16.883 21.6435 16.8066 21.8356 16.8066H27.1644C27.3565 16.8066 27.5407 16.883 27.6766 17.0188C27.8124 17.1546 27.8887 17.3389 27.8887 17.531C27.8887 17.7231 27.8124 17.9073 27.6766 18.0431C27.5407 18.179 27.3565 18.2553 27.1644 18.2553ZM27.1644 22.3493H21.8356C21.6435 22.3493 21.4593 22.273 21.3235 22.1372C21.1876 22.0013 21.1113 21.8171 21.1113 21.625C21.1113 21.4329 21.1876 21.2487 21.3235 21.1128C21.4593 20.977 21.6435 20.9007 21.8356 20.9007H27.1644C27.3565 20.9007 27.5407 20.977 27.6766 21.1128C27.8124 21.2487 27.8887 21.4329 27.8887 21.625C27.8887 21.8171 27.8124 22.0013 27.6766 22.1372C27.5407 22.273 27.3565 22.3493 27.1644 22.3493Z" fill="#C5DEE2"/>
<path d="M13.114 36.2893H4.58625C2.84878 36.2893 1.30875 35.1707 0.771467 33.5185L0.550592 32.8393C0.336936 32.1822 0.826686 31.5078 1.51781 31.5078H16.1826C16.8736 31.5078 17.3634 32.1822 17.1498 32.8393L16.9289 33.5185C16.3915 35.1708 14.8516 36.2893 13.114 36.2893ZM35.8859 36.2893H44.4138C46.1512 36.2893 47.6913 35.1707 48.2286 33.5185L48.4494 32.8393C48.6631 32.1822 48.1733 31.5078 47.4822 31.5078H32.8174C32.1263 31.5078 31.6365 32.1822 31.8502 32.8393L32.071 33.5185C32.6084 35.1708 34.1483 36.2893 35.8859 36.2893Z" fill="url(#paint1_linear_3907_29339)"/>
<path opacity="0.2" d="M16.1826 31.5078H14.475L14.4179 31.6835C13.8807 33.3358 12.3406 34.4544 10.6032 34.4544H2.0752C1.75832 34.4544 1.4482 34.4168 1.14941 34.3459C1.86351 35.533 3.15782 36.2893 4.58629 36.2893H13.1142C14.8516 36.2893 16.3917 35.1708 16.9289 33.5185L17.1498 32.8393C17.3635 32.1822 16.8736 31.5078 16.1826 31.5078ZM47.4823 31.5078H45.7747L45.7176 31.6835C45.1803 33.3358 43.6403 34.4544 41.9028 34.4544H33.3749C33.0581 34.4544 32.7479 34.4168 32.4492 34.3459C33.1633 35.533 34.4576 36.2893 35.886 36.2893H44.4139C46.1514 36.2893 47.6914 35.1708 48.2287 33.5185L48.4496 32.8393C48.6631 32.1822 48.1733 31.5078 47.4823 31.5078Z" fill="white"/>
<path d="M8.85021 25.1101C9.81636 25.1101 10.5996 24.3269 10.5996 23.3607C10.5996 22.3946 9.81636 21.6113 8.85021 21.6113C7.88405 21.6113 7.10083 22.3946 7.10083 23.3607C7.10083 24.3269 7.88405 25.1101 8.85021 25.1101Z" fill="#C5DEE2"/>
<path d="M40.1498 25.1101C41.1159 25.1101 41.8991 24.3269 41.8991 23.3607C41.8991 22.3946 41.1159 21.6113 40.1498 21.6113C39.1836 21.6113 38.4004 22.3946 38.4004 23.3607C38.4004 24.3269 39.1836 25.1101 40.1498 25.1101Z" fill="#C5DEE2"/>
</g>
<defs>
<linearGradient id="paint0_linear_3907_29339" x1="0.731445" y1="4.72934" x2="48.2683" y2="4.72934" gradientUnits="userSpaceOnUse">
<stop stop-color="#A298FF"/>
<stop offset="1" stop-color="#1700E8"/>
</linearGradient>
<linearGradient id="paint1_linear_3907_29339" x1="0.5" y1="33.8986" x2="48.5" y2="33.8986" gradientUnits="userSpaceOnUse">
<stop stop-color="#A298FF"/>
<stop offset="1" stop-color="#1700E8"/>
</linearGradient>
<clipPath id="clip0_3907_29339">
<rect width="48" height="48" fill="white" transform="translate(0.5)"/>
</clipPath>
</defs>
</svg>
