<svg width="48" height="48" viewBox="0 0 48 48" fill="none" xmlns="http://www.w3.org/2000/svg">
<path d="M40.6667 6.66797H7.33333C5.49238 6.66797 4 8.16035 4 10.0013V40.668C4 42.5089 5.49238 44.0013 7.33333 44.0013H40.6667C42.5076 44.0013 44 42.5089 44 40.668V10.0013C44 8.16035 42.5076 6.66797 40.6667 6.66797Z" fill="#BAD4E5"/>
<path d="M44 11.3333V35.6133L36.9467 42.6667H7.33333C6.44928 42.6667 5.60143 42.3155 4.97631 41.6904C4.35119 41.0652 4 40.2174 4 39.3333V11.3333C4 10.4493 4.35119 9.60143 4.97631 8.97631C5.60143 8.35119 6.44928 8 7.33333 8H40.6667C41.5507 8 42.3986 8.35119 43.0237 8.97631C43.6488 9.60143 44 10.4493 44 11.3333Z" fill="#97C0DD"/>
<path d="M44 10.0013V34.2813L36.9467 41.3346H7.33333C6.44928 41.3346 5.60143 40.9834 4.97631 40.3583C4.35119 39.7332 4 38.8854 4 38.0013V10.0013C4 9.11725 4.35119 8.2694 4.97631 7.64428C5.60143 7.01916 6.44928 6.66797 7.33333 6.66797H40.6667C41.5507 6.66797 42.3986 7.01916 43.0237 7.64428C43.6488 8.2694 44 9.11725 44 10.0013Z" fill="#EAF3F9"/>
<path d="M44.0003 32V34.28L36.947 41.3333H34.667V35.3333C34.667 34.4493 35.0182 33.6014 35.6433 32.9763C36.2684 32.3512 37.1163 32 38.0003 32H44.0003Z" fill="#C5DEF3"/>
<path d="M44 32V34.28L36.9467 41.3333H36V35.3333C36 34.4493 36.3512 33.6014 36.9763 32.9763C37.6014 32.3512 38.4493 32 39.3333 32H44Z" fill="#D7E9F4"/>
<path d="M40.6667 6.66797H7.33333C6.4496 6.66903 5.60237 7.02056 4.97748 7.64545C4.35259 8.27034 4.00106 9.11757 4 10.0013V16.0013H44V10.0013C43.9989 9.11757 43.6474 8.27034 43.0225 7.64545C42.3976 7.02056 41.5504 6.66903 40.6667 6.66797Z" fill="url(#paint0_linear_3907_29315)"/>
<path d="M34.667 13.332C35.7716 13.332 36.667 12.4366 36.667 11.332C36.667 10.2275 35.7716 9.33203 34.667 9.33203C33.5624 9.33203 32.667 10.2275 32.667 11.332C32.667 12.4366 33.5624 13.332 34.667 13.332Z" fill="white"/>
<path d="M24 13.332C25.1046 13.332 26 12.4366 26 11.332C26 10.2275 25.1046 9.33203 24 9.33203C22.8954 9.33203 22 10.2275 22 11.332C22 12.4366 22.8954 13.332 24 13.332Z" fill="white"/>
<path d="M14 13.332C15.1046 13.332 16 12.4366 16 11.332C16 10.2275 15.1046 9.33203 14 9.33203C12.8954 9.33203 12 10.2275 12 11.332C12 12.4366 12.8954 13.332 14 13.332Z" fill="white"/>
<path d="M15.9997 6V6.66667H14.6663V6C14.6663 5.82319 14.5961 5.65362 14.4711 5.5286C14.3461 5.40357 14.1765 5.33333 13.9997 5.33333H13.333C13.1562 5.33333 12.9866 5.40357 12.8616 5.5286C12.7366 5.65362 12.6663 5.82319 12.6663 6V10C12.6663 10.1768 12.7366 10.3464 12.8616 10.4714C12.9866 10.5964 13.1562 10.6667 13.333 10.6667H13.9997C14.1765 10.6667 14.3461 10.7369 14.4711 10.8619C14.5961 10.987 14.6663 11.1565 14.6663 11.3333C14.6663 11.5101 14.5961 11.6797 14.4711 11.8047C14.3461 11.9298 14.1765 12 13.9997 12H13.333C12.8031 11.9982 12.2954 11.787 11.9207 11.4123C11.546 11.0376 11.3348 10.5299 11.333 10V6C11.3348 5.47011 11.546 4.96242 11.9207 4.58773C12.2954 4.21304 12.8031 4.00176 13.333 4H13.9997C14.5296 4.00176 15.0373 4.21304 15.4119 4.58773C15.7866 4.96242 15.9979 5.47011 15.9997 6ZM25.9997 6V6.66667H24.6663V6C24.6663 5.82319 24.5961 5.65362 24.4711 5.5286C24.3461 5.40357 24.1765 5.33333 23.9997 5.33333H23.333C23.1562 5.33333 22.9866 5.40357 22.8616 5.5286C22.7366 5.65362 22.6663 5.82319 22.6663 6V10C22.6663 10.1768 22.7366 10.3464 22.8616 10.4714C22.9866 10.5964 23.1562 10.6667 23.333 10.6667H23.9997C24.1765 10.6667 24.3461 10.7369 24.4711 10.8619C24.5961 10.987 24.6663 11.1565 24.6663 11.3333C24.6663 11.5101 24.5961 11.6797 24.4711 11.8047C24.3461 11.9298 24.1765 12 23.9997 12H23.333C22.8031 11.9982 22.2954 11.787 21.9207 11.4123C21.546 11.0376 21.3348 10.5299 21.333 10V6C21.3348 5.47011 21.546 4.96242 21.9207 4.58773C22.2954 4.21304 22.8031 4.00176 23.333 4H23.9997C24.5296 4.00176 25.0373 4.21304 25.4119 4.58773C25.7866 4.96242 25.9979 5.47011 25.9997 6ZM36.6663 6V6.66667H35.333V6C35.333 5.82319 35.2628 5.65362 35.1377 5.5286C35.0127 5.40357 34.8432 5.33333 34.6663 5.33333H33.9997C33.8229 5.33333 33.6533 5.40357 33.5283 5.5286C33.4032 5.65362 33.333 5.82319 33.333 6V10C33.333 10.1768 33.4032 10.3464 33.5283 10.4714C33.6533 10.5964 33.8229 10.6667 33.9997 10.6667H34.6663C34.8432 10.6667 35.0127 10.7369 35.1377 10.8619C35.2628 10.987 35.333 11.1565 35.333 11.3333C35.333 11.5101 35.2628 11.6797 35.1377 11.8047C35.0127 11.9298 34.8432 12 34.6663 12H33.9997C33.4698 11.9982 32.9621 11.787 32.5874 11.4123C32.2127 11.0376 32.0014 10.5299 31.9997 10V6C32.0014 5.47011 32.2127 4.96242 32.5874 4.58773C32.9621 4.21304 33.4698 4.00176 33.9997 4H34.6663C35.1962 4.00176 35.7039 4.21304 36.0786 4.58773C36.4533 4.96242 36.6646 5.47011 36.6663 6Z" fill="#3E4042"/>
<path d="M12.6667 32.668H8.66667C8.29848 32.668 8 32.9664 8 33.3346V37.3346C8 37.7028 8.29848 38.0013 8.66667 38.0013H12.6667C13.0349 38.0013 13.3333 37.7028 13.3333 37.3346V33.3346C13.3333 32.9664 13.0349 32.668 12.6667 32.668Z" fill="#BAD4E5"/>
<path d="M19.3337 32.668H15.3337C14.9655 32.668 14.667 32.9664 14.667 33.3346V37.3346C14.667 37.7028 14.9655 38.0013 15.3337 38.0013H19.3337C19.7018 38.0013 20.0003 37.7028 20.0003 37.3346V33.3346C20.0003 32.9664 19.7018 32.668 19.3337 32.668Z" fill="#BAD4E5"/>
<path d="M25.9997 32.668H21.9997C21.6315 32.668 21.333 32.9664 21.333 33.3346V37.3346C21.333 37.7028 21.6315 38.0013 21.9997 38.0013H25.9997C26.3679 38.0013 26.6663 37.7028 26.6663 37.3346V33.3346C26.6663 32.9664 26.3679 32.668 25.9997 32.668Z" fill="#BAD4E5"/>
<path d="M12.6667 26H8.66667C8.29848 26 8 26.2985 8 26.6667V30.6667C8 31.0349 8.29848 31.3333 8.66667 31.3333H12.6667C13.0349 31.3333 13.3333 31.0349 13.3333 30.6667V26.6667C13.3333 26.2985 13.0349 26 12.6667 26Z" fill="#5ED3F2"/>
<path d="M19.3337 26H15.3337C14.9655 26 14.667 26.2985 14.667 26.6667V30.6667C14.667 31.0349 14.9655 31.3333 15.3337 31.3333H19.3337C19.7018 31.3333 20.0003 31.0349 20.0003 30.6667V26.6667C20.0003 26.2985 19.7018 26 19.3337 26Z" fill="#BAD4E5"/>
<path d="M26.0007 26H22.0007C21.6325 26 21.334 26.2985 21.334 26.6667V30.6667C21.334 31.0349 21.6325 31.3333 22.0007 31.3333H26.0007C26.3688 31.3333 26.6673 31.0349 26.6673 30.6667V26.6667C26.6673 26.2985 26.3688 26 26.0007 26Z" fill="#BAD4E5"/>
<path d="M32.6667 26H28.6667C28.2985 26 28 26.2985 28 26.6667V30.6667C28 31.0349 28.2985 31.3333 28.6667 31.3333H32.6667C33.0349 31.3333 33.3333 31.0349 33.3333 30.6667V26.6667C33.3333 26.2985 33.0349 26 32.6667 26Z" fill="#BAD4E5"/>
<path d="M26.0007 19.332H22.0007C21.6325 19.332 21.334 19.6305 21.334 19.9987V23.9987C21.334 24.3669 21.6325 24.6654 22.0007 24.6654H26.0007C26.3688 24.6654 26.6673 24.3669 26.6673 23.9987V19.9987C26.6673 19.6305 26.3688 19.332 26.0007 19.332Z" fill="#BAD4E5"/>
<path d="M32.6667 19.332H28.6667C28.2985 19.332 28 19.6305 28 19.9987V23.9987C28 24.3669 28.2985 24.6654 28.6667 24.6654H32.6667C33.0349 24.6654 33.3333 24.3669 33.3333 23.9987V19.9987C33.3333 19.6305 33.0349 19.332 32.6667 19.332Z" fill="#67AAE6"/>
<path d="M39.3337 19.332H35.3337C34.9655 19.332 34.667 19.6305 34.667 19.9987V23.9987C34.667 24.3669 34.9655 24.6654 35.3337 24.6654H39.3337C39.7018 24.6654 40.0003 24.3669 40.0003 23.9987V19.9987C40.0003 19.6305 39.7018 19.332 39.3337 19.332Z" fill="#67AAE6"/>
<defs>
<linearGradient id="paint0_linear_3907_29315" x1="4" y1="11.3346" x2="44" y2="11.3346" gradientUnits="userSpaceOnUse">
<stop stop-color="#A298FF"/>
<stop offset="1" stop-color="#1700E8"/>
</linearGradient>
</defs>
</svg>
