<svg width="13" height="16" viewBox="0 0 13 16" fill="none" xmlns="http://www.w3.org/2000/svg">
<path fill-rule="evenodd" clip-rule="evenodd" d="M0.899946 5.6528C1.00823 4.16704 1.65125 2.77085 2.70994 1.72281C3.73639 0.710363 5.11822 0.139692 6.55995 0.132812H6.85997C8.29866 0.140172 9.67719 0.710967 10.7 1.72281C11.7625 2.76818 12.4062 4.16588 12.51 5.6528C12.6535 7.31828 12.1683 8.97718 11.1499 10.3028L7.76994 14.6828C7.64426 14.8526 7.47967 14.9898 7.28996 15.0828C7.10874 15.175 6.90827 15.2231 6.70494 15.2231C6.50161 15.2231 6.30117 15.175 6.11995 15.0828C5.93509 14.9867 5.77441 14.8499 5.64995 14.6828L2.26994 10.3028C1.25325 8.97593 0.76508 7.31897 0.899946 5.6528ZM6.70994 2.94281C6.26756 2.93886 5.82906 3.02556 5.42146 3.19754C5.01386 3.36952 4.64579 3.62315 4.33995 3.94281C3.71022 4.62303 3.3604 5.51585 3.3604 6.44281C3.3604 7.36977 3.71022 8.26259 4.33995 8.94281C4.64154 9.27072 5.0079 9.53247 5.41585 9.71152C5.82379 9.89057 6.26444 9.98303 6.70994 9.98303C7.15545 9.98303 7.59613 9.89057 8.00407 9.71152C8.41202 9.53247 8.77835 9.27072 9.07994 8.94281C9.70536 8.26044 10.0523 7.36843 10.0523 6.44281C10.0523 5.51719 9.70536 4.62518 9.07994 3.94281C8.7741 3.62315 8.40606 3.36952 7.99846 3.19754C7.59085 3.02556 7.15233 2.93886 6.70994 2.94281Z" fill="#0081C1"/>
</svg>
