<svg width="20" height="20" viewBox="0 0 20 20" fill="none" xmlns="http://www.w3.org/2000/svg">
<path d="M4.76465 8.41153V6.8233C4.76465 4.19477 5.55877 2.05859 9.52935 2.05859C13.4999 2.05859 14.2941 4.19477 14.2941 6.8233V8.41153" stroke="#17181A" stroke-width="1.19118" stroke-linecap="round" stroke-linejoin="round"/>
<path d="M9.52924 15.162C10.6257 15.162 11.5145 14.2731 11.5145 13.1767C11.5145 12.0803 10.6257 11.1914 9.52924 11.1914C8.43279 11.1914 7.54395 12.0803 7.54395 13.1767C7.54395 14.2731 8.43279 15.162 9.52924 15.162Z" stroke="#17181A" stroke-width="1.19118" stroke-linecap="round" stroke-linejoin="round"/>
<path d="M13.5001 17.9415H5.55897C2.3825 17.9415 1.58838 17.1474 1.58838 13.9709V12.3827C1.58838 9.20623 2.3825 8.41211 5.55897 8.41211H13.5001C16.6766 8.41211 17.4707 9.20623 17.4707 12.3827V13.9709C17.4707 17.1474 16.6766 17.9415 13.5001 17.9415Z" stroke="#17181A" stroke-width="1.19118" stroke-linecap="round" stroke-linejoin="round"/>
</svg>
