<svg width="5" height="16" viewBox="0 0 5 16" fill="none" xmlns="http://www.w3.org/2000/svg">
<g id="Group 172">
<path id="Vector 14 (Stroke)" fill-rule="evenodd" clip-rule="evenodd" d="M0 1.21212C0 0.542685 0.559644 0 1.25 0H3.25C3.94036 0 4.5 0.542685 4.5 1.21212C4.5 1.88156 3.94036 2.42424 3.25 2.42424H1.25C0.559644 2.42424 0 1.88156 0 1.21212Z" fill="#383535"/>
<path id="Vector 15 (Stroke)" fill-rule="evenodd" clip-rule="evenodd" d="M0 8.00002C0 7.33059 0.559644 6.7879 1.25 6.7879H3.25C3.94036 6.7879 4.5 7.33059 4.5 8.00002C4.5 8.66946 3.94036 9.21215 3.25 9.21215H1.25C0.559644 9.21215 0 8.66946 0 8.00002Z" fill="#383535"/>
<path id="Vector 16 (Stroke)" fill-rule="evenodd" clip-rule="evenodd" d="M0 14.7879C0 14.1184 0.559644 13.5757 1.25 13.5757H3.25C3.94036 13.5757 4.5 14.1184 4.5 14.7879C4.5 15.4573 3.94036 16 3.25 16H1.25C0.559644 16 0 15.4573 0 14.7879Z" fill="#383535"/>
</g>
</svg>
