<svg width="16" height="20" viewBox="0 0 16 20" fill="none" xmlns="http://www.w3.org/2000/svg">
<path d="M1.14243 16.6337C0.873946 16.6337 0.649047 16.5428 0.467738 16.3608C0.28643 16.1789 0.195459 15.954 0.194827 15.6861C0.194196 15.4183 0.285166 15.1934 0.467738 15.0114C0.650311 14.8295 0.875209 14.7385 1.14243 14.7385H2.09004V8.10527C2.09004 6.79442 2.48488 5.62981 3.27455 4.61145C4.06422 3.59308 5.0908 2.92565 6.35427 2.60915V1.94583C6.35427 1.55099 6.49262 1.21554 6.76933 0.939468C7.04603 0.663399 7.38148 0.525048 7.77568 0.524416C8.16989 0.523784 8.50566 0.662135 8.78299 0.939468C9.06032 1.2168 9.19836 1.55225 9.19709 1.94583V2.60915C10.4606 2.92502 11.4871 3.59245 12.2768 4.61145C13.0665 5.63044 13.4613 6.79505 13.4613 8.10527V14.7385H14.4089C14.6774 14.7385 14.9026 14.8295 15.0846 15.0114C15.2665 15.1934 15.3572 15.4183 15.3565 15.6861C15.3559 15.954 15.2649 16.1792 15.0836 16.3618C14.9023 16.5443 14.6774 16.635 14.4089 16.6337H1.14243ZM7.77568 19.4766C7.2545 19.4766 6.80849 19.2911 6.43766 18.9203C6.06683 18.5495 5.8811 18.1032 5.88047 17.5813H9.6709C9.6709 18.1025 9.48548 18.5489 9.11465 18.9203C8.74382 19.2918 8.2975 19.4772 7.77568 19.4766Z" fill="white"/>
</svg>
