<svg width="20" height="20" viewBox="0 0 20 20" fill="none" xmlns="http://www.w3.org/2000/svg">
<path d="M11.9116 13.9712V14.7653C11.9116 16.081 10.8449 17.1476 9.52921 17.1476C8.21347 17.1476 7.14686 16.081 7.14686 14.7653V13.9712M11.9116 13.9712H7.14686M11.9116 13.9712H14.7628C15.0666 13.9712 15.2192 13.9712 15.3422 13.9297C15.5772 13.8504 15.761 13.6659 15.8403 13.431C15.8819 13.3075 15.8819 13.1544 15.8819 12.8482C15.8819 12.7143 15.8818 12.6473 15.8713 12.5834C15.8515 12.4627 15.8046 12.3483 15.7333 12.2489C15.6956 12.1964 15.6477 12.1485 15.5532 12.054L15.2439 11.7447C15.1441 11.6449 15.088 11.5095 15.088 11.3684V8.41234C15.088 5.34228 12.5993 2.85351 9.52921 2.85352C6.45916 2.85352 3.97039 5.34229 3.97039 8.41234V11.3684C3.97039 11.5095 3.9142 11.6449 3.8144 11.7447L3.50508 12.054C3.41034 12.1487 3.36292 12.1963 3.32517 12.2489C3.25382 12.3483 3.20656 12.4627 3.18675 12.5834C3.17627 12.6473 3.17627 12.7143 3.17627 12.8482C3.17627 13.1544 3.17627 13.3075 3.21792 13.431C3.29717 13.6659 3.48184 13.8504 3.7168 13.9297C3.8398 13.9712 3.99184 13.9712 4.29562 13.9712H7.14686" stroke="#17181A" stroke-width="1.19118" stroke-linecap="round" stroke-linejoin="round"/>
</svg>
