<svg width="24" height="24" viewBox="0 0 24 24" fill="none" xmlns="http://www.w3.org/2000/svg">
<path d="M14.3581 14.355C14.2644 14.355 14.1747 14.3178 14.1085 14.2516C14.0423 14.1854 14.0051 14.0957 14.0051 14.0021C14.0051 13.9084 14.0423 13.8187 14.1085 13.7525C14.1747 13.6863 14.2644 13.6491 14.3581 13.6491H19.7934C19.887 13.6491 19.9767 13.6863 20.0429 13.7525C20.1091 13.8187 20.1463 13.9084 20.1463 14.0021C20.1463 14.0957 20.1091 14.1854 20.0429 14.2516C19.9767 14.3178 19.887 14.355 19.7934 14.355H14.3581ZM14.3581 11.1079C14.2644 11.1079 14.1747 11.0708 14.1085 11.0046C14.0423 10.9384 14.0051 10.8486 14.0051 10.755C14.0051 10.6614 14.0423 10.5716 14.1085 10.5054C14.1747 10.4392 14.2644 10.4021 14.3581 10.4021H19.7934C19.887 10.4021 19.9767 10.4392 20.0429 10.5054C20.1091 10.5716 20.1463 10.6614 20.1463 10.755C20.1463 10.8486 20.1091 10.9384 20.0429 11.0046C19.9767 11.0708 19.887 11.1079 19.7934 11.1079H14.3581ZM2.19994 21.0122H4.88935V16.4239C4.88935 16.3303 4.92653 16.2406 4.99272 16.1744C5.05891 16.1082 5.14868 16.071 5.24229 16.071H8.60511C8.69872 16.071 8.78849 16.1082 8.85468 16.1744C8.92087 16.2406 8.95805 16.3303 8.95805 16.4239V21.0122H11.6468V1.41194H2.19994V21.0122ZM5.59523 21.0122H8.25217V16.7769H5.59452L5.59523 21.0122ZM12.3526 21.0122H15.0413V16.4239C15.0413 16.3303 15.0785 16.2406 15.1447 16.1744C15.2109 16.1082 15.3007 16.071 15.3943 16.071H18.7578C18.8514 16.071 18.9412 16.1082 19.0074 16.1744C19.0736 16.2406 19.1108 16.3303 19.1108 16.4239V21.0122H21.7995V8.59641L12.3526 5.78135V21.0122ZM15.7472 21.0122H18.4049V16.7769H15.7472V21.0122ZM22.1524 21.7181H1.847C1.8299 21.7186 1.81359 21.7254 1.80111 21.7371V21.7364C1.78925 21.7491 1.78247 21.7656 1.78205 21.783V22.5242C1.78205 22.5392 1.78605 22.5519 1.79405 22.5623L1.80111 22.5693C1.81335 22.5821 1.82864 22.5886 1.847 22.5891H22.1524C22.1696 22.5883 22.1859 22.5813 22.1983 22.5693V22.5701H22.1997C22.2111 22.5572 22.2173 22.5406 22.2174 22.5235V21.783C22.2172 21.7692 22.2131 21.7557 22.2053 21.7442L22.1983 21.7371C22.1859 21.7252 22.1696 21.7188 22.1524 21.7181ZM22.5053 21.0976C22.5867 21.1401 22.6598 21.1968 22.7213 21.2649C22.847 21.4025 22.9232 21.5846 22.9232 21.783V22.5242C22.9232 22.7345 22.8364 22.9272 22.6959 23.0677L22.6973 23.0684C22.5526 23.2127 22.3568 23.2941 22.1524 23.295H1.847C1.73986 23.2944 1.634 23.2716 1.53609 23.2282C1.43818 23.1847 1.35032 23.1214 1.27805 23.0423C1.14894 22.9002 1.07702 22.7154 1.07617 22.5235V21.783C1.07617 21.5719 1.163 21.3792 1.30205 21.2395V21.2381C1.35841 21.1814 1.42317 21.1338 1.49405 21.0969V1.059C1.49405 0.96539 1.53124 0.875618 1.59743 0.809429C1.66362 0.743239 1.75339 0.706055 1.847 0.706055H11.9997C12.0933 0.706055 12.1831 0.743239 12.2493 0.809429C12.3155 0.875618 12.3526 0.96539 12.3526 1.059V5.04582L22.2526 7.99641C22.3254 8.01814 22.3893 8.06278 22.4347 8.12369C22.4801 8.18461 22.5046 8.25855 22.5046 8.33453L22.5053 21.0976ZM22.7213 21.2649C22.7767 21.3327 22.8049 21.4186 22.8004 21.506C22.796 21.5934 22.7593 21.676 22.6973 21.7378M1.27735 23.0409C1.22201 22.9731 1.19382 22.8872 1.19826 22.7998C1.20269 22.7124 1.23943 22.6298 1.30135 22.5679M4.20676 14.355C4.11315 14.355 4.02338 14.3178 3.95719 14.2516C3.891 14.1854 3.85382 14.0957 3.85382 14.0021C3.85382 13.9084 3.891 13.8187 3.95719 13.7525C4.02338 13.6863 4.11315 13.6491 4.20676 13.6491H9.64205C9.73566 13.6491 9.82543 13.6863 9.89162 13.7525C9.95781 13.8187 9.995 13.9084 9.995 14.0021C9.995 14.0957 9.95781 14.1854 9.89162 14.2516C9.82543 14.3178 9.73566 14.355 9.64205 14.355H4.20676ZM4.20676 11.1079C4.11315 11.1079 4.02338 11.0708 3.95719 11.0046C3.891 10.9384 3.85382 10.8486 3.85382 10.755C3.85382 10.6614 3.891 10.5716 3.95719 10.5054C4.02338 10.4392 4.11315 10.4021 4.20676 10.4021H9.64205C9.73566 10.4021 9.82543 10.4392 9.89162 10.5054C9.95781 10.5716 9.995 10.6614 9.995 10.755C9.995 10.8486 9.95781 10.9384 9.89162 11.0046C9.82543 11.0708 9.73566 11.1079 9.64205 11.1079H4.20676ZM4.20676 7.85947C4.11315 7.85947 4.02338 7.82228 3.95719 7.75609C3.891 7.6899 3.85382 7.60013 3.85382 7.50652C3.85382 7.41292 3.891 7.32315 3.95719 7.25696C4.02338 7.19077 4.11315 7.15358 4.20676 7.15358H9.64205C9.73566 7.15358 9.82543 7.19077 9.89162 7.25696C9.95781 7.32315 9.995 7.41292 9.995 7.50652C9.995 7.60013 9.95781 7.6899 9.89162 7.75609C9.82543 7.82228 9.73566 7.85947 9.64205 7.85947H4.20676ZM4.20676 4.61311C4.11315 4.61311 4.02338 4.57593 3.95719 4.50974C3.891 4.44355 3.85382 4.35378 3.85382 4.26017C3.85382 4.16657 3.891 4.07679 3.95719 4.01061C4.02338 3.94442 4.11315 3.90723 4.20676 3.90723H9.64205C9.73566 3.90723 9.82543 3.94442 9.89162 4.01061C9.95781 4.07679 9.995 4.16657 9.995 4.26017C9.995 4.35378 9.95781 4.44355 9.89162 4.50974C9.82543 4.57593 9.73566 4.61311 9.64205 4.61311H4.20676Z" fill="#6B7280"/>
</svg>
