<svg width="20" height="20" viewBox="0 0 20 20" fill="none" xmlns="http://www.w3.org/2000/svg">
<path d="M17.3196 3.59914C16.0966 6.64855 13.0314 10.7938 10.4664 12.8506L8.90194 14.1053C8.70342 14.2483 8.50489 14.3753 8.28253 14.4627C8.28253 14.3197 8.27459 14.1609 8.25077 14.01C8.16342 13.343 7.86165 12.7236 7.32959 12.1915C6.78959 11.6515 6.13047 11.3338 5.45547 11.2465C5.29665 11.2386 5.13783 11.2227 4.979 11.2386C5.06636 10.9924 5.20136 10.7621 5.36812 10.5715L6.60694 9.00708C8.65577 6.44208 12.8169 3.36091 15.8584 2.14591C16.3269 1.9712 16.7796 2.09826 17.0655 2.39208C17.3672 2.68591 17.5102 3.13855 17.3196 3.59914Z" stroke="#17181A" stroke-width="1.19118" stroke-linecap="round" stroke-linejoin="round"/>
<path d="M8.28243 14.4628C8.28243 15.3363 7.9489 16.1701 7.32155 16.8054C6.83714 17.2898 6.17802 17.6233 5.39184 17.7266L3.43832 17.941C2.3742 18.0601 1.46096 17.1548 1.58802 16.0748L1.80243 14.1213C1.99302 12.3822 3.44626 11.2704 4.98685 11.2386C5.14567 11.2307 5.31243 11.2386 5.46332 11.2466C6.13832 11.3339 6.79743 11.6436 7.33743 12.1916C7.86949 12.7236 8.17126 13.3431 8.25861 14.0101C8.26655 14.161 8.28243 14.3119 8.28243 14.4628Z" stroke="#17181A" stroke-width="1.19118" stroke-linecap="round" stroke-linejoin="round"/>
<path d="M11.3079 11.9622C11.3079 9.88958 9.6244 8.20605 7.55176 8.20605" stroke="#17181A" stroke-width="1.19118" stroke-linecap="round" stroke-linejoin="round"/>
</svg>
