<svg width="12" height="15" viewBox="0 0 12 15" fill="none" xmlns="http://www.w3.org/2000/svg">
<path d="M5.98949 5.52169L4.85952 6.52169C5.0101 7.02076 5.21816 7.50064 5.47951 7.95169C5.76149 8.40089 6.09732 8.81393 6.47951 9.18167L7.9395 8.74169C8.33769 8.61768 8.76336 8.61213 9.16463 8.72576C9.5659 8.8394 9.92547 9.0673 10.1995 9.38168L11.0295 10.3817C11.1966 10.5723 11.3243 10.7941 11.4053 11.0343C11.4862 11.2745 11.5188 11.5284 11.5012 11.7813C11.4835 12.0341 11.416 12.281 11.3024 12.5076C11.1888 12.7343 11.0315 12.9362 10.8395 13.1017C10.1847 13.7418 9.32746 14.1339 8.415 14.2105C7.50254 14.2872 6.59187 14.0436 5.8395 13.5217C4.46782 12.4666 3.30177 11.1684 2.39949 9.69168C1.50811 8.23131 0.910288 6.61104 0.639515 4.92169C0.551604 4.0255 0.798054 3.12844 1.33153 2.40298C1.86501 1.67752 2.64784 1.17489 3.5295 0.991694C4.03163 0.837248 4.5733 0.875642 5.0486 1.09942C5.5239 1.3232 5.89864 1.71626 6.09951 2.20169L6.5595 3.37167C6.68799 3.74621 6.70241 4.15048 6.60094 4.53323C6.49947 4.91598 6.28666 5.26 5.98949 5.52169Z" fill="#0081C1"/>
</svg>
