<svg width="30" height="30" viewBox="0 0 30 30" fill="none" xmlns="http://www.w3.org/2000/svg">
<path fill-rule="evenodd" clip-rule="evenodd" d="M8.73303 5.0433C9.95003 3.8333 11.954 4.0483 12.973 5.4103L14.235 7.0943C15.065 8.2023 14.991 9.7503 14.006 10.7293L13.768 10.9673C13.741 11.0672 13.7383 11.1721 13.76 11.2733C13.823 11.6813 14.164 12.5453 15.592 13.9653C17.02 15.3853 17.89 15.7253 18.304 15.7893C18.4083 15.8103 18.5161 15.8072 18.619 15.7803L19.027 15.3743C19.903 14.5043 21.247 14.3413 22.331 14.9303L24.241 15.9703C25.878 16.8583 26.291 19.0823 24.951 20.4153L23.53 21.8273C23.082 22.2723 22.48 22.6433 21.746 22.7123C19.936 22.8813 15.719 22.6653 11.286 18.2583C7.14903 14.1443 6.35503 10.5563 6.25403 8.7883C6.20403 7.8943 6.62603 7.1383 7.16403 6.6043L8.73303 5.0433ZM11.773 6.3093C11.266 5.6323 10.322 5.5783 9.79003 6.1073L8.22003 7.6673C7.89003 7.9953 7.73203 8.3573 7.75203 8.7033C7.83203 10.1083 8.47203 13.3453 12.344 17.1953C16.406 21.2333 20.157 21.3543 21.607 21.2183C21.903 21.1913 22.197 21.0373 22.472 20.7643L23.892 19.3513C24.47 18.7773 24.343 17.7313 23.525 17.2873L21.615 16.2483C21.087 15.9623 20.469 16.0563 20.085 16.4383L19.63 16.8913L19.1 16.3593C19.63 16.8913 19.629 16.8923 19.628 16.8923L19.627 16.8943L19.624 16.8973L19.617 16.9033L19.602 16.9173C19.5598 16.9565 19.5143 16.9919 19.466 17.0233C19.386 17.0763 19.28 17.1353 19.147 17.1843C18.877 17.2853 18.519 17.3393 18.077 17.2713C17.21 17.1383 16.061 16.5473 14.534 15.0293C13.008 13.5113 12.412 12.3693 12.278 11.5033C12.209 11.0613 12.264 10.7033 12.366 10.4333C12.4222 10.2814 12.5025 10.1395 12.604 10.0133L12.636 9.9783L12.65 9.9633L12.656 9.9573L12.659 9.9543L12.661 9.9523L12.949 9.6663C13.377 9.2393 13.437 8.5323 13.034 7.9933L11.773 6.3093Z" fill="#6B7280"/>
</svg>
