<svg width="26" height="20" viewBox="0 0 26 20" fill="none" xmlns="http://www.w3.org/2000/svg">
<path d="M25.6619 12.1413L7.6498 12.1413C3.43584 12.1413 -0.000263074 15.5804 -0.000263207 19.7913L-0.000263214 20L17.997 20C21.9994 20 25.3072 16.9067 25.644 12.9877L25.6619 12.9877L25.6619 12.7642C25.6679 12.6182 25.6738 12.4691 25.6738 12.3201L25.6738 12.1413L25.6619 12.1413Z" fill="#E9BDFF"/>
<path d="M25.6619 6.07401L7.6498 6.07401C3.43584 6.07401 -0.000263074 9.51004 -0.000263207 13.721L-0.000263214 13.9297L17.997 13.9297C21.9994 13.9297 25.3072 10.8363 25.644 6.91742L25.6619 6.91742L25.6619 6.69682C25.6679 6.54781 25.6738 6.40186 25.6738 6.25285L25.6738 6.07096L25.6619 6.07096L25.6619 6.07401Z" fill="#D680FF"/>
<path d="M25.6619 0.00064516L7.6498 0.000644588C3.43584 0.000644454 -0.000263074 3.43973 -0.000263207 7.6507L-0.000263214 7.85937L17.997 7.85937C21.9994 7.85937 25.3072 4.76588 25.644 0.846965L25.6619 0.846965L25.6619 0.626509C25.6679 0.477501 25.6738 0.331473 25.6738 0.179484L25.6738 0.000645161L25.6619 0.00064516Z" fill="#B620FF"/>
</svg>
