<svg width="40" height="38" viewBox="0 0 40 38" fill="none" xmlns="http://www.w3.org/2000/svg">
<path d="M37.8511 -1.02539H1.0741C0.189651 -1.02539 -0.524902 -0.329159 -0.524902 0.532609V36.3666C-0.524902 37.2284 0.189651 37.9246 1.0741 37.9246H37.8511C38.7355 37.9246 39.4501 37.2284 39.4501 36.3666V0.532609C39.4501 -0.329159 38.7355 -1.02539 37.8511 -1.02539ZM12.2671 29.7451C12.2671 29.9593 12.0872 30.1346 11.8673 30.1346H7.86985C7.64999 30.1346 7.4701 29.9593 7.4701 29.7451V7.15411C7.4701 6.93988 7.64999 6.76461 7.86985 6.76461H11.8673C12.0872 6.76461 12.2671 6.93988 12.2671 7.15411V29.7451ZM21.8611 16.1126C21.8611 16.3268 21.6812 16.5021 21.4613 16.5021H17.4638C17.244 16.5021 17.0641 16.3268 17.0641 16.1126V7.15411C17.0641 6.93988 17.244 6.76461 17.4638 6.76461H21.4613C21.6812 6.76461 21.8611 6.93988 21.8611 7.15411V16.1126ZM31.4551 19.6181C31.4551 19.8323 31.2752 20.0076 31.0553 20.0076H27.0578C26.838 20.0076 26.6581 19.8323 26.6581 19.6181V7.15411C26.6581 6.93988 26.838 6.76461 27.0578 6.76461H31.0553C31.2752 6.76461 31.4551 6.93988 31.4551 7.15411V19.6181Z" fill="#B620FF"/>
</svg>
