<svg width="104" height="104" viewBox="0 0 104 104" fill="none" xmlns="http://www.w3.org/2000/svg">
<path d="M103.14 0.631348H1.06982V102.701H103.14V0.631348Z" stroke="#0DA1C9" stroke-miterlimit="10"/>
<path d="M34.5298 5.32129H31.3298V8.52129H34.5298V5.32129Z" fill="black"/>
<path d="M37.7297 5.32129H34.5298V8.52129H37.7297V5.32129Z" fill="black"/>
<path d="M40.9197 5.32129H37.7197V8.52129H40.9197V5.32129Z" fill="black"/>
<path d="M44.1199 5.32129H40.9197V8.52129H44.1199V5.32129Z" fill="black"/>
<path d="M47.3098 5.32129H44.1099V8.52129H47.3098V5.32129Z" fill="black"/>
<path d="M50.5098 5.32129H47.3098V8.52129H50.5098V5.32129Z" fill="black"/>
<path d="M53.7097 5.32129H50.5098V8.52129H53.7097V5.32129Z" fill="black"/>
<path d="M56.8997 5.32129H53.6997V8.52129H56.8997V5.32129Z" fill="black"/>
<path d="M63.2998 5.32129H60.0999V8.52129H63.2998V5.32129Z" fill="black"/>
<path d="M69.6897 5.32129H66.4897V8.52129H69.6897V5.32129Z" fill="black"/>
<path d="M72.8896 5.32129H69.6897V8.52129H72.8896V5.32129Z" fill="black"/>
<path d="M34.5298 8.51123H31.3298V11.7112H34.5298V8.51123Z" fill="black"/>
<path d="M50.5098 8.51123H47.3098V11.7112H50.5098V8.51123Z" fill="black"/>
<path d="M60.0999 8.51123H56.8997V11.7112H60.0999V8.51123Z" fill="black"/>
<path d="M37.7297 11.7114H34.5298V14.9114H37.7297V11.7114Z" fill="black"/>
<path d="M40.9197 11.7114H37.7197V14.9114H40.9197V11.7114Z" fill="black"/>
<path d="M44.1199 11.7114H40.9197V14.9114H44.1199V11.7114Z" fill="black"/>
<path d="M47.3098 11.7114H44.1099V14.9114H47.3098V11.7114Z" fill="black"/>
<path d="M60.0999 11.7114H56.8997V14.9114H60.0999V11.7114Z" fill="black"/>
<path d="M69.6897 11.7114H66.4897V14.9114H69.6897V11.7114Z" fill="black"/>
<path d="M34.5298 14.9111H31.3298V18.1111H34.5298V14.9111Z" fill="black"/>
<path d="M47.3098 14.9111H44.1099V18.1111H47.3098V14.9111Z" fill="black"/>
<path d="M53.7097 14.9111H50.5098V18.1111H53.7097V14.9111Z" fill="black"/>
<path d="M56.8997 14.9111H53.6997V18.1111H56.8997V14.9111Z" fill="black"/>
<path d="M63.2998 14.9111H60.0999V18.1111H63.2998V14.9111Z" fill="black"/>
<path d="M66.4897 14.9111H63.2898V18.1111H66.4897V14.9111Z" fill="black"/>
<path d="M69.6897 14.9111H66.4897V18.1111H69.6897V14.9111Z" fill="black"/>
<path d="M37.7297 18.1016H34.5298V21.3016H37.7297V18.1016Z" fill="black"/>
<path d="M44.1199 18.1016H40.9197V21.3016H44.1199V18.1016Z" fill="black"/>
<path d="M47.3098 18.1016H44.1099V21.3016H47.3098V18.1016Z" fill="black"/>
<path d="M53.7097 18.1016H50.5098V21.3016H53.7097V18.1016Z" fill="black"/>
<path d="M60.0999 18.1016H56.8997V21.3016H60.0999V18.1016Z" fill="black"/>
<path d="M69.6897 18.1016H66.4897V21.3016H69.6897V18.1016Z" fill="black"/>
<path d="M47.3098 21.3013H44.1099V24.5013H47.3098V21.3013Z" fill="black"/>
<path d="M50.5098 21.3013H47.3098V24.5013H50.5098V21.3013Z" fill="black"/>
<path d="M56.8997 21.3013H53.6997V24.5013H56.8997V21.3013Z" fill="black"/>
<path d="M60.0999 21.3013H56.8997V24.5013H60.0999V21.3013Z" fill="black"/>
<path d="M63.2998 21.3013H60.0999V24.5013H63.2998V21.3013Z" fill="black"/>
<path d="M66.4897 21.3013H63.2898V24.5013H66.4897V21.3013Z" fill="black"/>
<path d="M69.6897 21.3013H66.4897V24.5013H69.6897V21.3013Z" fill="black"/>
<path d="M34.5298 24.5015H31.3298V27.7015H34.5298V24.5015Z" fill="black"/>
<path d="M40.9197 24.5015H37.7197V27.7015H40.9197V24.5015Z" fill="black"/>
<path d="M47.3098 24.5015H44.1099V27.7015H47.3098V24.5015Z" fill="black"/>
<path d="M53.7097 24.5015H50.5098V27.7015H53.7097V24.5015Z" fill="black"/>
<path d="M60.0999 24.5015H56.8997V27.7015H60.0999V24.5015Z" fill="black"/>
<path d="M66.4897 24.5015H63.2898V27.7015H66.4897V24.5015Z" fill="black"/>
<path d="M72.8896 24.5015H69.6897V27.7015H72.8896V24.5015Z" fill="black"/>
<path d="M34.5298 27.6914H31.3298V30.8914H34.5298V27.6914Z" fill="black"/>
<path d="M40.9197 27.6914H37.7197V30.8914H40.9197V27.6914Z" fill="black"/>
<path d="M44.1199 27.6914H40.9197V30.8914H44.1199V27.6914Z" fill="black"/>
<path d="M47.3098 27.6914H44.1099V30.8914H47.3098V27.6914Z" fill="black"/>
<path d="M56.8997 27.6914H53.6997V30.8914H56.8997V27.6914Z" fill="black"/>
<path d="M60.0999 27.6914H56.8997V30.8914H60.0999V27.6914Z" fill="black"/>
<path d="M63.2998 27.6914H60.0999V30.8914H63.2998V27.6914Z" fill="black"/>
<path d="M69.6897 27.6914H66.4897V30.8914H69.6897V27.6914Z" fill="black"/>
<path d="M72.8896 27.6914H69.6897V30.8914H72.8896V27.6914Z" fill="black"/>
<path d="M8.95972 30.8911H5.75977V34.0911H8.95972V30.8911Z" fill="black"/>
<path d="M15.3499 30.8911H12.1497V34.0911H15.3499V30.8911Z" fill="black"/>
<path d="M18.5498 30.8911H15.3499V34.0911H18.5498V30.8911Z" fill="black"/>
<path d="M24.9397 30.8911H21.7397V34.0911H24.9397V30.8911Z" fill="black"/>
<path d="M28.1396 30.8911H24.9397V34.0911H28.1396V30.8911Z" fill="black"/>
<path d="M31.3298 30.8911H28.1296V34.0911H31.3298V30.8911Z" fill="black"/>
<path d="M44.1199 30.8911H40.9197V34.0911H44.1199V30.8911Z" fill="black"/>
<path d="M47.3098 30.8911H44.1099V34.0911H47.3098V30.8911Z" fill="black"/>
<path d="M50.5098 30.8911H47.3098V34.0911H50.5098V30.8911Z" fill="black"/>
<path d="M56.8997 30.8911H53.6997V34.0911H56.8997V30.8911Z" fill="black"/>
<path d="M63.2998 30.8911H60.0999V34.0911H63.2998V30.8911Z" fill="black"/>
<path d="M66.4897 30.8911H63.2898V34.0911H66.4897V30.8911Z" fill="black"/>
<path d="M69.6897 30.8911H66.4897V34.0911H69.6897V30.8911Z" fill="black"/>
<path d="M79.2798 30.8911H76.0798V34.0911H79.2798V30.8911Z" fill="black"/>
<path d="M88.8699 30.8911H85.6697V34.0911H88.8699V30.8911Z" fill="black"/>
<path d="M95.2598 30.8911H92.0598V34.0911H95.2598V30.8911Z" fill="black"/>
<path d="M98.4597 30.8911H95.2598V34.0911H98.4597V30.8911Z" fill="black"/>
<path d="M8.95972 34.0815H5.75977V37.2815H8.95972V34.0815Z" fill="black"/>
<path d="M15.3499 34.0815H12.1497V37.2815H15.3499V34.0815Z" fill="black"/>
<path d="M18.5498 34.0815H15.3499V37.2815H18.5498V34.0815Z" fill="black"/>
<path d="M31.3298 34.0815H28.1296V37.2815H31.3298V34.0815Z" fill="black"/>
<path d="M37.7297 34.0815H34.5298V37.2815H37.7297V34.0815Z" fill="black"/>
<path d="M47.3098 34.0815H44.1099V37.2815H47.3098V34.0815Z" fill="black"/>
<path d="M50.5098 34.0815H47.3098V37.2815H50.5098V34.0815Z" fill="black"/>
<path d="M53.7097 34.0815H50.5098V37.2815H53.7097V34.0815Z" fill="black"/>
<path d="M56.8997 34.0815H53.6997V37.2815H56.8997V34.0815Z" fill="black"/>
<path d="M66.4897 34.0815H63.2898V37.2815H66.4897V34.0815Z" fill="black"/>
<path d="M69.6897 34.0815H66.4897V37.2815H69.6897V34.0815Z" fill="black"/>
<path d="M72.8896 34.0815H69.6897V37.2815H72.8896V34.0815Z" fill="black"/>
<path d="M76.0798 34.0815H72.8796V37.2815H76.0798V34.0815Z" fill="black"/>
<path d="M79.2798 34.0815H76.0798V37.2815H79.2798V34.0815Z" fill="black"/>
<path d="M82.4697 34.0815H79.2698V37.2815H82.4697V34.0815Z" fill="black"/>
<path d="M85.6697 34.0815H82.4697V37.2815H85.6697V34.0815Z" fill="black"/>
<path d="M98.4597 34.0815H95.2598V37.2815H98.4597V34.0815Z" fill="black"/>
<path d="M12.1597 37.2812H8.95972V40.4813H12.1597V37.2812Z" fill="black"/>
<path d="M15.3499 37.2812H12.1497V40.4813H15.3499V37.2812Z" fill="black"/>
<path d="M21.7397 37.2812H18.5398V40.4813H21.7397V37.2812Z" fill="black"/>
<path d="M28.1396 37.2812H24.9397V40.4813H28.1396V37.2812Z" fill="black"/>
<path d="M34.5298 37.2812H31.3298V40.4813H34.5298V37.2812Z" fill="black"/>
<path d="M37.7297 37.2812H34.5298V40.4813H37.7297V37.2812Z" fill="black"/>
<path d="M44.1199 37.2812H40.9197V40.4813H44.1199V37.2812Z" fill="black"/>
<path d="M47.3098 37.2812H44.1099V40.4813H47.3098V37.2812Z" fill="black"/>
<path d="M50.5098 37.2812H47.3098V40.4813H50.5098V37.2812Z" fill="black"/>
<path d="M60.0999 37.2812H56.8997V40.4813H60.0999V37.2812Z" fill="black"/>
<path d="M79.2798 37.2812H76.0798V40.4813H79.2798V37.2812Z" fill="black"/>
<path d="M82.4697 37.2812H79.2698V40.4813H82.4697V37.2812Z" fill="black"/>
<path d="M85.6697 37.2812H82.4697V40.4813H85.6697V37.2812Z" fill="black"/>
<path d="M92.0598 37.2812H88.8599V40.4813H92.0598V37.2812Z" fill="black"/>
<path d="M95.2598 37.2812H92.0598V40.4813H95.2598V37.2812Z" fill="black"/>
<path d="M8.95972 40.4814H5.75977V43.6814H8.95972V40.4814Z" fill="black"/>
<path d="M12.1597 40.4814H8.95972V43.6814H12.1597V40.4814Z" fill="black"/>
<path d="M21.7397 40.4814H18.5398V43.6814H21.7397V40.4814Z" fill="black"/>
<path d="M24.9397 40.4814H21.7397V43.6814H24.9397V40.4814Z" fill="black"/>
<path d="M31.3298 40.4814H28.1296V43.6814H31.3298V40.4814Z" fill="black"/>
<path d="M34.5298 40.4814H31.3298V43.6814H34.5298V40.4814Z" fill="black"/>
<path d="M37.7297 40.4814H34.5298V43.6814H37.7297V40.4814Z" fill="black"/>
<path d="M40.9197 40.4814H37.7197V43.6814H40.9197V40.4814Z" fill="black"/>
<path d="M44.1199 40.4814H40.9197V43.6814H44.1199V40.4814Z" fill="black"/>
<path d="M47.3098 40.4814H44.1099V43.6814H47.3098V40.4814Z" fill="black"/>
<path d="M60.0999 40.4814H56.8997V43.6814H60.0999V40.4814Z" fill="black"/>
<path d="M66.4897 40.4814H63.2898V43.6814H66.4897V40.4814Z" fill="black"/>
<path d="M69.6897 40.4814H66.4897V43.6814H69.6897V40.4814Z" fill="black"/>
<path d="M72.8896 40.4814H69.6897V43.6814H72.8896V40.4814Z" fill="black"/>
<path d="M79.2798 40.4814H76.0798V43.6814H79.2798V40.4814Z" fill="black"/>
<path d="M82.4697 40.4814H79.2698V43.6814H82.4697V40.4814Z" fill="black"/>
<path d="M85.6697 40.4814H82.4697V43.6814H85.6697V40.4814Z" fill="black"/>
<path d="M98.4597 40.4814H95.2598V43.6814H98.4597V40.4814Z" fill="black"/>
<path d="M21.7397 43.6714H18.5398V46.8714H21.7397V43.6714Z" fill="black"/>
<path d="M28.1396 43.6714H24.9397V46.8714H28.1396V43.6714Z" fill="black"/>
<path d="M31.3298 43.6714H28.1296V46.8714H31.3298V43.6714Z" fill="black"/>
<path d="M53.7097 43.6714H50.5098V46.8714H53.7097V43.6714Z" fill="black"/>
<path d="M56.8997 43.6714H53.6997V46.8714H56.8997V43.6714Z" fill="black"/>
<path d="M63.2998 43.6714H60.0999V46.8714H63.2998V43.6714Z" fill="black"/>
<path d="M69.6897 43.6714H66.4897V46.8714H69.6897V43.6714Z" fill="black"/>
<path d="M88.8699 43.6714H85.6697V46.8714H88.8699V43.6714Z" fill="black"/>
<path d="M92.0598 43.6714H88.8599V46.8714H92.0598V43.6714Z" fill="black"/>
<path d="M12.1597 46.8716H8.95972V50.0716H12.1597V46.8716Z" fill="black"/>
<path d="M24.9397 46.8716H21.7397V50.0716H24.9397V46.8716Z" fill="black"/>
<path d="M31.3298 46.8716H28.1296V50.0716H31.3298V46.8716Z" fill="black"/>
<path d="M40.9197 46.8716H37.7197V50.0716H40.9197V46.8716Z" fill="black"/>
<path d="M44.1199 46.8716H40.9197V50.0716H44.1199V46.8716Z" fill="black"/>
<path d="M47.3098 46.8716H44.1099V50.0716H47.3098V46.8716Z" fill="black"/>
<path d="M53.7097 46.8716H50.5098V50.0716H53.7097V46.8716Z" fill="black"/>
<path d="M60.0999 46.8716H56.8997V50.0716H60.0999V46.8716Z" fill="black"/>
<path d="M69.6897 46.8716H66.4897V50.0716H69.6897V46.8716Z" fill="black"/>
<path d="M76.0798 46.8716H72.8796V50.0716H76.0798V46.8716Z" fill="black"/>
<path d="M79.2798 46.8716H76.0798V50.0716H79.2798V46.8716Z" fill="black"/>
<path d="M82.4697 46.8716H79.2698V50.0716H82.4697V46.8716Z" fill="black"/>
<path d="M92.0598 46.8716H88.8599V50.0716H92.0598V46.8716Z" fill="black"/>
<path d="M95.2598 46.8716H92.0598V50.0716H95.2598V46.8716Z" fill="black"/>
<path d="M98.4597 46.8716H95.2598V50.0716H98.4597V46.8716Z" fill="black"/>
<path d="M18.5498 50.0713H15.3499V53.2713H18.5498V50.0713Z" fill="black"/>
<path d="M21.7397 50.0713H18.5398V53.2713H21.7397V50.0713Z" fill="black"/>
<path d="M24.9397 50.0713H21.7397V53.2713H24.9397V50.0713Z" fill="black"/>
<path d="M28.1396 50.0713H24.9397V53.2713H28.1396V50.0713Z" fill="black"/>
<path d="M31.3298 50.0713H28.1296V53.2713H31.3298V50.0713Z" fill="black"/>
<path d="M34.5298 50.0713H31.3298V53.2713H34.5298V50.0713Z" fill="black"/>
<path d="M44.1199 50.0713H40.9197V53.2713H44.1199V50.0713Z" fill="black"/>
<path d="M47.3098 50.0713H44.1099V53.2713H47.3098V50.0713Z" fill="black"/>
<path d="M50.5098 50.0713H47.3098V53.2713H50.5098V50.0713Z" fill="black"/>
<path d="M56.8997 50.0713H53.6997V53.2713H56.8997V50.0713Z" fill="black"/>
<path d="M60.0999 50.0713H56.8997V53.2713H60.0999V50.0713Z" fill="black"/>
<path d="M63.2998 50.0713H60.0999V53.2713H63.2998V50.0713Z" fill="black"/>
<path d="M66.4897 50.0713H63.2898V53.2713H66.4897V50.0713Z" fill="black"/>
<path d="M69.6897 50.0713H66.4897V53.2713H69.6897V50.0713Z" fill="black"/>
<path d="M72.8896 50.0713H69.6897V53.2713H72.8896V50.0713Z" fill="black"/>
<path d="M82.4697 50.0713H79.2698V53.2713H82.4697V50.0713Z" fill="black"/>
<path d="M85.6697 50.0713H82.4697V53.2713H85.6697V50.0713Z" fill="black"/>
<path d="M92.0598 50.0713H88.8599V53.2713H92.0598V50.0713Z" fill="black"/>
<path d="M95.2598 50.0713H92.0598V53.2713H95.2598V50.0713Z" fill="black"/>
<path d="M98.4597 50.0713H95.2598V53.2713H98.4597V50.0713Z" fill="black"/>
<path d="M12.1597 53.2612H8.95972V56.4612H12.1597V53.2612Z" fill="black"/>
<path d="M15.3499 53.2612H12.1497V56.4612H15.3499V53.2612Z" fill="black"/>
<path d="M18.5498 53.2612H15.3499V56.4612H18.5498V53.2612Z" fill="black"/>
<path d="M24.9397 53.2612H21.7397V56.4612H24.9397V53.2612Z" fill="black"/>
<path d="M31.3298 53.2612H28.1296V56.4612H31.3298V53.2612Z" fill="black"/>
<path d="M34.5298 53.2612H31.3298V56.4612H34.5298V53.2612Z" fill="black"/>
<path d="M37.7297 53.2612H34.5298V56.4612H37.7297V53.2612Z" fill="black"/>
<path d="M47.3098 53.2612H44.1099V56.4612H47.3098V53.2612Z" fill="black"/>
<path d="M53.7097 53.2612H50.5098V56.4612H53.7097V53.2612Z" fill="black"/>
<path d="M60.0999 53.2612H56.8997V56.4612H60.0999V53.2612Z" fill="black"/>
<path d="M82.4697 53.2612H79.2698V56.4612H82.4697V53.2612Z" fill="black"/>
<path d="M85.6697 53.2612H82.4697V56.4612H85.6697V53.2612Z" fill="black"/>
<path d="M95.2598 53.2612H92.0598V56.4612H95.2598V53.2612Z" fill="black"/>
<path d="M8.95972 56.4614H5.75977V59.6614H8.95972V56.4614Z" fill="black"/>
<path d="M15.3499 56.4614H12.1497V59.6614H15.3499V56.4614Z" fill="black"/>
<path d="M18.5498 56.4614H15.3499V59.6614H18.5498V56.4614Z" fill="black"/>
<path d="M21.7397 56.4614H18.5398V59.6614H21.7397V56.4614Z" fill="black"/>
<path d="M24.9397 56.4614H21.7397V59.6614H24.9397V56.4614Z" fill="black"/>
<path d="M28.1396 56.4614H24.9397V59.6614H28.1396V56.4614Z" fill="black"/>
<path d="M37.7297 56.4614H34.5298V59.6614H37.7297V56.4614Z" fill="black"/>
<path d="M44.1199 56.4614H40.9197V59.6614H44.1199V56.4614Z" fill="black"/>
<path d="M53.7097 56.4614H50.5098V59.6614H53.7097V56.4614Z" fill="black"/>
<path d="M56.8997 56.4614H53.6997V59.6614H56.8997V56.4614Z" fill="black"/>
<path d="M60.0999 56.4614H56.8997V59.6614H60.0999V56.4614Z" fill="black"/>
<path d="M66.4897 56.4614H63.2898V59.6614H66.4897V56.4614Z" fill="black"/>
<path d="M69.6897 56.4614H66.4897V59.6614H69.6897V56.4614Z" fill="black"/>
<path d="M76.0798 56.4614H72.8796V59.6614H76.0798V56.4614Z" fill="black"/>
<path d="M85.6697 56.4614H82.4697V59.6614H85.6697V56.4614Z" fill="black"/>
<path d="M88.8699 56.4614H85.6697V59.6614H88.8699V56.4614Z" fill="black"/>
<path d="M95.2598 56.4614H92.0598V59.6614H95.2598V56.4614Z" fill="black"/>
<path d="M18.5498 59.6514H15.3499V62.8514H18.5498V59.6514Z" fill="black"/>
<path d="M21.7397 59.6514H18.5398V62.8514H21.7397V59.6514Z" fill="black"/>
<path d="M24.9397 59.6514H21.7397V62.8514H24.9397V59.6514Z" fill="black"/>
<path d="M34.5298 59.6514H31.3298V62.8514H34.5298V59.6514Z" fill="black"/>
<path d="M37.7297 59.6514H34.5298V62.8514H37.7297V59.6514Z" fill="black"/>
<path d="M53.7097 59.6514H50.5098V62.8514H53.7097V59.6514Z" fill="black"/>
<path d="M60.0999 59.6514H56.8997V62.8514H60.0999V59.6514Z" fill="black"/>
<path d="M63.2998 59.6514H60.0999V62.8514H63.2998V59.6514Z" fill="black"/>
<path d="M72.8896 59.6514H69.6897V62.8514H72.8896V59.6514Z" fill="black"/>
<path d="M76.0798 59.6514H72.8796V62.8514H76.0798V59.6514Z" fill="black"/>
<path d="M82.4697 59.6514H79.2698V62.8514H82.4697V59.6514Z" fill="black"/>
<path d="M88.8699 59.6514H85.6697V62.8514H88.8699V59.6514Z" fill="black"/>
<path d="M92.0598 59.6514H88.8599V62.8514H92.0598V59.6514Z" fill="black"/>
<path d="M95.2598 59.6514H92.0598V62.8514H95.2598V59.6514Z" fill="black"/>
<path d="M8.95972 62.8516H5.75977V66.0516H8.95972V62.8516Z" fill="black"/>
<path d="M28.1396 62.8516H24.9397V66.0516H28.1396V62.8516Z" fill="black"/>
<path d="M31.3298 62.8516H28.1296V66.0516H31.3298V62.8516Z" fill="black"/>
<path d="M37.7297 62.8516H34.5298V66.0516H37.7297V62.8516Z" fill="black"/>
<path d="M50.5098 62.8516H47.3098V66.0516H50.5098V62.8516Z" fill="black"/>
<path d="M53.7097 62.8516H50.5098V66.0516H53.7097V62.8516Z" fill="black"/>
<path d="M56.8997 62.8516H53.6997V66.0516H56.8997V62.8516Z" fill="black"/>
<path d="M60.0999 62.8516H56.8997V66.0516H60.0999V62.8516Z" fill="black"/>
<path d="M76.0798 62.8516H72.8796V66.0516H76.0798V62.8516Z" fill="black"/>
<path d="M82.4697 62.8516H79.2698V66.0516H82.4697V62.8516Z" fill="black"/>
<path d="M92.0598 62.8516H88.8599V66.0516H92.0598V62.8516Z" fill="black"/>
<path d="M15.3499 66.0513H12.1497V69.2513H15.3499V66.0513Z" fill="black"/>
<path d="M21.7397 66.0513H18.5398V69.2513H21.7397V66.0513Z" fill="black"/>
<path d="M24.9397 66.0513H21.7397V69.2513H24.9397V66.0513Z" fill="black"/>
<path d="M37.7297 66.0513H34.5298V69.2513H37.7297V66.0513Z" fill="black"/>
<path d="M40.9197 66.0513H37.7197V69.2513H40.9197V66.0513Z" fill="black"/>
<path d="M44.1199 66.0513H40.9197V69.2513H44.1199V66.0513Z" fill="black"/>
<path d="M47.3098 66.0513H44.1099V69.2513H47.3098V66.0513Z" fill="black"/>
<path d="M50.5098 66.0513H47.3098V69.2513H50.5098V66.0513Z" fill="black"/>
<path d="M53.7097 66.0513H50.5098V69.2513H53.7097V66.0513Z" fill="black"/>
<path d="M63.2998 66.0513H60.0999V69.2513H63.2998V66.0513Z" fill="black"/>
<path d="M66.4897 66.0513H63.2898V69.2513H66.4897V66.0513Z" fill="black"/>
<path d="M69.6897 66.0513H66.4897V69.2513H69.6897V66.0513Z" fill="black"/>
<path d="M92.0598 66.0513H88.8599V69.2513H92.0598V66.0513Z" fill="black"/>
<path d="M12.1597 69.2412H8.95972V72.4412H12.1597V69.2412Z" fill="black"/>
<path d="M21.7397 69.2412H18.5398V72.4412H21.7397V69.2412Z" fill="black"/>
<path d="M24.9397 69.2412H21.7397V72.4412H24.9397V69.2412Z" fill="black"/>
<path d="M28.1396 69.2412H24.9397V72.4412H28.1396V69.2412Z" fill="black"/>
<path d="M31.3298 69.2412H28.1296V72.4412H31.3298V69.2412Z" fill="black"/>
<path d="M34.5298 69.2412H31.3298V72.4412H34.5298V69.2412Z" fill="black"/>
<path d="M50.5098 69.2412H47.3098V72.4412H50.5098V69.2412Z" fill="black"/>
<path d="M53.7097 69.2412H50.5098V72.4412H53.7097V69.2412Z" fill="black"/>
<path d="M60.0999 69.2412H56.8997V72.4412H60.0999V69.2412Z" fill="black"/>
<path d="M63.2998 69.2412H60.0999V72.4412H63.2998V69.2412Z" fill="black"/>
<path d="M72.8896 69.2412H69.6897V72.4412H72.8896V69.2412Z" fill="black"/>
<path d="M76.0798 69.2412H72.8796V72.4412H76.0798V69.2412Z" fill="black"/>
<path d="M79.2798 69.2412H76.0798V72.4412H79.2798V69.2412Z" fill="black"/>
<path d="M82.4697 69.2412H79.2698V72.4412H82.4697V69.2412Z" fill="black"/>
<path d="M85.6697 69.2412H82.4697V72.4412H85.6697V69.2412Z" fill="black"/>
<path d="M88.8699 69.2412H85.6697V72.4412H88.8699V69.2412Z" fill="black"/>
<path d="M92.0598 69.2412H88.8599V72.4412H92.0598V69.2412Z" fill="black"/>
<path d="M34.5298 72.4414H31.3298V75.6414H34.5298V72.4414Z" fill="black"/>
<path d="M37.7297 72.4414H34.5298V75.6414H37.7297V72.4414Z" fill="black"/>
<path d="M44.1199 72.4414H40.9197V75.6414H44.1199V72.4414Z" fill="black"/>
<path d="M47.3098 72.4414H44.1099V75.6414H47.3098V72.4414Z" fill="black"/>
<path d="M56.8997 72.4414H53.6997V75.6414H56.8997V72.4414Z" fill="black"/>
<path d="M60.0999 72.4414H56.8997V75.6414H60.0999V72.4414Z" fill="black"/>
<path d="M63.2998 72.4414H60.0999V75.6414H63.2998V72.4414Z" fill="black"/>
<path d="M66.4897 72.4414H63.2898V75.6414H66.4897V72.4414Z" fill="black"/>
<path d="M72.8896 72.4414H69.6897V75.6414H72.8896V72.4414Z" fill="black"/>
<path d="M85.6697 72.4414H82.4697V75.6414H85.6697V72.4414Z" fill="black"/>
<path d="M88.8699 72.4414H85.6697V75.6414H88.8699V72.4414Z" fill="black"/>
<path d="M92.0598 72.4414H88.8599V75.6414H92.0598V72.4414Z" fill="black"/>
<path d="M95.2598 72.4414H92.0598V75.6414H95.2598V72.4414Z" fill="black"/>
<path d="M98.4597 72.4414H95.2598V75.6414H98.4597V72.4414Z" fill="black"/>
<path d="M34.5298 75.6411H31.3298V78.8411H34.5298V75.6411Z" fill="black"/>
<path d="M37.7297 75.6411H34.5298V78.8411H37.7297V75.6411Z" fill="black"/>
<path d="M40.9197 75.6411H37.7197V78.8411H40.9197V75.6411Z" fill="black"/>
<path d="M44.1199 75.6411H40.9197V78.8411H44.1199V75.6411Z" fill="black"/>
<path d="M47.3098 75.6411H44.1099V78.8411H47.3098V75.6411Z" fill="black"/>
<path d="M53.7097 75.6411H50.5098V78.8411H53.7097V75.6411Z" fill="black"/>
<path d="M56.8997 75.6411H53.6997V78.8411H56.8997V75.6411Z" fill="black"/>
<path d="M66.4897 75.6411H63.2898V78.8411H66.4897V75.6411Z" fill="black"/>
<path d="M69.6897 75.6411H66.4897V78.8411H69.6897V75.6411Z" fill="black"/>
<path d="M72.8896 75.6411H69.6897V78.8411H72.8896V75.6411Z" fill="black"/>
<path d="M79.2798 75.6411H76.0798V78.8411H79.2798V75.6411Z" fill="black"/>
<path d="M85.6697 75.6411H82.4697V78.8411H85.6697V75.6411Z" fill="black"/>
<path d="M88.8699 75.6411H85.6697V78.8411H88.8699V75.6411Z" fill="black"/>
<path d="M95.2598 75.6411H92.0598V78.8411H95.2598V75.6411Z" fill="black"/>
<path d="M34.5298 78.8315H31.3298V82.0315H34.5298V78.8315Z" fill="black"/>
<path d="M47.3098 78.8315H44.1099V82.0315H47.3098V78.8315Z" fill="black"/>
<path d="M50.5098 78.8315H47.3098V82.0315H50.5098V78.8315Z" fill="black"/>
<path d="M53.7097 78.8315H50.5098V82.0315H53.7097V78.8315Z" fill="black"/>
<path d="M56.8997 78.8315H53.6997V82.0315H56.8997V78.8315Z" fill="black"/>
<path d="M66.4897 78.8315H63.2898V82.0315H66.4897V78.8315Z" fill="black"/>
<path d="M72.8896 78.8315H69.6897V82.0315H72.8896V78.8315Z" fill="black"/>
<path d="M85.6697 78.8315H82.4697V82.0315H85.6697V78.8315Z" fill="black"/>
<path d="M88.8699 78.8315H85.6697V82.0315H88.8699V78.8315Z" fill="black"/>
<path d="M98.4597 78.8315H95.2598V82.0315H98.4597V78.8315Z" fill="black"/>
<path d="M37.7297 82.0312H34.5298V85.2312H37.7297V82.0312Z" fill="black"/>
<path d="M44.1199 82.0312H40.9197V85.2312H44.1199V82.0312Z" fill="black"/>
<path d="M47.3098 82.0312H44.1099V85.2312H47.3098V82.0312Z" fill="black"/>
<path d="M60.0999 82.0312H56.8997V85.2312H60.0999V82.0312Z" fill="black"/>
<path d="M66.4897 82.0312H63.2898V85.2312H66.4897V82.0312Z" fill="black"/>
<path d="M72.8896 82.0312H69.6897V85.2312H72.8896V82.0312Z" fill="black"/>
<path d="M76.0798 82.0312H72.8796V85.2312H76.0798V82.0312Z" fill="black"/>
<path d="M79.2798 82.0312H76.0798V85.2312H79.2798V82.0312Z" fill="black"/>
<path d="M82.4697 82.0312H79.2698V85.2312H82.4697V82.0312Z" fill="black"/>
<path d="M85.6697 82.0312H82.4697V85.2312H85.6697V82.0312Z" fill="black"/>
<path d="M92.0598 82.0312H88.8599V85.2312H92.0598V82.0312Z" fill="black"/>
<path d="M98.4597 82.0312H95.2598V85.2312H98.4597V82.0312Z" fill="black"/>
<path d="M34.5298 85.2212H31.3298V88.4212H34.5298V85.2212Z" fill="black"/>
<path d="M37.7297 85.2212H34.5298V88.4212H37.7297V85.2212Z" fill="black"/>
<path d="M44.1199 85.2212H40.9197V88.4212H44.1199V85.2212Z" fill="black"/>
<path d="M50.5098 85.2212H47.3098V88.4212H50.5098V85.2212Z" fill="black"/>
<path d="M76.0798 85.2212H72.8796V88.4212H76.0798V85.2212Z" fill="black"/>
<path d="M85.6697 85.2212H82.4697V88.4212H85.6697V85.2212Z" fill="black"/>
<path d="M88.8699 85.2212H85.6697V88.4212H88.8699V85.2212Z" fill="black"/>
<path d="M95.2598 85.2212H92.0598V88.4212H95.2598V85.2212Z" fill="black"/>
<path d="M34.5298 88.4214H31.3298V91.6214H34.5298V88.4214Z" fill="black"/>
<path d="M37.7297 88.4214H34.5298V91.6214H37.7297V88.4214Z" fill="black"/>
<path d="M40.9197 88.4214H37.7197V91.6214H40.9197V88.4214Z" fill="black"/>
<path d="M44.1199 88.4214H40.9197V91.6214H44.1199V88.4214Z" fill="black"/>
<path d="M63.2998 88.4214H60.0999V91.6214H63.2998V88.4214Z" fill="black"/>
<path d="M66.4897 88.4214H63.2898V91.6214H66.4897V88.4214Z" fill="black"/>
<path d="M69.6897 88.4214H66.4897V91.6214H69.6897V88.4214Z" fill="black"/>
<path d="M82.4697 88.4214H79.2698V91.6214H82.4697V88.4214Z" fill="black"/>
<path d="M92.0598 88.4214H88.8599V91.6214H92.0598V88.4214Z" fill="black"/>
<path d="M98.4597 88.4214H95.2598V91.6214H98.4597V88.4214Z" fill="black"/>
<path d="M37.7297 91.6211H34.5298V94.8211H37.7297V91.6211Z" fill="black"/>
<path d="M40.9197 91.6211H37.7197V94.8211H40.9197V91.6211Z" fill="black"/>
<path d="M50.5098 91.6211H47.3098V94.8211H50.5098V91.6211Z" fill="black"/>
<path d="M53.7097 91.6211H50.5098V94.8211H53.7097V91.6211Z" fill="black"/>
<path d="M56.8997 91.6211H53.6997V94.8211H56.8997V91.6211Z" fill="black"/>
<path d="M63.2998 91.6211H60.0999V94.8211H63.2998V91.6211Z" fill="black"/>
<path d="M66.4897 91.6211H63.2898V94.8211H66.4897V91.6211Z" fill="black"/>
<path d="M69.6897 91.6211H66.4897V94.8211H69.6897V91.6211Z" fill="black"/>
<path d="M72.8896 91.6211H69.6897V94.8211H72.8896V91.6211Z" fill="black"/>
<path d="M82.4697 91.6211H79.2698V94.8211H82.4697V91.6211Z" fill="black"/>
<path d="M88.8699 91.6211H85.6697V94.8211H88.8699V91.6211Z" fill="black"/>
<path d="M95.2598 91.6211H92.0598V94.8211H95.2598V91.6211Z" fill="black"/>
<path d="M34.5298 94.8115H31.3298V98.0115H34.5298V94.8115Z" fill="black"/>
<path d="M47.3098 94.8115H44.1099V98.0115H47.3098V94.8115Z" fill="black"/>
<path d="M63.2998 94.8115H60.0999V98.0115H63.2998V94.8115Z" fill="black"/>
<path d="M66.4897 94.8115H63.2898V98.0115H66.4897V94.8115Z" fill="black"/>
<path d="M69.6897 94.8115H66.4897V98.0115H69.6897V94.8115Z" fill="black"/>
<path d="M72.8896 94.8115H69.6897V98.0115H72.8896V94.8115Z" fill="black"/>
<path d="M76.0798 94.8115H72.8796V98.0115H76.0798V94.8115Z" fill="black"/>
<path d="M88.8699 94.8115H85.6697V98.0115H88.8699V94.8115Z" fill="black"/>
<path d="M95.2598 94.8115H92.0598V98.0115H95.2598V94.8115Z" fill="black"/>
<path d="M24.7798 5.31152H5.77979V27.6915H28.1598V5.31152H24.7798ZM24.7798 24.3115H9.11978V8.67152H24.7798V24.3115Z" fill="black"/>
<path d="M95.0999 5.31152H76.0999V27.6915H98.4698V5.31152H95.0999ZM95.0999 24.3115H79.4698V8.67152H95.1299L95.0999 24.3115Z" fill="black"/>
<path d="M24.7798 75.6313H5.77979V98.0114H28.1598V75.6313H24.7798ZM24.7798 94.6313H9.11978V78.9913H24.7798V94.6313Z" fill="black"/>
<path d="M21.7397 11.7114H12.1497V21.3014H21.7397V11.7114Z" fill="#388ACA"/>
<path d="M92.0598 11.7114H82.4697V21.3014H92.0598V11.7114Z" fill="#388ACA"/>
<path d="M21.7397 82.0312H12.1497V91.6212H21.7397V82.0312Z" fill="#388ACA"/>
</svg>
