<svg width="61" height="60" viewBox="0 0 61 60" fill="none" xmlns="http://www.w3.org/2000/svg">
<path opacity="0.7" d="M42.4466 19.96H5.1875C4.15197 19.96 3.3125 20.7994 3.3125 21.835V45.579C3.3125 46.6146 4.15197 47.454 5.1875 47.454H42.4466C43.4821 47.454 44.3216 46.6146 44.3216 45.579V21.835C44.3216 20.7994 43.4821 19.96 42.4466 19.96Z" fill="url(#paint0_linear_3907_18413)"/>
<path opacity="0.4" d="M40.5706 40.72V26.694C39.7792 26.694 39.0202 26.3796 38.4606 25.82C37.901 25.2604 37.5866 24.5014 37.5866 23.71H10.0466C10.0466 24.5014 9.73217 25.2604 9.17255 25.82C8.61293 26.3796 7.85392 26.694 7.0625 26.694V40.72C7.85392 40.72 8.61293 41.0344 9.17255 41.594C9.73217 42.1536 10.0466 42.9126 10.0466 43.704H37.5866C37.5866 42.9126 37.901 42.1536 38.4606 41.594C39.0202 41.0344 39.7792 40.72 40.5706 40.72Z" fill="url(#paint1_linear_3907_18413)"/>
<path opacity="0.3" d="M49.5755 25.0615H44.3217V45.5796C44.3217 46.0769 44.1242 46.5538 43.7725 46.9055C43.4209 47.2571 42.944 47.4546 42.4467 47.4546H10.4414V50.6806C10.4414 51.1779 10.639 51.6548 10.9906 52.0064C11.3422 52.358 11.8191 52.5556 12.3164 52.5556H49.5755C50.0728 52.5556 50.5497 52.358 50.9013 52.0064C51.2529 51.6548 51.4505 51.1779 51.4505 50.6806V26.9365C51.4505 26.4392 51.2529 25.9623 50.9013 25.6107C50.5497 25.2591 50.0728 25.0615 49.5755 25.0615Z" fill="url(#paint2_linear_3907_18413)"/>
<path d="M55.8128 30.1621H51.4506V50.6802C51.4506 51.1775 51.253 51.6544 50.9014 52.0061C50.5498 52.3577 50.0729 52.5552 49.5756 52.5552H16.6787V55.7812C16.6787 56.2785 16.8763 56.7554 17.2279 57.107C17.5795 57.4586 18.0564 57.6562 18.5537 57.6562H55.8128C56.3101 57.6562 56.787 57.4586 57.1386 57.107C57.4902 56.7554 57.6878 56.2785 57.6878 55.7812V32.0371C57.6878 31.5398 57.4902 31.0629 57.1386 30.7113C56.787 30.3597 56.3101 30.1621 55.8128 30.1621Z" fill="#EBF5FC"/>
<path opacity="0.3" d="M23.4621 7.33767H33.2196C33.4683 7.33767 33.7067 7.2389 33.8826 7.06308C34.0584 6.88727 34.1571 6.64881 34.1571 6.40017C34.1571 6.15153 34.0584 5.91307 33.8826 5.73726C33.7067 5.56144 33.4683 5.46267 33.2196 5.46267H23.4621L24.9809 3.94392C25.0679 3.85688 25.137 3.75355 25.1841 3.63982C25.2312 3.52609 25.2554 3.4042 25.2554 3.28111C25.2554 3.15801 25.2312 3.03612 25.1841 2.9224C25.137 2.80867 25.0679 2.70534 24.9809 2.6183C24.8939 2.53125 24.7905 2.46221 24.6768 2.4151C24.5631 2.368 24.4412 2.34375 24.3181 2.34375C24.195 2.34375 24.0731 2.368 23.9594 2.4151C23.8456 2.46221 23.7423 2.53125 23.6553 2.6183L20.5362 5.73736C20.3605 5.91317 20.2617 6.15158 20.2617 6.40017C20.2617 6.64876 20.3605 6.88718 20.5362 7.06298L23.6553 10.182C23.7423 10.2691 23.8456 10.3381 23.9594 10.3852C24.0731 10.4323 24.195 10.4566 24.3181 10.4566C24.4412 10.4566 24.5631 10.4323 24.6768 10.3852C24.7905 10.3381 24.8939 10.2691 24.9809 10.182C25.0679 10.095 25.137 9.99167 25.1841 9.87795C25.2312 9.76422 25.2554 9.64233 25.2554 9.51923C25.2554 9.39614 25.2312 9.27425 25.1841 9.16052C25.137 9.0468 25.0679 8.94346 24.9809 8.85642L23.4621 7.33767ZM40.4637 12.2999L37.3446 9.1808C37.1689 9.00501 36.9304 8.90625 36.6818 8.90625C36.4332 8.90625 36.1948 9.00501 36.019 9.1808C35.8432 9.35659 35.7445 9.59501 35.7445 9.84361C35.7445 10.0922 35.8432 10.3306 36.019 10.5064L37.5378 12.0252H27.7812C27.5326 12.0252 27.2941 12.1239 27.1183 12.2998C26.9425 12.4756 26.8437 12.714 26.8437 12.9627C26.8437 13.2113 26.9425 13.4498 27.1183 13.6256C27.2941 13.8014 27.5326 13.9002 27.7812 13.9002H37.5378L36.019 15.4189C35.932 15.506 35.8629 15.6093 35.8158 15.723C35.7687 15.8367 35.7445 15.9586 35.7445 16.0817C35.7445 16.2048 35.7687 16.3267 35.8158 16.4404C35.8629 16.5542 35.932 16.6575 36.019 16.7445C36.1061 16.8316 36.2094 16.9006 36.3231 16.9477C36.4368 16.9948 36.5587 17.0191 36.6818 17.0191C36.8049 17.0191 36.9268 16.9948 37.0405 16.9477C37.1543 16.9006 37.2576 16.8316 37.3446 16.7445L40.4637 13.6255C40.5511 13.5386 40.6204 13.4353 40.6677 13.3216C40.715 13.2078 40.7394 13.0859 40.7394 12.9627C40.7394 12.8395 40.715 12.7175 40.6677 12.6037C40.6204 12.49 40.5511 12.3867 40.4637 12.2999Z" fill="url(#paint3_linear_3907_18413)"/>
<path d="M23.8165 37.458C25.8876 37.458 27.5665 35.7791 27.5665 33.708C27.5665 31.6369 25.8876 29.958 23.8165 29.958C21.7455 29.958 20.0665 31.6369 20.0665 33.708C20.0665 35.7791 21.7455 37.458 23.8165 37.458Z" fill="#EBF5FC"/>
<defs>
<linearGradient id="paint0_linear_3907_18413" x1="3.3125" y1="33.707" x2="44.3216" y2="33.707" gradientUnits="userSpaceOnUse">
<stop stop-color="#A298FF"/>
<stop offset="1" stop-color="#1700E8"/>
</linearGradient>
<linearGradient id="paint1_linear_3907_18413" x1="7.0625" y1="33.707" x2="40.5706" y2="33.707" gradientUnits="userSpaceOnUse">
<stop stop-color="#A298FF"/>
<stop offset="1" stop-color="#1700E8"/>
</linearGradient>
<linearGradient id="paint2_linear_3907_18413" x1="10.4414" y1="38.8086" x2="51.4505" y2="38.8086" gradientUnits="userSpaceOnUse">
<stop stop-color="#A298FF"/>
<stop offset="1" stop-color="#1700E8"/>
</linearGradient>
<linearGradient id="paint3_linear_3907_18413" x1="20.2617" y1="9.68142" x2="40.7394" y2="9.68142" gradientUnits="userSpaceOnUse">
<stop stop-color="#A298FF"/>
<stop offset="1" stop-color="#1700E8"/>
</linearGradient>
</defs>
</svg>
