<svg width="24" height="24" viewBox="0 0 24 24" fill="none" xmlns="http://www.w3.org/2000/svg">
<g clip-path="url(#clip0_3907_15627)">
<path d="M23.7413 13.0802L22.5516 12.6939C22.405 12.1345 22.1825 11.5977 21.8902 11.0987L22.4583 9.98406C22.5319 9.83922 22.5042 9.66344 22.3894 9.54812L21.1191 8.27781C21.0631 8.22175 20.9908 8.18488 20.9125 8.17249C20.8343 8.16011 20.7541 8.17286 20.6836 8.20891L19.5689 8.77703C19.0696 8.48529 18.533 8.26278 17.9738 8.11562L17.5875 6.92734C17.563 6.85196 17.5152 6.78628 17.451 6.73971C17.3868 6.69315 17.3096 6.66809 17.2303 6.66812H15.4341C15.2714 6.66812 15.1275 6.77266 15.0769 6.92734L14.6902 8.11562C14.1311 8.26276 13.5946 8.48527 13.0955 8.77703L11.9813 8.20891C11.9106 8.17289 11.8304 8.16017 11.7521 8.17254C11.6738 8.18492 11.6014 8.22177 11.5453 8.27781L10.275 9.54812C10.219 9.60421 10.1821 9.67659 10.1697 9.7549C10.1574 9.83321 10.1701 9.91343 10.2061 9.98406L10.6209 10.7997C10.4527 10.7842 10.282 10.7762 10.11 10.7762H5.61469C2.51859 10.7762 0 13.2948 0 16.3909V20.8314C0 21.4778 0.525937 22.0042 1.17281 22.0042H14.55C14.7609 22.0042 14.9592 21.948 15.1303 21.85C15.1651 21.8978 15.2107 21.9367 15.2635 21.9635C15.3162 21.9903 15.3745 22.0042 15.4336 22.0042H17.2298C17.3925 22.0042 17.5364 21.8997 17.587 21.745L17.9733 20.5567C18.5328 20.41 19.0697 20.1875 19.5689 19.8953L20.6836 20.4634C20.8284 20.537 21.0042 20.5094 21.1195 20.3945L22.3898 19.1242C22.4459 19.0681 22.4827 18.9958 22.4951 18.9174C22.5075 18.8391 22.4948 18.7589 22.4587 18.6883L21.8906 17.5736C22.1825 17.0744 22.405 16.5377 22.552 15.9784L23.7417 15.5922C23.8171 15.5676 23.8828 15.5199 23.9293 15.4557C23.9759 15.3915 24.001 15.3143 24.0009 15.235V13.4373C24.0008 13.358 23.9756 13.2808 23.929 13.2167C23.8823 13.1525 23.8166 13.1047 23.7413 13.0802ZM8.68969 16.0417L7.86094 17.5098L7.03266 16.0417L7.45359 11.5272H8.26969L8.68969 16.0417ZM14.55 21.2533H12.0633V18.4928C12.0633 18.2856 11.8955 18.1173 11.6878 18.1173C11.4802 18.1173 11.3123 18.2852 11.3123 18.4928V21.2533H4.40953V18.4928C4.40953 18.2856 4.24172 18.1173 4.03406 18.1173C3.82641 18.1173 3.65859 18.2852 3.65859 18.4928V21.2533H1.17188C0.939375 21.2533 0.75 21.0639 0.75 20.8314V16.3909C0.75 13.7088 2.93203 11.5272 5.61375 11.5272H6.69938L6.27375 16.0891C6.26672 16.1653 6.28307 16.2418 6.32062 16.3084L7.53375 18.4586C7.60031 18.5767 7.725 18.6494 7.86047 18.6494C7.99594 18.6494 8.12063 18.5763 8.18719 18.4586L9.40031 16.3084C9.43787 16.2418 9.45422 16.1653 9.44719 16.0891L9.02297 11.5272H10.1086C11.2191 11.5272 12.2433 11.9017 13.0631 12.5308C13.0791 12.5472 13.0969 12.5622 13.1166 12.5758C13.1231 12.5805 13.1297 12.5842 13.1362 12.588C14.2537 13.48 14.9714 14.8534 14.9714 16.3914V20.8319C14.9719 21.0644 14.7825 21.2533 14.55 21.2533ZM13.8492 12.2078C14.4675 11.4869 15.3727 11.0645 16.3317 11.0645C18.135 11.0645 19.6027 12.5317 19.6027 14.335C19.6027 16.1392 18.1355 17.6069 16.3317 17.6069C16.1278 17.6069 15.9239 17.5872 15.7223 17.5487V16.3905C15.7223 14.7306 14.9981 13.2367 13.8492 12.2078ZM23.25 14.9622L22.1213 15.3283C22.0593 15.3483 22.0036 15.3842 21.9596 15.4322C21.9156 15.4803 21.8849 15.539 21.8705 15.6025C21.7296 16.2246 21.4835 16.8181 21.143 17.3575C21.1083 17.4125 21.0885 17.4757 21.0855 17.5407C21.0826 17.6057 21.0965 17.6703 21.1261 17.7283L21.6652 18.7858L20.7806 19.6703L19.7231 19.1312C19.6652 19.1016 19.6005 19.0875 19.5355 19.0905C19.4705 19.0934 19.4073 19.1133 19.3523 19.1481C18.813 19.4887 18.2195 19.7347 17.5973 19.8756C17.5339 19.89 17.4752 19.9207 17.4272 19.9646C17.3791 20.0084 17.3433 20.064 17.3231 20.1259L16.957 21.2533H15.7059L15.6755 21.1591C15.7059 21.055 15.7223 20.9453 15.7223 20.8314V18.3109C15.9239 18.3419 16.1278 18.3583 16.3317 18.3583C18.5494 18.3583 20.3531 16.5536 20.3531 14.3355C20.3531 12.1183 18.5489 10.3141 16.3317 10.3141C15.1406 10.3141 14.018 10.8428 13.2572 11.7447C12.7345 11.389 12.1554 11.1245 11.5444 10.9623C11.5416 10.9562 11.5392 10.9502 11.5364 10.9441L10.9983 9.88562L11.8828 9.00109L12.9408 9.54016C12.9987 9.56963 13.0633 9.58356 13.1282 9.58061C13.1931 9.57765 13.2561 9.5579 13.3111 9.52328C13.853 9.18203 14.4431 8.93687 15.0652 8.79578C15.1285 8.78146 15.187 8.75095 15.235 8.70724C15.2829 8.66353 15.3188 8.60811 15.3389 8.54641L15.7064 7.41812H16.9575L17.3236 8.54547C17.3436 8.60743 17.3794 8.6631 17.4275 8.707C17.4756 8.75089 17.5343 8.78149 17.5978 8.79578C18.2203 8.93687 18.8109 9.18156 19.3528 9.52328C19.4079 9.55798 19.471 9.57778 19.536 9.58074C19.601 9.5837 19.6656 9.56971 19.7236 9.54016L20.7811 9.00109L21.6656 9.88562L21.1266 10.9431C21.097 11.0011 21.083 11.0657 21.0859 11.1307C21.0889 11.1958 21.1087 11.2589 21.1434 11.3139C21.484 11.8533 21.73 12.4468 21.8709 13.0689C21.8854 13.1324 21.9161 13.1911 21.9601 13.2392C22.004 13.2872 22.0597 13.3231 22.1217 13.3431L23.2505 13.7092V14.9622H23.25ZM7.86094 10.1439C10.1072 10.1439 11.9344 8.31625 11.9344 6.06953C11.9344 3.82328 10.1072 1.99609 7.86094 1.99609C5.61516 1.99609 3.7875 3.82328 3.7875 6.06953C3.7875 8.31625 5.61516 10.1439 7.86094 10.1439ZM7.86094 2.74703C9.69281 2.74703 11.1834 4.23766 11.1834 6.06953C11.1834 7.90234 9.69281 9.39344 7.86094 9.39344C6.02906 9.39344 4.53844 7.90234 4.53844 6.06953C4.53844 4.23719 6.02906 2.74703 7.86094 2.74703Z" fill="#6B7280"/>
</g>
<defs>
<clipPath id="clip0_3907_15627">
<rect width="24" height="24" fill="white"/>
</clipPath>
</defs>
</svg>
