<svg width="24" height="24" viewBox="0 0 24 24" fill="none" xmlns="http://www.w3.org/2000/svg">
<path d="M18.0698 8.51062L9.50978 4.23062C3.75978 1.35062 1.39978 3.71062 4.27978 9.46062L5.14978 11.2006C5.39978 11.7106 5.39978 12.3006 5.14978 12.8106L4.27978 14.5406C1.39978 20.2906 3.74978 22.6506 9.50978 19.7706L18.0698 15.4906C21.9098 13.5706 21.9098 10.4306 18.0698 8.51062ZM14.8398 12.7506H9.43977C9.02978 12.7506 8.68977 12.4106 8.68977 12.0006C8.68977 11.5906 9.02978 11.2506 9.43977 11.2506H14.8398C15.2498 11.2506 15.5898 11.5906 15.5898 12.0006C15.5898 12.4106 15.2498 12.7506 14.8398 12.7506Z" fill="#3369FF"/>
</svg>
