<svg width="20" height="20" viewBox="0 0 20 20" fill="none" xmlns="http://www.w3.org/2000/svg">
<path d="M16.1602 7.55685L15.8694 7.39506C15.8242 7.36994 15.802 7.35733 15.7802 7.34427C15.5634 7.21436 15.3806 7.03488 15.2472 6.82014C15.2338 6.79854 15.2211 6.77588 15.1952 6.7311C15.1694 6.68637 15.1563 6.66371 15.1443 6.64127C15.0247 6.41787 14.9599 6.16891 14.9561 5.91551C14.9557 5.89004 14.9558 5.86401 14.9566 5.81226L14.9623 5.47455C14.9714 4.93413 14.976 4.66309 14.9 4.41983C14.8326 4.20377 14.7197 4.00476 14.569 3.83587C14.3986 3.64496 14.1628 3.50876 13.6907 3.23671L13.2986 3.01074C12.8278 2.73945 12.5923 2.60376 12.3424 2.55203C12.1213 2.50626 11.8931 2.50839 11.6728 2.55785C11.4241 2.61367 11.1916 2.7529 10.7268 3.03119L10.7242 3.03245L10.4432 3.2007C10.3988 3.2273 10.3763 3.24071 10.354 3.25309C10.133 3.37595 9.88632 3.44389 9.6336 3.452C9.60814 3.45282 9.58223 3.45282 9.53042 3.45282C9.47894 3.45282 9.45192 3.45282 9.4265 3.452C9.17324 3.44386 8.92603 3.37555 8.7047 3.25218C8.68239 3.23974 8.66033 3.22623 8.61581 3.1995L8.33304 3.02974C7.86509 2.74881 7.63076 2.60813 7.38072 2.55203C7.1595 2.5024 6.93053 2.50102 6.7086 2.54738C6.45802 2.59972 6.22249 2.73641 5.75143 3.00981L5.74934 3.01074L5.36208 3.2355L5.35779 3.23813C4.89098 3.50906 4.657 3.64485 4.48808 3.83498C4.33818 4.0037 4.22614 4.2024 4.15908 4.4179C4.08328 4.66148 4.08732 4.93311 4.09645 5.47607L4.10213 5.8133C4.10299 5.86437 4.10448 5.88975 4.1041 5.91486C4.10034 6.16878 4.03477 6.41825 3.91477 6.64205C3.9029 6.66418 3.89011 6.68631 3.86458 6.73052C3.83902 6.77476 3.82665 6.79676 3.81339 6.81811C3.67941 7.034 3.49579 7.21453 3.27756 7.34465C3.25597 7.35752 3.23322 7.3699 3.18852 7.39467L2.9014 7.55379C2.42368 7.81852 2.18488 7.95101 2.01112 8.13954C1.8574 8.30633 1.74127 8.50416 1.67039 8.71962C1.59026 8.96318 1.59033 9.23629 1.59157 9.78245L1.59258 10.2288C1.59382 10.7714 1.59551 11.0424 1.67581 11.2843C1.74686 11.4984 1.86214 11.695 2.015 11.8608C2.18778 12.0482 2.4242 12.1799 2.8983 12.4436L3.18286 12.6019C3.23129 12.6288 3.25566 12.6421 3.27901 12.6562C3.49526 12.7864 3.67744 12.9665 3.81029 13.1811C3.82464 13.2043 3.83842 13.2284 3.86597 13.2765C3.89318 13.324 3.9071 13.3478 3.91969 13.3716C4.03616 13.5921 4.09852 13.8372 4.10277 14.0865C4.10323 14.1135 4.10284 14.1407 4.10192 14.1955L4.09645 14.5191C4.08725 15.0639 4.08325 15.3366 4.1595 15.5809C4.22695 15.797 4.3397 15.996 4.49041 16.1649C4.66077 16.3558 4.89694 16.4919 5.36906 16.7639L5.76112 16.9899C6.23191 17.2612 6.46722 17.3967 6.71716 17.4484C6.93828 17.4942 7.1666 17.4924 7.38692 17.4429C7.63594 17.387 7.86926 17.2473 8.33537 16.9682L8.61634 16.8C8.66079 16.7734 8.68331 16.76 8.70558 16.7477C8.92656 16.6248 9.17301 16.5565 9.42573 16.5484C9.4512 16.5476 9.4771 16.5476 9.52891 16.5476C9.58083 16.5476 9.60672 16.5476 9.63224 16.5484C9.8855 16.5565 10.1335 16.6251 10.3548 16.7484C10.3743 16.7593 10.3938 16.771 10.428 16.7916L10.7267 16.9709C11.1947 17.2519 11.4286 17.3922 11.6786 17.4483C11.8999 17.4979 12.129 17.4999 12.3509 17.4536C12.6014 17.4012 12.8374 17.2643 13.3082 16.991L13.7013 16.7629C14.1684 16.4918 14.4027 16.3558 14.5716 16.1656C14.7215 15.9969 14.8337 15.7983 14.9008 15.5828C14.976 15.341 14.9715 15.0715 14.9625 14.5363L14.9566 14.1873C14.9558 14.1363 14.9557 14.1108 14.956 14.0857C14.9598 13.8318 15.0243 13.5822 15.1443 13.3584C15.1562 13.3363 15.169 13.314 15.1945 13.2699C15.22 13.2257 15.2333 13.2036 15.2465 13.1823C15.3805 12.9664 15.5643 12.7857 15.7825 12.6556C15.8039 12.6429 15.8258 12.6307 15.8695 12.6065L15.871 12.6058L16.1581 12.4467C16.6358 12.182 16.8751 12.0493 17.0488 11.8608C17.2025 11.694 17.3185 11.4965 17.3894 11.281C17.469 11.0389 17.4684 10.7674 17.4672 10.2276L17.4662 9.7716C17.4649 9.22908 17.4643 8.95804 17.384 8.71613C17.3129 8.50212 17.197 8.30544 17.0441 8.13966C16.8715 7.95246 16.6348 7.82075 16.1616 7.55752L16.1602 7.55685Z" stroke="#17181A" stroke-width="1.19118" stroke-linecap="round" stroke-linejoin="round"/>
<path d="M6.35317 10.0004C6.35317 11.7547 7.77533 13.1768 9.52964 13.1768C11.284 13.1768 12.7061 11.7547 12.7061 10.0004C12.7061 8.24605 11.284 6.8239 9.52964 6.8239C7.77533 6.8239 6.35317 8.24605 6.35317 10.0004Z" stroke="#17181A" stroke-width="1.19118" stroke-linecap="round" stroke-linejoin="round"/>
</svg>
