<svg width="48" height="48" viewBox="0 0 48 48" fill="none" xmlns="http://www.w3.org/2000/svg">
<path d="M41.13 23.1897C39.9709 22.0132 38.5881 21.0806 37.063 20.4469C35.538 19.8132 33.9015 19.4911 32.25 19.4997C31.748 19.496 31.2465 19.5311 30.75 19.6047L30.3 19.5147C30.0808 19.4699 29.8543 19.4748 29.6372 19.5289C29.4201 19.583 29.2179 19.6849 29.0453 19.8273C28.8727 19.9697 28.7342 20.1489 28.6398 20.3517C28.5455 20.5546 28.4977 20.776 28.5 20.9997V34.4997C28.5 34.8975 28.658 35.2791 28.9393 35.5604C29.2206 35.8417 29.6021 35.9997 30 35.9997H40.845C41.8926 35.9957 42.896 35.5768 43.6354 34.8346C44.3748 34.0923 44.79 33.0874 44.79 32.0397C44.7943 30.396 44.4732 28.7677 43.845 27.2487C43.2168 25.7297 42.294 24.3502 41.13 23.1897ZM19.5 19.4997L17.46 19.6197C16.8951 19.5254 16.3225 19.4852 15.75 19.4997C14.1026 19.4977 12.4711 19.8207 10.9488 20.4502C9.42647 21.0797 8.04329 22.0033 6.87845 23.1682C5.71361 24.333 4.78999 25.7162 4.1605 27.2385C3.53101 28.7608 3.208 30.3924 3.20997 32.0397C3.20996 33.0874 3.62512 34.0923 4.36452 34.8346C5.10392 35.5768 6.10731 35.9957 7.15497 35.9997H19.5C19.8978 35.9997 20.2793 35.8417 20.5606 35.5604C20.8419 35.2791 21 34.8975 21 34.4997V20.9997C21.0012 20.7951 20.9606 20.5924 20.8807 20.4041C20.8007 20.2158 20.6831 20.0459 20.535 19.9047C20.2499 19.6496 19.8825 19.5058 19.5 19.4997Z" fill="url(#paint0_linear_3907_29353)"/>
<path d="M24 25.5C20.6754 25.504 17.4881 26.8264 15.1372 29.1773C12.7864 31.5281 11.4639 34.7154 11.46 38.04C11.46 39.0877 11.8751 40.0926 12.6145 40.8349C13.3539 41.5771 14.3573 41.996 15.405 42H32.595C33.6426 41.996 34.646 41.5771 35.3854 40.8349C36.1248 40.0926 36.54 39.0877 36.54 38.04C36.536 34.7154 35.2135 31.5281 32.8627 29.1773C30.5119 26.8264 27.3246 25.504 24 25.5Z" fill="url(#paint1_linear_3907_29353)"/>
<path d="M15.75 6C13.562 6 11.4635 6.86919 9.91637 8.41637C8.36919 9.96354 7.5 12.062 7.5 14.25C7.5 16.438 8.36919 18.5365 9.91637 20.0836C11.4635 21.6308 13.562 22.5 15.75 22.5C16.3867 22.501 17.0213 22.4254 17.64 22.275C17.9832 22.1916 18.286 21.9897 18.495 21.705L23.685 14.565C23.9224 14.2634 24.0351 13.8822 24 13.5C23.8025 11.4483 22.8481 9.54368 21.323 8.15719C19.7979 6.77071 17.8112 6.00169 15.75 6Z" fill="#EAF3F9"/>
<path d="M32.2501 6C30.1889 6.00169 28.2022 6.77071 26.6771 8.15719C25.1519 9.54368 24.1976 11.4483 24.0001 13.5C23.9716 13.8583 24.0727 14.215 24.2851 14.505L29.4751 21.645C29.6841 21.9297 29.9869 22.1316 30.3301 22.215C30.956 22.3881 31.6008 22.4838 32.2501 22.5C34.4381 22.5 36.5365 21.6308 38.0837 20.0836C39.6309 18.5365 40.5001 16.438 40.5001 14.25C40.5001 12.062 39.6309 9.96354 38.0837 8.41637C36.5365 6.86919 34.4381 6 32.2501 6Z" fill="#EAF3F9"/>
<path d="M24 28.5C28.5563 28.5 32.25 24.8063 32.25 20.25C32.25 15.6937 28.5563 12 24 12C19.4437 12 15.75 15.6937 15.75 20.25C15.75 24.8063 19.4437 28.5 24 28.5Z" fill="#BAD4E5"/>
<defs>
<linearGradient id="paint0_linear_3907_29353" x1="3.20996" y1="27.742" x2="44.79" y2="27.742" gradientUnits="userSpaceOnUse">
<stop stop-color="#A298FF"/>
<stop offset="1" stop-color="#1700E8"/>
</linearGradient>
<linearGradient id="paint1_linear_3907_29353" x1="11.46" y1="33.75" x2="36.54" y2="33.75" gradientUnits="userSpaceOnUse">
<stop stop-color="#A298FF"/>
<stop offset="1" stop-color="#1700E8"/>
</linearGradient>
</defs>
</svg>
