<svg width="60" height="60" viewBox="0 0 60 60" fill="none" xmlns="http://www.w3.org/2000/svg">
<g clip-path="url(#clip0_3907_25102)">
<path d="M14.7382 50.4805C9.6968 50.4805 4.33887 52.1485 4.33887 55.2397C4.33887 58.3309 9.69691 59.999 14.7382 59.999C19.7795 59.999 25.1375 58.3309 25.1375 55.2397C25.1375 52.1485 19.7795 50.4805 14.7382 50.4805Z" fill="#EBF5FC"/>
<path d="M14.7384 18.0352C6.62664 18.0352 0.0272217 24.6346 0.0272217 32.7463C0.0272217 37.7827 2.423 43.1977 7.14812 48.8409C10.6269 52.9958 14.0555 55.6658 14.1999 55.7775C14.354 55.8968 14.5434 55.9616 14.7384 55.9615C14.9333 55.9616 15.1227 55.8968 15.2768 55.7775C15.4211 55.6658 18.8499 52.9958 22.3286 48.8409C27.0537 43.1977 29.4495 37.7825 29.4495 32.7463C29.4495 24.6346 22.8501 18.0352 14.7384 18.0352ZM20.255 32.7463C20.255 35.7929 17.7851 38.2628 14.7384 38.2628C11.6917 38.2628 9.22187 35.7929 9.22187 32.7463C9.22187 29.6997 11.6917 27.2297 14.7384 27.2297C17.7851 27.2297 20.255 29.6997 20.255 32.7463Z" fill="url(#paint0_linear_3907_25102)"/>
<path d="M53.9677 25.8758C52.4829 25.2708 50.5275 24.9375 48.4621 24.9375C46.3968 24.9375 44.4414 25.2708 42.9565 25.8758C41.2213 26.5829 40.2656 27.6211 40.2656 28.7989C40.2656 29.9768 41.2212 31.0151 42.9565 31.7221C44.4412 32.3271 46.3965 32.6604 48.4621 32.6604C50.5275 32.6604 52.4828 32.3271 53.9677 31.7221C55.7027 31.0151 56.6583 29.9768 56.6583 28.7989C56.6583 27.6211 55.7027 26.583 53.9677 25.8758Z" fill="#EBF5FC"/>
<path opacity="0.3" d="M14.7382 57.8019C10.3312 57.8019 5.68254 56.5272 4.58227 54.1413C4.42395 54.4846 4.33887 54.8511 4.33887 55.2402C4.33887 58.3314 9.69691 59.9995 14.7382 59.9995C19.7795 59.9995 25.1375 58.3313 25.1375 55.2402C25.1375 54.8512 25.0525 54.4848 24.8941 54.1413C23.794 56.5271 19.1453 57.8019 14.7382 57.8019ZM53.9679 29.5235C52.4831 30.1285 50.5279 30.4618 48.4623 30.4618C46.3969 30.4618 44.4416 30.1285 42.9567 29.5235C41.7864 29.0466 40.9724 28.4186 40.5654 27.6992C40.369 28.0464 40.266 28.4145 40.266 28.7981C40.266 29.9759 41.2215 31.0142 42.9568 31.7212C44.4416 32.3263 46.3969 32.6595 48.4624 32.6595C50.5279 32.6595 52.4831 32.3263 53.968 31.7212C55.7031 31.0142 56.6586 29.9759 56.6586 28.7981C56.6586 28.4148 56.5556 28.0464 56.3592 27.6992C55.9522 28.4186 55.1381 29.0466 53.9679 29.5235Z" fill="url(#paint1_linear_3907_25102)"/>
<path d="M48.4624 0C42.1157 0 36.9523 5.16352 36.9523 11.5102C36.9523 15.4301 38.8097 19.6358 42.4727 24.0109C45.1604 27.2209 47.8125 29.2861 47.9241 29.3725C48.0782 29.4918 48.2676 29.5565 48.4625 29.5564C48.6575 29.5565 48.8469 29.4918 49.001 29.3725C49.1126 29.2861 51.7648 27.2209 54.4524 24.0109C58.1154 19.6359 59.9727 15.4302 59.9727 11.5102C59.9725 5.16352 54.8091 0 48.4624 0ZM52.7024 11.5102C52.7024 13.8518 50.8041 15.7501 48.4624 15.7501C46.1208 15.7501 44.2225 13.8518 44.2225 11.5102C44.2225 9.16852 46.1208 7.27031 48.4624 7.27031C50.8041 7.27031 52.7024 9.16852 52.7024 11.5102Z" fill="url(#paint2_linear_3907_25102)"/>
<path d="M46.8047 0.119766C47.3535 0.0400896 47.9073 6.40251e-05 48.4618 0C54.8085 0 59.9719 5.16352 59.972 11.51C59.972 15.4301 58.1147 19.6358 54.4516 24.0108C51.7641 27.2208 49.1119 29.286 49.0003 29.3723C48.8462 29.4917 48.6568 29.5564 48.4618 29.5563C48.2669 29.5564 48.0775 29.4917 47.9234 29.3723C47.8803 29.3392 47.4589 29.0108 46.8047 28.4375C47.8482 27.5231 49.4856 25.9839 51.1375 24.0109C54.8004 19.6358 56.6578 15.4301 56.6578 11.5102C56.6578 5.72613 52.3689 0.925547 46.8047 0.119766Z" fill="url(#paint3_linear_3907_25102)"/>
<path d="M14.7383 18.0352C14.1781 18.0352 13.6254 18.0677 13.0813 18.129C20.4157 18.955 26.1353 25.1947 26.1353 32.7463C26.1353 37.7827 23.7395 43.1977 19.0144 48.8409C16.6938 51.6124 14.3972 53.7216 13.0812 54.8531C13.7381 55.418 14.1518 55.7402 14.1998 55.7774C14.3583 55.9001 14.5484 55.9614 14.7383 55.9614C14.9283 55.9614 15.1182 55.9001 15.2768 55.7774C15.4211 55.6657 18.8498 52.9957 22.3286 48.8408C27.0537 43.1975 29.4495 37.7824 29.4495 32.7462C29.4495 24.6346 22.85 18.0352 14.7383 18.0352Z" fill="url(#paint4_linear_3907_25102)"/>
<path opacity="0.5" d="M28.3856 56.1209C28.153 56.1208 27.9299 56.0286 27.765 55.8645C27.6002 55.7003 27.507 55.4776 27.5059 55.245C27.5053 55.1295 27.5276 55.0149 27.5713 54.908C27.615 54.801 27.6794 54.7037 27.7607 54.6217C27.842 54.5396 27.9388 54.4743 28.0453 54.4296C28.1519 54.3849 28.2662 54.3617 28.3817 54.3612L29.5438 54.3559H29.5479C29.7805 54.3559 30.0037 54.4481 30.1686 54.6122C30.3334 54.7763 30.4266 54.9991 30.4276 55.2318C30.4281 55.3473 30.4059 55.4618 30.3622 55.5688C30.3184 55.6757 30.2541 55.773 30.1727 55.8551C30.0914 55.9372 29.9947 56.0024 29.8881 56.0471C29.7816 56.0918 29.6673 56.1151 29.5517 56.1156L28.3897 56.1209H28.3856ZM33.0338 56.0998C32.8012 56.0997 32.5781 56.0075 32.4132 55.8434C32.2484 55.6792 32.1552 55.4565 32.1541 55.2239C32.1536 55.1084 32.1758 54.9938 32.2195 54.8869C32.2633 54.7799 32.3276 54.6826 32.409 54.6006C32.4903 54.5185 32.587 54.4532 32.6936 54.4085C32.8001 54.3638 32.9144 54.3406 33.03 54.3401L34.192 54.3348H34.1961C34.4287 54.3349 34.6518 54.4271 34.8167 54.5912C34.9815 54.7553 35.0747 54.978 35.0758 55.2107C35.0764 55.3262 35.0541 55.4407 35.0104 55.5477C34.9667 55.6546 34.9023 55.7519 34.821 55.834C34.7397 55.9161 34.6429 55.9813 34.5364 56.026C34.4298 56.0707 34.3155 56.094 34.2 56.0945L33.0379 56.0998H33.0338ZM37.6822 56.0786C37.4496 56.0785 37.2265 55.9863 37.0616 55.8222C36.8968 55.658 36.8036 55.4353 36.8025 55.2027C36.8015 54.9694 36.8932 54.7452 37.0574 54.5795C37.2217 54.4137 37.445 54.32 37.6783 54.3189L38.8402 54.3136H38.8443C39.077 54.3137 39.3001 54.4059 39.4649 54.57C39.6298 54.7341 39.723 54.9568 39.7241 55.1895C39.7251 55.4228 39.6334 55.647 39.4691 55.8127C39.3049 55.9784 39.0815 56.0722 38.8482 56.0733L37.6863 56.0786H37.6822ZM42.3306 56.0575C42.0979 56.0574 41.8748 55.9652 41.71 55.8011C41.5451 55.6369 41.4519 55.4142 41.4508 55.1816C41.4498 54.9483 41.5415 54.7241 41.7058 54.5584C41.87 54.3926 42.0934 54.2989 42.3267 54.2978L43.4887 54.2925H43.4928C43.7262 54.292 43.9502 54.3842 44.1155 54.5488C44.2809 54.7135 44.3741 54.9371 44.3746 55.1704C44.3751 55.4038 44.2829 55.6278 44.1183 55.7931C43.9536 55.9585 43.73 56.0517 43.4967 56.0522L42.3347 56.0575H42.3306ZM46.9788 56.0365C46.7462 56.0364 46.5231 55.9442 46.3582 55.7801C46.1934 55.616 46.1002 55.3932 46.0991 55.1606C46.0985 55.0451 46.1208 54.9306 46.1645 54.8236C46.2082 54.7166 46.2726 54.6194 46.3539 54.5373C46.4353 54.4552 46.532 54.39 46.6385 54.3453C46.7451 54.3006 46.8594 54.2773 46.9749 54.2768L48.137 54.2715H48.1411C48.3737 54.2716 48.5968 54.3638 48.7617 54.5279C48.9265 54.692 49.0197 54.9148 49.0208 55.1474C49.0213 55.2629 48.9991 55.3775 48.9554 55.4844C48.9116 55.5914 48.8473 55.6887 48.7659 55.7707C48.6846 55.8528 48.5879 55.9181 48.4813 55.9627C48.3748 56.0074 48.2605 56.0307 48.1449 56.0312L46.9829 56.0365H46.9788ZM51.6272 56.0154C51.3946 56.0153 51.1715 55.9232 51.0066 55.7591C50.8418 55.595 50.7486 55.3723 50.7474 55.1398C50.7469 55.0242 50.7691 54.9097 50.8128 54.8027C50.8565 54.6958 50.9208 54.5984 51.0021 54.5164C51.0834 54.4343 51.1801 54.369 51.2867 54.3243C51.3932 54.2795 51.5075 54.2562 51.6231 54.2557L51.7877 54.2549C52.0812 54.2535 52.3744 54.2328 52.6652 54.1929C52.8946 54.1647 53.1258 54.2279 53.3089 54.3688C53.4921 54.5097 53.6125 54.717 53.6441 54.9459C53.6757 55.1748 53.616 55.4069 53.4779 55.5922C53.3398 55.7775 53.1344 55.901 52.906 55.9361C52.541 55.9864 52.1674 56.0129 51.7958 56.0146L51.6315 56.0154H51.6272ZM56.0042 54.6899C55.8167 54.6899 55.6341 54.6301 55.483 54.5191C55.3318 54.4081 55.2201 54.2518 55.1641 54.0728C55.108 53.8939 55.1106 53.7017 55.1714 53.5243C55.2323 53.347 55.3481 53.1937 55.5022 53.0868C55.7833 52.8919 56.0488 52.6755 56.2965 52.4395C56.4654 52.2786 56.6914 52.1913 56.9247 52.1969C57.158 52.2025 57.3795 52.3006 57.5404 52.4695C57.7014 52.6385 57.7887 52.8644 57.7831 53.0977C57.7774 53.331 57.6794 53.5525 57.5104 53.7135C57.1969 54.0121 56.8608 54.2861 56.505 54.5329C56.358 54.6352 56.1833 54.69 56.0042 54.6899ZM58.7867 51.0618C58.6458 51.0617 58.5069 51.0279 58.3817 50.963C58.2566 50.8981 58.1489 50.804 58.0676 50.6888C57.9864 50.5736 57.934 50.4406 57.9149 50.3009C57.8958 50.1613 57.9105 50.019 57.9579 49.8862C58.0725 49.5645 58.1618 49.2343 58.225 48.8986C58.2464 48.7851 58.29 48.6768 58.3532 48.5801C58.4164 48.4834 58.498 48.4001 58.5934 48.335C58.6888 48.2698 58.7961 48.2241 58.9092 48.2004C59.0223 48.1767 59.1389 48.1755 59.2524 48.1969C59.366 48.2183 59.4742 48.2618 59.5709 48.325C59.6676 48.3882 59.7509 48.4698 59.8161 48.5652C59.8812 48.6606 59.927 48.7679 59.9507 48.881C59.9743 48.9941 59.9755 49.1107 59.9541 49.2243C59.8739 49.6501 59.7606 50.069 59.6151 50.4772C59.5542 50.6482 59.4419 50.7961 59.2936 50.9008C59.1453 51.0054 58.9682 51.0616 58.7867 51.0618ZM58.9291 46.4914C58.7382 46.4913 58.5524 46.429 58.4 46.314C58.2475 46.1991 58.1366 46.0376 58.084 45.8541C57.9895 45.5258 57.8696 45.2054 57.7252 44.8958C57.6323 44.6852 57.6256 44.4466 57.7066 44.2311C57.7875 44.0156 57.9497 43.8404 58.1583 43.743C58.3669 43.6457 58.6053 43.634 58.8225 43.7104C59.0396 43.7867 59.2182 43.9452 59.3199 44.1517C59.5032 44.5448 59.6555 44.9517 59.7753 45.3686C59.8129 45.4996 59.8196 45.6376 59.7948 45.7716C59.7699 45.9057 59.7143 46.0322 59.6322 46.141C59.5502 46.2499 59.444 46.3382 59.3219 46.3991C59.1999 46.4599 59.0654 46.4915 58.9291 46.4914ZM56.3773 42.6959C56.1796 42.696 55.9877 42.6293 55.8327 42.5066C55.5644 42.2948 55.2801 42.1042 54.9824 41.9364C54.8817 41.8797 54.7932 41.8037 54.7218 41.7128C54.6505 41.6219 54.5978 41.5178 54.5667 41.4065C54.5356 41.2953 54.5268 41.1789 54.5406 41.0642C54.5545 40.9495 54.5908 40.8387 54.6475 40.738C54.7042 40.6373 54.7802 40.5488 54.8711 40.4775C54.962 40.4062 55.0661 40.3535 55.1774 40.3224C55.2887 40.2913 55.405 40.2824 55.5197 40.2963C55.6344 40.3102 55.7452 40.3465 55.8459 40.4032C56.223 40.6158 56.5832 40.8572 56.9231 41.1253C57.1062 41.27 57.2243 41.4814 57.2516 41.7131C57.2788 41.9448 57.2129 42.1779 57.0684 42.3611C56.9861 42.4656 56.8812 42.55 56.7614 42.608C56.6417 42.666 56.5104 42.6961 56.3773 42.6959ZM52.0944 41.1012C52.0813 41.1012 52.0681 41.1009 52.0548 41.1002C51.9559 41.0959 51.857 41.0937 51.7581 41.0937H50.9318C50.8162 41.0937 50.7018 41.0709 50.595 41.0267C50.4883 40.9825 50.3913 40.9177 50.3096 40.836C50.2279 40.7543 50.1631 40.6573 50.1189 40.5505C50.0747 40.4438 50.0519 40.3294 50.0519 40.2138C50.0519 40.0983 50.0747 39.9839 50.1189 39.8771C50.1631 39.7704 50.2279 39.6734 50.3096 39.5917C50.3913 39.5099 50.4883 39.4451 50.595 39.4009C50.7018 39.3567 50.8162 39.334 50.9318 39.334H51.7581C51.8822 39.334 52.0081 39.3367 52.1326 39.3423C52.248 39.3474 52.3613 39.3752 52.466 39.4241C52.5707 39.4729 52.6647 39.542 52.7427 39.6272C52.8207 39.7124 52.8811 39.8122 52.9205 39.9208C52.96 40.0294 52.9776 40.1447 52.9725 40.2601C52.9626 40.4864 52.8657 40.7001 52.7022 40.8568C52.5386 41.0135 52.3209 41.101 52.0944 41.1012ZM47.4456 41.0938H46.2835C46.0502 41.0938 45.8264 41.0011 45.6614 40.8361C45.4964 40.6711 45.4037 40.4473 45.4037 40.2139C45.4037 39.9806 45.4964 39.7568 45.6614 39.5918C45.8264 39.4268 46.0502 39.3341 46.2835 39.3341H47.4456C47.6789 39.3341 47.9027 39.4268 48.0677 39.5918C48.2327 39.7568 48.3254 39.9806 48.3254 40.2139C48.3254 40.4473 48.2327 40.6711 48.0677 40.8361C47.9027 41.0011 47.6789 41.0938 47.4456 41.0938ZM42.7972 41.0938H41.6352C41.4018 41.0938 41.178 41.0011 41.013 40.8361C40.848 40.6711 40.7553 40.4473 40.7553 40.2139C40.7553 39.9806 40.848 39.7568 41.013 39.5918C41.178 39.4268 41.4018 39.3341 41.6352 39.3341H42.7972C43.0305 39.3341 43.2543 39.4268 43.4193 39.5918C43.5843 39.7568 43.677 39.9806 43.677 40.2139C43.677 40.4473 43.5843 40.6711 43.4193 40.8361C43.2543 41.0011 43.0305 41.0938 42.7972 41.0938ZM38.1487 41.0938H36.9867C36.7533 41.0938 36.5295 41.0011 36.3645 40.8361C36.1995 40.6711 36.1068 40.4473 36.1068 40.2139C36.1068 39.9806 36.1995 39.7568 36.3645 39.5918C36.5295 39.4268 36.7533 39.3341 36.9867 39.3341H38.1487C38.3821 39.3341 38.6059 39.4268 38.7709 39.5918C38.9359 39.7568 39.0286 39.9806 39.0286 40.2139C39.0286 40.4473 38.9359 40.6711 38.7709 40.8361C38.6059 41.0011 38.3821 41.0938 38.1487 41.0938ZM33.6664 40.2186C33.5005 40.2187 33.3381 40.1716 33.1979 40.0829C32.8197 39.8441 32.4667 39.5677 32.1443 39.2577C32.061 39.1776 31.9943 39.0819 31.9481 38.976C31.9018 38.8702 31.8768 38.7562 31.8746 38.6407C31.8723 38.5252 31.8929 38.4104 31.935 38.3028C31.9771 38.1952 32.04 38.097 32.1201 38.0138C32.2002 37.9305 32.2959 37.8638 32.4018 37.8175C32.5077 37.7713 32.6216 37.7463 32.7371 37.7441C32.8526 37.7418 32.9674 37.7623 33.075 37.8045C33.1826 37.8466 33.2808 37.9095 33.3641 37.9896C33.6004 38.2169 33.8593 38.4197 34.1367 38.5947C34.2981 38.6964 34.4221 38.8479 34.49 39.0263C34.5578 39.2047 34.5657 39.4003 34.5127 39.5836C34.4596 39.7669 34.3483 39.928 34.1957 40.0426C34.043 40.1571 33.8573 40.2189 33.6664 40.2186ZM31.1093 36.4914C30.9053 36.4911 30.7077 36.42 30.5504 36.2902C30.393 36.1604 30.2856 35.98 30.2465 35.7798C30.1656 35.3633 30.1249 34.9401 30.125 34.5158L30.1254 34.4464C30.1318 34.2156 30.2287 33.9966 30.3952 33.8366C30.5616 33.6766 30.7843 33.5884 31.0152 33.5911C31.2461 33.5937 31.4666 33.6871 31.6293 33.8509C31.7921 34.0147 31.8838 34.2359 31.8849 34.4668L31.8847 34.5157C31.8847 34.8279 31.9147 35.14 31.9738 35.4431C31.9986 35.5706 31.995 35.702 31.963 35.828C31.9311 35.9539 31.8717 36.0711 31.789 36.1714C31.7064 36.2716 31.6026 36.3523 31.485 36.4076C31.3675 36.4629 31.2392 36.4915 31.1093 36.4914ZM32.0708 32.0756C31.909 32.0755 31.7504 32.0307 31.6124 31.9463C31.4744 31.8619 31.3623 31.741 31.2885 31.597C31.2147 31.453 31.182 31.2915 31.1941 31.1302C31.2061 30.9688 31.2624 30.8139 31.3568 30.6825C31.6177 30.3193 31.9148 29.9835 32.2435 29.6803C32.415 29.5221 32.6424 29.4385 32.8755 29.4479C33.1087 29.4573 33.3286 29.559 33.4868 29.7305C33.645 29.902 33.7286 30.1293 33.7192 30.3625C33.7098 30.5956 33.6081 30.8155 33.4366 30.9737C33.1955 31.1963 32.9776 31.4426 32.7861 31.7091C32.7046 31.8226 32.5972 31.9152 32.4728 31.9789C32.3484 32.0427 32.2106 32.0758 32.0708 32.0756ZM35.9441 29.7473C35.7212 29.7465 35.5069 29.6612 35.3445 29.5085C35.1821 29.3559 35.0836 29.1473 35.069 28.9249C35.0545 28.7025 35.1248 28.4828 35.2659 28.3102C35.4069 28.1377 35.6082 28.0251 35.8291 27.9952C36.1189 27.9568 36.4108 27.9376 36.7031 27.9375H37.1048C37.5908 27.9375 37.9847 28.3314 37.9847 28.8173C37.9847 29.3033 37.5908 29.6972 37.1048 29.6972H36.7031C36.4879 29.6972 36.272 29.7114 36.0611 29.7394C36.0224 29.7448 35.9832 29.7475 35.9441 29.7473Z" fill="url(#paint5_linear_3907_25102)"/>
</g>
<defs>
<linearGradient id="paint0_linear_3907_25102" x1="0.0272217" y1="36.9983" x2="29.4495" y2="36.9983" gradientUnits="userSpaceOnUse">
<stop stop-color="#A298FF"/>
<stop offset="1" stop-color="#1700E8"/>
</linearGradient>
<linearGradient id="paint1_linear_3907_25102" x1="4.33887" y1="43.8494" x2="56.6586" y2="43.8494" gradientUnits="userSpaceOnUse">
<stop stop-color="#A298FF"/>
<stop offset="1" stop-color="#1700E8"/>
</linearGradient>
<linearGradient id="paint2_linear_3907_25102" x1="36.9523" y1="14.7782" x2="59.9727" y2="14.7782" gradientUnits="userSpaceOnUse">
<stop stop-color="#A298FF"/>
<stop offset="1" stop-color="#1700E8"/>
</linearGradient>
<linearGradient id="paint3_linear_3907_25102" x1="46.8047" y1="14.7782" x2="59.972" y2="14.7782" gradientUnits="userSpaceOnUse">
<stop stop-color="#A298FF"/>
<stop offset="1" stop-color="#1700E8"/>
</linearGradient>
<linearGradient id="paint4_linear_3907_25102" x1="13.0812" y1="36.9983" x2="29.4495" y2="36.9983" gradientUnits="userSpaceOnUse">
<stop stop-color="#A298FF"/>
<stop offset="1" stop-color="#1700E8"/>
</linearGradient>
<linearGradient id="paint5_linear_3907_25102" x1="27.5059" y1="42.0292" x2="59.9693" y2="42.0292" gradientUnits="userSpaceOnUse">
<stop stop-color="#A298FF"/>
<stop offset="1" stop-color="#1700E8"/>
</linearGradient>
<clipPath id="clip0_3907_25102">
<rect width="60" height="60" fill="white"/>
</clipPath>
</defs>
</svg>
