<svg width="24" height="24" viewBox="0 0 24 24" fill="none" xmlns="http://www.w3.org/2000/svg">
<path d="M7.45524 3.00096C7.4224 2.94369 7.37503 2.89611 7.31791 2.86302C7.26079 2.82993 7.19594 2.8125 7.12993 2.8125C7.06392 2.8125 6.99907 2.82993 6.94195 2.86302C6.88483 2.89611 6.83746 2.94369 6.80462 3.00096L2.64399 10.3135C2.61102 10.3706 2.59369 10.4354 2.59375 10.5013C2.59382 10.5673 2.61127 10.6321 2.64436 10.6891C2.67745 10.7462 2.725 10.7935 2.78222 10.8263C2.83943 10.8591 2.90429 10.8762 2.97024 10.876H11.2896C11.3564 10.8779 11.4224 10.862 11.481 10.8299C11.5395 10.7978 11.5884 10.7506 11.6226 10.6933C11.6568 10.6359 11.6751 10.5705 11.6756 10.5037C11.676 10.437 11.6587 10.3713 11.6252 10.3135L7.45524 3.00096ZM3.61337 10.126L7.12524 3.93846L10.6446 10.126H3.61337ZM15.0002 10.876H19.5002C19.8981 10.876 20.2796 10.7179 20.5609 10.4366C20.8422 10.1553 21.0002 9.77379 21.0002 9.37596V4.87596C21.0002 4.47814 20.8422 4.09661 20.5609 3.8153C20.2796 3.534 19.8981 3.37596 19.5002 3.37596H15.0002C14.6024 3.37596 14.2209 3.534 13.9396 3.8153C13.6583 4.09661 13.5002 4.47814 13.5002 4.87596V9.37596C13.5002 9.77379 13.6583 10.1553 13.9396 10.4366C14.2209 10.7179 14.6024 10.876 15.0002 10.876ZM14.2502 4.87596C14.2502 4.67705 14.3293 4.48628 14.4699 4.34563C14.6106 4.20498 14.8013 4.12596 15.0002 4.12596H19.5002C19.6992 4.12596 19.8899 4.20498 20.0306 4.34563C20.1712 4.48628 20.2502 4.67705 20.2502 4.87596V9.37596C20.2502 9.57487 20.1712 9.76564 20.0306 9.90629C19.8899 10.0469 19.6992 10.126 19.5002 10.126H15.0002C14.8013 10.126 14.6106 10.0469 14.4699 9.90629C14.3293 9.76564 14.2502 9.57487 14.2502 9.37596V4.87596ZM21.2646 15.8616L18.2646 12.8616C18.1314 12.7284 17.9733 12.6227 17.7992 12.5506C17.6252 12.4785 17.4386 12.4413 17.2502 12.4413C17.0618 12.4413 16.8753 12.4785 16.7013 12.5506C16.5272 12.6227 16.3691 12.7284 16.2359 12.8616L13.2359 15.8616C12.9677 16.1311 12.8172 16.4958 12.8172 16.876C12.8172 17.2561 12.9677 17.6208 13.2359 17.8903L16.2359 20.8903C16.3691 21.0236 16.5272 21.1293 16.7013 21.2014C16.8753 21.2735 17.0618 21.3106 17.2502 21.3106C17.4386 21.3106 17.6252 21.2735 17.7992 21.2014C17.9733 21.1293 18.1314 21.0236 18.2646 20.8903L21.2646 17.8903C21.5323 17.6206 21.6825 17.256 21.6825 16.876C21.6825 16.4959 21.5323 16.1313 21.2646 15.8616ZM20.734 17.3616L17.734 20.3616C17.6054 20.4894 17.4315 20.5611 17.2502 20.5611C17.069 20.5611 16.8951 20.4894 16.7665 20.3616L13.7665 17.3616C13.7028 17.2982 13.6522 17.2228 13.6177 17.1398C13.5832 17.0568 13.5654 16.9677 13.5654 16.8778C13.5654 16.7879 13.5832 16.6989 13.6177 16.6159C13.6522 16.5329 13.7028 16.4575 13.7665 16.3941L16.7665 13.3941C16.8965 13.269 17.0698 13.1991 17.2502 13.1991C17.4306 13.1991 17.604 13.269 17.734 13.3941L20.734 16.3941C20.8622 16.5224 20.9343 16.6964 20.9343 16.8778C20.9343 17.0593 20.8622 17.2333 20.734 17.3616ZM7.12524 12.751C6.30939 12.751 5.51187 12.9929 4.83351 13.4461C4.15516 13.8994 3.62645 14.5436 3.31424 15.2974C3.00203 16.0511 2.92034 16.8805 3.0795 17.6807C3.23867 18.4809 3.63154 19.2159 4.20843 19.7928C4.78532 20.3697 5.52032 20.7625 6.32049 20.9217C7.12067 21.0809 7.95007 20.9992 8.70381 20.687C9.45756 20.3748 10.1018 19.846 10.5551 19.1677C11.0083 18.4893 11.2502 17.6918 11.2502 16.876C11.2502 16.3343 11.1435 15.7979 10.9362 15.2974C10.7289 14.7969 10.4251 14.3422 10.0421 13.9591C9.65902 13.5761 9.20428 13.2723 8.70381 13.065C8.20334 12.8577 7.66694 12.751 7.12524 12.751ZM7.12524 20.251C6.45773 20.251 5.80521 20.053 5.25019 19.6822C4.69518 19.3113 4.26259 18.7842 4.00715 18.1675C3.7517 17.5508 3.68487 16.8722 3.81509 16.2175C3.94532 15.5628 4.26675 14.9615 4.73876 14.4895C5.21076 14.0175 5.81213 13.696 6.46681 13.5658C7.1215 13.4356 7.8001 13.5024 8.4168 13.7579C9.0335 14.0133 9.5606 14.4459 9.93145 15.0009C10.3023 15.5559 10.5002 16.2084 10.5002 16.876C10.5002 17.7711 10.1447 18.6295 9.51173 19.2624C8.87879 19.8954 8.02035 20.251 7.12524 20.251Z" fill="#6B7280"/>
</svg>
