<svg width="178" height="178" viewBox="0 0 178 178" fill="none" xmlns="http://www.w3.org/2000/svg">
<circle cx="89" cy="89" r="88" stroke="white" stroke-width="2" stroke-dasharray="0 0"/>
<path d="M116.329 108.845C114.841 105.32 112.682 102.119 109.972 99.4193C107.27 96.7116 104.069 94.5528 100.547 93.0621C100.515 93.0463 100.483 93.0384 100.452 93.0226C105.366 89.4733 108.56 83.6919 108.56 77.169C108.56 66.3634 99.8051 57.6084 88.9994 57.6084C78.1938 57.6084 69.4388 66.3634 69.4388 77.169C69.4388 83.6919 72.6332 89.4733 77.547 93.0305C77.5154 93.0463 77.4839 93.0542 77.4523 93.0699C73.9188 94.5607 70.7481 96.6981 68.0269 99.4272C65.3193 102.129 63.1605 105.33 61.6697 108.853C60.2052 112.301 59.4154 115.999 59.343 119.745C59.3409 119.829 59.3556 119.913 59.3864 119.991C59.4172 120.07 59.4633 120.141 59.5221 120.201C59.5809 120.262 59.6512 120.31 59.7288 120.342C59.8064 120.375 59.8898 120.392 59.974 120.392H64.7064C65.0534 120.392 65.3295 120.116 65.3374 119.777C65.4951 113.687 67.9402 107.985 72.2625 103.663C76.7346 99.1905 82.6738 96.7297 88.9994 96.7297C95.3251 96.7297 101.264 99.1905 105.736 103.663C110.059 107.985 112.504 113.687 112.661 119.777C112.669 120.124 112.945 120.392 113.292 120.392H118.025C118.109 120.392 118.192 120.375 118.27 120.342C118.348 120.31 118.418 120.262 118.477 120.201C118.536 120.141 118.582 120.07 118.612 119.991C118.643 119.913 118.658 119.829 118.656 119.745C118.577 115.975 117.796 112.307 116.329 108.845ZM88.9994 90.7353C85.3791 90.7353 81.9718 89.3235 79.4084 86.7601C76.845 84.1967 75.4332 80.7893 75.4332 77.169C75.4332 73.5487 76.845 70.1414 79.4084 67.578C81.9718 65.0146 85.3791 63.6028 88.9994 63.6028C92.6197 63.6028 96.0271 65.0146 98.5905 67.578C101.154 70.1414 102.566 73.5487 102.566 77.169C102.566 80.7893 101.154 84.1967 98.5905 86.7601C96.0271 89.3235 92.6197 90.7353 88.9994 90.7353Z" fill="black"/>
</svg>
