<svg width="19" height="12" viewBox="0 0 19 12" fill="none" xmlns="http://www.w3.org/2000/svg">
<path id="Vector" d="M1.17537 7.57767C1.98466 3.81868 5.36778 1.14778 9.17333 1.14778C12.9777 1.14778 16.3608 3.81868 17.1713 7.57767C17.2034 7.72683 17.2954 7.85754 17.4272 7.94106C17.5589 8.02458 17.7196 8.05406 17.8738 8.023C18.028 7.99195 18.1631 7.90292 18.2495 7.77549C18.3358 7.64807 18.3663 7.49268 18.3342 7.34352C17.4122 3.06802 13.5556 0 9.17333 0C4.79107 0 0.934486 3.06802 0.0124665 7.34352C-0.0196346 7.49268 0.0108392 7.64807 0.0971841 7.77549C0.183529 7.90292 0.318672 7.99195 0.472883 8.023C0.627094 8.05406 0.787742 8.02458 0.919484 7.94106C1.05123 7.85754 1.14327 7.72683 1.17537 7.57767ZM9.16147 3.44335C10.263 3.44335 11.3194 3.86659 12.0983 4.61997C12.8771 5.37335 13.3147 6.39515 13.3147 7.46059C13.3147 8.52603 12.8771 9.54783 12.0983 10.3012C11.3194 11.0546 10.263 11.4778 9.16147 11.4778C8.05996 11.4778 7.00356 11.0546 6.22468 10.3012C5.4458 9.54783 5.00822 8.52603 5.00822 7.46059C5.00822 6.39515 5.4458 5.37335 6.22468 4.61997C7.00356 3.86659 8.05996 3.44335 9.16147 3.44335Z" fill="#6A707C"/>
</svg>
